<svg xmlns="http://www.w3.org/2000/svg" id="Calque_2" data-name="Calque 2" viewBox="290.58 243.44 418.85 513.11">
  <defs>
    <style>
      .cls-1 {
        fill: #303d3c;
        stroke-width: 0px;
      }
    </style>
  </defs>
  <g>
    <path class="cls-1" d="M473.54,501.56c-.75-6.57,2.01-13.07,3.98-19.2,2.29-7.12,3.92-14.44,6.24-21.56.36-1.11-1.38-1.58-1.74-.48-2.42,7.41-4.13,15.01-6.52,22.42-1.94,6.02-4.51,12.37-3.77,18.82.13,1.14,1.93,1.15,1.8,0h0Z"/>
    <path class="cls-1" d="M524.28,502.65c.46-2.3-.94-5.12-1.39-7.39-.74-3.66-1.46-7.32-2.31-10.96-1.87-7.98-4.3-15.86-6.49-23.76-.31-1.12-2.05-.64-1.74.48,1.99,7.19,4.04,14.37,5.95,21.59.86,3.25,1.52,6.55,2.19,9.84.37,1.83.73,3.66,1.11,5.49.26,1.26,1.2,2.96.95,4.24-.23,1.13,1.51,1.62,1.74.48h0Z"/>
  </g>
  <g>
    <path class="cls-1" d="M706.72,544.97c-.23,31.84-8.41,63.34-22.32,91.9-7,14.37-15.59,27.97-25.59,40.44-10.33,12.89-22.42,23.97-35.24,34.32-45,36.36-104.35,48.39-160.87,39.22-54.26-8.8-109.05-37.95-137.84-86.13-15.69-26.25-24.82-56.53-29.22-86.66-4.14-28.34-2.97-57.17,3.98-84.97,13.38-53.43,48.01-100.66,95.39-128.85,50.64-30.14,115.41-36.91,171-17.21,60.17,21.32,108.53,72.4,129.38,132.28,7.34,21.06,11.36,43.34,11.31,65.66,0,1.16,1.8,1.16,1.8,0,.06-32.16-8.29-63.97-22.55-92.69-14.27-28.74-35.14-53.39-60.1-73.44-22.86-18.36-49.33-32-77.83-39.09-29.21-7.26-59.79-7.09-89.27-1.52-53.72,10.14-101.13,42.79-131.44,88.03-15.08,22.5-25.66,47.95-31.31,74.42-5.86,27.43-5.81,55.58-1.29,83.19,4.85,29.63,14.55,59.15,30.4,84.77,14.37,23.21,35.43,41.63,58.7,55.59,46.75,28.06,104.54,37.8,157.97,27.34,58.97-11.55,109.83-51.53,138.87-103.67,17.41-31.27,27.59-67.07,27.84-102.92,0-1.16-1.79-1.16-1.8,0Z"/>
    <path class="cls-1" d="M499.18,756.55h0c-41.35,0-81.4-10.91-115.8-31.56-25.77-15.46-45.62-34.27-59-55.89-14.97-24.19-25.24-52.82-30.53-85.1-4.76-29.09-4.32-57.19,1.3-83.52,5.7-26.7,16.57-52.54,31.44-74.73,30.95-46.19,79.07-78.42,132.03-88.41,14.33-2.7,28.63-4.07,42.52-4.07,16.29,0,32.15,1.89,47.13,5.61,27.75,6.9,54.79,20.47,78.18,39.26,26.2,21.04,46.5,45.85,60.34,73.74,14.87,29.96,22.7,62.14,22.64,93.09h-.9s.9.01.9.01h-.26s.26,0,.26,0h-.9s.57.01.57.01h.33s0,0,0,0h0s0,0,0,0c-.26,35.23-9.92,70.95-27.96,103.33-30.07,53.98-82.21,92.9-139.48,104.12-13.94,2.73-28.34,4.11-42.8,4.11ZM417.8,739.78c25.58,9.85,53.17,14.97,81.37,14.97h0c14.35,0,28.63-1.37,42.46-4.08,13.24-2.59,26.19-6.68,38.67-12.1-4.95,2.1-10.01,4.01-15.19,5.72-20.91,6.9-43.14,10.39-66.08,10.4-12.11,0-24.38-.99-36.47-2.96-15.58-2.53-30.6-6.57-44.76-11.95ZM499.85,336.77c-37.23,0-73.32,9.77-104.37,28.24-46.94,27.93-81.56,74.69-94.98,128.3-6.84,27.34-8.18,55.81-3.97,84.62,4.83,33.05,14.62,62.1,29.1,86.33,26.29,43.99,77.58,76.03,137.21,85.7,12,1.95,24.17,2.93,36.18,2.93,22.75,0,44.79-3.47,65.51-10.31,21.62-7.13,41.29-17.78,58.46-31.66,14.91-12.05,26.06-22.91,35.1-34.19,9.92-12.38,18.49-25.93,25.48-40.28,14.33-29.41,22.02-61.06,22.23-91.51h0c.04-21.79-3.75-43.78-11.26-65.35-10.3-29.56-27.5-57.32-49.75-80.27-22.63-23.35-49.98-41.14-79.09-51.46-20.8-7.37-42.96-11.11-65.87-11.11ZM647.29,691.58c-6.61,6.72-14.21,13.53-23.15,20.75-1.87,1.51-3.78,2.99-5.71,4.43,10.28-7.45,19.95-15.88,28.86-25.17ZM324.71,666.2c.39.66.79,1.31,1.19,1.96,7.18,11.61,16.26,22.4,27.15,32.29-11.18-10.29-20.76-21.79-28.34-34.25ZM707.6,546.74c-.5,30.18-8.23,61.44-22.39,90.52-.99,2.03-2.01,4.04-3.06,6.04,16.15-30.46,24.92-63.71,25.45-96.56h0ZM296.87,590.79c1.34,7.05,2.92,13.91,4.75,20.58-1.82-6.66-3.4-13.52-4.75-20.58ZM707.63,544.97h.89s-.89,0-.89,0ZM707.63,544.96h.89s-.89,0-.89,0h0,0s0,0,0,0h.05s-.05,0-.05,0ZM707.63,544.96h.89s-.89,0-.89,0c0,0,0,0,0,0ZM707.63,544.96h.38s-.38,0-.38,0h0ZM297.74,497.15c-.29,1.23-.56,2.47-.83,3.71-2.08,9.74-3.45,19.73-4.09,29.93.75-11.35,2.39-22.58,4.92-33.64ZM656.11,409.12c15.49,18.27,28,38.96,36.76,60.84-2.31-5.83-4.87-11.59-7.7-17.28-7.7-15.52-17.42-30.08-29.07-43.55ZM343.56,406.45c-5.54,6.41-10.71,13.19-15.48,20.3-4.69,6.99-8.97,14.35-12.82,21.99,7.72-15.21,17.24-29.42,28.3-42.29ZM517.37,335.71c13.32,1.13,26.33,3.54,38.9,7.23-2.81-.84-5.62-1.61-8.45-2.31-9.81-2.44-20.01-4.08-30.46-4.92Z"/>
  </g>
  <path class="cls-1" d="M695.33,544.99c-.23,31.78-8.83,63.22-23.39,91.38-15.35,29.69-37.93,54.28-65.1,73.6-45.73,32.52-106.09,39.17-159.7,25.84-27.05-6.72-52.87-18.82-74.93-35.9-10.99-8.51-21.16-18.31-29.45-29.49-9.01-12.14-15.93-25.78-21.48-39.81-10.99-27.8-16.89-58.21-16.57-88.11.29-28.03,6.7-55.89,18.37-81.35,23.07-50.33,67.15-89.58,120.31-105.41,29.17-8.69,60.8-10.65,90.77-5.28,29.75,5.33,57.51,18.55,81.33,37,23.81,18.44,43.59,41.53,57.48,68.27,14.24,27.4,22.42,58.32,22.36,89.26,0,1.16,1.8,1.16,1.8,0,.06-32-8.67-63.66-23.52-91.91-14.67-27.91-36.17-51.66-61.44-70.37-23.65-17.52-51.1-29.53-80.15-34.44-29.22-4.94-59.88-2.69-88.31,5.5-52.19,15.04-95.63,52.93-119.74,101.33-12.11,24.31-19.09,51.03-20.74,78.12-1.78,29.19,3.05,58.89,12.21,86.57,9.12,27.55,23.35,52.77,44.88,72.46,19.96,18.26,44.07,31.68,69.61,40.38,51.36,17.5,110.41,15.65,158.92-9.57,13.93-7.24,26.35-16.69,38.22-26.9,11.73-10.08,22.12-21.39,31.15-33.95,18.21-25.34,30.56-55.07,36.02-85.77,1.85-10.38,2.81-20.92,2.89-31.46,0-1.16-1.79-1.16-1.8,0Z"/>
  <path class="cls-1" d="M667.14,450.76c-15.38-27.73-38.03-51.22-64.21-68.96-24.56-16.65-52.87-26.91-82.36-29.98-29.49-3.07-60.27,1.1-87.96,11.65-51.39,19.59-91.41,62.03-110.3,113.4-20.01,54.42-13.61,117.69,12.84,168.88,25.88,50.07,80.05,80.06,134.44,88.27,27.41,4.14,55.61,2.92,82.42-4.26,13.22-3.54,26.05-8.69,38.07-15.22,14.18-7.71,26.87-17.85,38.85-28.6,39.29-35.24,62.75-89.63,63.14-142.21.05-32.48-9.22-64.64-24.93-92.96ZM632.45,672.76c-13.45,12.61-26.5,25.77-42.99,34.24-15.46,7.94-32.01,13.73-49.01,17.3-32.01,6.73-66.14,5.74-97.64-3.15-15.97-4.51-31.43-11.19-45.22-20.48-13.21-8.9-27.86-17.62-37.12-30.67-33.28-46.89-49.67-98.6-40.41-156.19,8.92-55.45,45-109.63,95.72-135.03,29.39-14.72,62.49-22.18,95.37-20.46,11.37.6,22.68,2.29,33.71,5.09,7.06,1.79,13.85,4.25,20.22,7.81,6.68,3.74,14.46,5.42,21.07,8.96,8.1,4.35,14.46,12.28,21.74,17.82,3.65,2.78,7.53,5.26,11.25,7.96,21.21,15.39,36.65,37.78,46.85,61.91,15.17,35.86,22.71,74.87,14.86,113.25-6.97,34.1-22.8,67.62-48.43,91.64Z"/>
  <path class="cls-1" d="M468.08,337.15c-.05-2.42-.5-4.86.02-7.25.71-3.21,5.51-2.55,7.91-2.42,6.24.32,12.5-.15,18.75.06,5.89.2,11.79.1,17.67.51,3.19.22,6.35.68,9.45,1.44,1.63.4,3.29.91,4.77,1.72,2.13,1.16,1.24,3.29.33,4.9-.57,1.01.99,1.92,1.55.91,3.41-6.07-1.82-8.2-7.1-9.49-7.76-1.89-15.97-1.55-23.9-1.7-8.23-.16-16.49-.29-24.72-.23-2.52.02-4.91.61-6.14,2.97-1.31,2.5-.46,5.92-.4,8.59.03,1.16,1.83,1.16,1.8,0h0Z"/>
  <path class="cls-1" d="M477.83,321.97c-.11-.08-.23-.16-.34-.24-.42-.29-.97-.06-1.23.32-.22.31-.15.64-.05.98.29.95,1.8.8,1.77-.24-.03-.45-.03-.89,0-1.34h-1.8v1.35c0,1.16,1.8,1.16,1.8,0v-1.14c0-1.16-1.76-1.16-1.8,0-.04,1.31,0,2.54.27,3.82.21,1.02,1.76.75,1.77-.24,0-1.03-.11-2.05-.14-3.07-.06-1.84,1.34-1.68,2.7-1.61,2.35.13,4.63.83,6.97,1.04v-1.8c-3.42.39-6.84.68-10.22,1.41-1.04.22-.73,1.7.24,1.77,2.87.19,5.65-.39,8.47-.83-.16-.58-.32-1.16-.48-1.74-2.27.58-4.62.61-6.9,1.16-.85.2-.88,1.55,0,1.74,1.81.38,3.64.51,5.47.75-.08-.59-.16-1.18-.24-1.77-2.34.8-4.8,1.04-7.16,1.77-.79.24-.92,1.57,0,1.74,3.27.59,6.54.12,9.64-1.05.77-.29.86-1.16.21-1.64-1.5-1.12-3.11-1.18-4.91-1.46-.08.59-.16,1.18-.24,1.77,2.2-.09,4.32-.12,6.46-.68.71-.18.81-1,.4-1.5-.43-.52-.76-.88-1.3-1.29-.07.55-.14,1.1-.21,1.64,5.57-1.44,11.63.81,17.03,2.1,1.92.46,3.84.83,5.82.92,2.43.12,6.01-.27,5.63,3.16.51-.21,1.02-.42,1.54-.64-6.14-5.43-16.46-1.39-23.68-1.38v1.8c3.95-.04,7.81-.77,11.71-1.3.87-.12.85-1.59,0-1.74-6.89-1.15-13.79-2.7-20.82-2.33-1.02.05-1.22,1.46-.24,1.77,5.6,1.77,11.7.58,17.36-.33,1.08-.17.69-1.67-.24-1.77-4.36-.45-8.69-1.14-13.02-1.82-.08.59-.16,1.18-.24,1.77,4.32.22,8.64-.18,12.96.16-.08-.59-.16-1.18-.24-1.77-5.3,1.81-11-.05-16.34,1.66-.73.23-.91,1.24-.21,1.64,3.06,1.77,6.4,1.15,9.77,1.67v-1.74c-3.33.9-6.75.79-10.16.81v1.8c3.82-.02,7.61.12,11.4-.44,1.03-.15.74-1.75-.24-1.77-4.47-.08-8.91-.02-13.34.67-1.05.16-.73,1.72.24,1.77,8.99.42,17.96-.81,26.95-.52,1.19.04,1.11-1.65,0-1.8-2.7-.36-5.42-.62-8.13-.87-1.01-.09-1.24,1.61-.24,1.77,4.06.62,8.14.62,12.24.6.98,0,1.27-1.62.24-1.77-3.97-.57-7.77-1.87-11.81-1.88-1.17,0-1.14,1.71,0,1.8,3.98.32,7.94.75,11.88,1.39,1.13.18,1.62-1.53.48-1.74-3.55-.63-6.99-1.75-10.58-2.17-.96-.11-1.13,1.23-.45,1.68,3.15,2.08,7.04,2.48,10.68,3.1,1.13.19,1.62-1.53.48-1.74-.34-.06-.67-.12-1.01-.18-.08.59-.16,1.18-.24,1.77,1.04,0,2.08,0,3.12-.02.87-.02,1.26-1.23.45-1.68-5.77-3.2-11.98-4.25-18.52-4.3v1.8c3.8-.04,7.59-.51,11.39-.55,2.11-.02,4.45.09,6.41.96,1.28.57.8,2.9.76,3.98.56-.15,1.12-.3,1.68-.45-1.77-3.83-4.92-4.38-8.83-4.22v1.8c1.66-.15,4.61-1.3,5.95.06.21-.51.42-1.02.64-1.54-.42-.09-.83-.17-1.25-.26-1.15-.3-1.52,1.31-.48,1.74.77.38,1.16.96,1.16,1.73.19,1.14,1.93.66,1.74-.48-.27-1.56-.99-2.4-2.42-2.99-.16.58-.32,1.16-.48,1.74.64.17,1.07.24,1.72.32.82.11,1.13-1.03.64-1.54-1.92-1.94-4.85-.8-7.23-.59-1.14.1-1.17,1.85,0,1.8,3.22-.13,5.79.1,7.28,3.33.4.86,1.65.37,1.68-.45.11-2.93.13-5.03-2.96-6.04-5.47-1.77-11.8-.21-17.4-.15-1.16.01-1.16,1.79,0,1.8,6.23.04,12.11,1,17.61,4.05.15-.56.3-1.12.45-1.68-1.04.02-2.08.02-3.12.02-.99,0-1.26,1.59-.24,1.77.34.06.67.12,1.01.18.16-.58.32-1.16.48-1.74-3.47-.59-7.24-.94-10.25-2.92-.15.56-.3,1.12-.45,1.68,3.43.41,6.71,1.51,10.1,2.11.16-.58.32-1.16.48-1.74-4.1-.67-8.22-1.12-12.36-1.46v1.8c3.87,0,7.53,1.27,11.33,1.82.08-.59.16-1.18.24-1.77-3.93.02-7.86.05-11.76-.54-.08.59-.16,1.18-.24,1.77,2.72.25,5.43.51,8.13.87v-1.8c-8.99-.29-17.96.94-26.95.52.08.59.16,1.18.24,1.77,4.26-.67,8.55-.68,12.86-.61-.08-.59-.16-1.18-.24-1.77-3.62.53-7.27.35-10.92.37-1.16,0-1.16,1.8,0,1.8,3.58-.01,7.16.07,10.64-.87.8-.22.92-1.59,0-1.74-3.11-.48-6.51.14-9.34-1.49-.07.55-.14,1.1-.21,1.64,5.33-1.71,11.02.15,16.34-1.67.98-.34.78-1.69-.24-1.77-4.32-.34-8.64.07-12.96-.16-1-.05-1.25,1.61-.24,1.77,4.49.7,8.98,1.42,13.5,1.88-.08-.59-.16-1.18-.24-1.77-5.32.85-11.12,1.99-16.4.33-.08.59-.16,1.18-.24,1.77,6.87-.37,13.6,1.14,20.34,2.26v-1.74c-3.74.51-7.45,1.2-11.24,1.23-1.16.01-1.16,1.8,0,1.8,3.48,0,6.96-.65,10.42-.99,3.81-.38,8.89-.89,11.99,1.85.63.55,1.45.14,1.54-.64.67-5.91-6.64-4.63-10.4-5.31-6.61-1.19-13.57-4.37-20.35-2.61-.83.21-.8,1.2-.21,1.64.34.31.65.64.93,1.01.13-.5.26-1,.4-1.5-1.98.52-3.95.53-5.98.62-.97.04-1.28,1.61-.24,1.77,1.59.25,3.15.28,4.48,1.28.07-.55.14-1.1.21-1.64-2.77,1.05-5.73,1.59-8.68,1.05v1.74c2.36-.73,4.82-.97,7.16-1.77,1.02-.35.74-1.64-.24-1.77-1.67-.22-3.34-.34-4.99-.69v1.74c2.28-.55,4.63-.58,6.9-1.16,1.15-.29.64-1.91-.48-1.74-2.67.42-5.28.94-7.99.77.08.59.16,1.18.24,1.77,3.21-.69,6.48-.97,9.74-1.35,1.14-.13,1.17-1.7,0-1.8-3.18-.28-6.34-1.47-9.55-.92-2.78.48-1.75,4.49-1.77,6.36.59-.08,1.18-.16,1.77-.24-.24-1.16-.24-2.18-.2-3.34h-1.8v1.14c0,1.16,1.8,1.16,1.8,0v-1.35c0-1.16-1.76-1.16-1.8,0-.03.45-.03.89,0,1.34.59-.08,1.18-.16,1.77-.24-.04.14-.09.27-.13.41-.41.11-.82.22-1.23.32.11.08.23.16.34.24.96.66,1.85-.9.91-1.55h0Z"/>
  <path class="cls-1" d="M477.53,320.77c-.16.08-.31.16-.46.26.41.11.82.22,1.23.32-.29-.41-.24-2.15-.33-2.72-.26-1.58-.85-3.11-1.41-4.61-1.03-2.75-2.27-5.39-3.2-8.18-1.75-5.27-3.2-12.34-.28-17.45,3.87-6.77,14.47-7.21,21.25-7.06,7.87.18,16.52,1.73,23.1,6.28,4.66,3.22,5.79,8.28,4.37,13.55-1.8,6.67-4.5,13.22-7.71,19.33-.54,1.03,1.01,1.94,1.55.91,3.43-6.54,6.2-13.51,8.12-20.64,1.26-4.67.14-9.28-3.16-12.79-6.1-6.48-17.17-8.04-25.62-8.42-7.87-.35-18.18.48-23.18,7.48-3.22,4.51-2.22,11.15-1.08,16.15.83,3.61,2.32,6.99,3.72,10.4.62,1.5,1.14,3.03,1.57,4.6.34,1.24-.03,3.02.72,4.07.28.39.78.59,1.23.32.15-.09.3-.18.46-.26,1.02-.55.12-2.1-.91-1.55h0Z"/>
  <path class="cls-1" d="M514.54,321.31c-1.1-4.39,1.01-8.98,2.67-12.97,1.9-4.55,3.65-9.11,6.24-13.33.61-.99-.95-1.9-1.55-.91-2.82,4.6-4.69,9.61-6.75,14.57-1.71,4.1-3.46,8.64-2.33,13.11.28,1.13,2.02.65,1.74-.48h0Z"/>
  <path class="cls-1" d="M472.58,336.55c.06-3.03-.12-6.09.57-9.06.26-1.13-1.47-1.61-1.74-.48-.73,3.13-.57,6.34-.63,9.54-.02,1.16,1.78,1.16,1.8,0h0Z"/>
  <path class="cls-1" d="M476.66,336.7c1.45-3.14.9-6.57,1.89-9.81.34-1.11-1.4-1.58-1.74-.48-.93,3.06-.35,6.44-1.71,9.38-.48,1.05,1.07,1.96,1.55.91h0Z"/>
  <path class="cls-1" d="M482.78,335.95c-.07-2.59.11-5.63,1.38-7.94.56-1.02-1-1.93-1.55-.91-1.42,2.59-1.7,5.94-1.62,8.85.03,1.16,1.83,1.16,1.8,0h0Z"/>
  <path class="cls-1" d="M488.48,334.15c-.08-2.54.21-5.05.57-7.56.16-1.13-1.57-1.62-1.74-.48-.38,2.67-.71,5.34-.63,8.04.03,1.16,1.83,1.16,1.8,0h0Z"/>
  <path class="cls-1" d="M492.98,334.75c.03-2.6.16-5.72,1.68-7.94.66-.96-.9-1.86-1.55-.91-1.69,2.47-1.89,5.95-1.92,8.85-.01,1.16,1.79,1.16,1.8,0h0Z"/>
  <path class="cls-1" d="M497.65,334.6c1.1-2.15.77-4.86,2.1-6.9.64-.97-.92-1.88-1.55-.91-1.36,2.08-1,4.75-2.1,6.9-.53,1.03,1.03,1.94,1.55.91h0Z"/>
  <path class="cls-1" d="M503.44,334.99c.32-1.13.37-2.32.45-3.48.09-1.28.05-3.02,1.12-3.92.89-.75-.39-2.02-1.27-1.27-2.26,1.91-1.31,5.66-2.03,8.19-.32,1.12,1.42,1.59,1.74.48h0Z"/>
  <path class="cls-1" d="M508.75,335.2c1.14-2.57,1.3-5.37,2.19-8.01.37-1.1-1.37-1.57-1.74-.48-.84,2.48-.94,5.18-2.01,7.58-.47,1.05,1.08,1.97,1.55.91h0Z"/>
  <path class="cls-1" d="M513.41,334.48c.86-1.08,1.15-2.38,1.41-3.71.22-1.13.28-3.31,1.41-3.95,1.01-.57.1-2.13-.91-1.55-2.8,1.58-1.43,5.72-3.18,7.94-.71.9.55,2.18,1.27,1.27h0Z"/>
  <path class="cls-1" d="M519.67,334.45c.11-1.82.23-3.75,1.38-5.24.71-.92-.86-1.82-1.55-.91-1.33,1.74-1.49,4.04-1.62,6.15-.07,1.16,1.73,1.15,1.8,0h0Z"/>
  <path class="cls-1" d="M524.73,335.28c.32-1.9.79-3.78,1.71-5.48.55-1.02-1-1.93-1.55-.91-1,1.84-1.55,3.86-1.89,5.91-.19,1.13,1.54,1.62,1.74.48h0Z"/>
  <path class="cls-1" d="M478.7,313.01c-.14-.26.06.69.08.89.11.85.22,1.7.33,2.54.18,1.38.31,2.81.7,4.15.32,1.11,2.06.64,1.74-.48-.44-1.51-.57-3.14-.77-4.7-.13-.98-.04-2.42-.52-3.31-.55-1.02-2.11-.11-1.55.91h0Z"/>
  <path class="cls-1" d="M484.31,313.69c.49,1.97.06,4.03.6,6,.3,1.12,2.04.64,1.74-.48-.53-1.96-.11-4.02-.6-6-.28-1.13-2.02-.65-1.74.48h0Z"/>
  <path class="cls-1" d="M491.24,314.92c1.26.43.58,4.43.54,5.43-.04,1.16,1.76,1.16,1.8,0,.08-2.16.84-6.24-1.86-7.17-1.1-.38-1.57,1.36-.48,1.74h0Z"/>
  <path class="cls-1" d="M498.04,314.99c1.09,1.22.7,3.57.64,5.06-.05,1.16,1.75,1.16,1.8,0,.09-2.1.35-4.65-1.16-6.33-.78-.87-2.04.41-1.27,1.27h0Z"/>
  <path class="cls-1" d="M507.07,313.75c.26,2.09.35,4.19.3,6.3-.03,1.16,1.77,1.16,1.8,0,.05-2.11-.04-4.2-.3-6.3-.14-1.14-1.94-1.15-1.8,0h0Z"/>
  <path class="cls-1" d="M480.94,305.32l-.3.3c-.35.35-.35.93,0,1.27s.93.35,1.27,0l.3-.3c.35-.35.35-.93,0-1.27-.35-.35-.93-.35-1.27,0h0Z"/>
  <path class="cls-1" d="M475.58,300.56c1.16,0,1.16-1.8,0-1.8s-1.16,1.8,0,1.8h0Z"/>
  <path class="cls-1" d="M483.52,290.24c.3.2.6.4.9.6.41.27.99.08,1.23-.32.26-.44.08-.96-.32-1.23l-.9-.6c-.41-.27-.99-.08-1.23.32-.26.44-.08.96.32,1.23h0Z"/>
  <path class="cls-1" d="M498.07,308.35h.3c1.16,0,1.16-1.8,0-1.8h-.3c-1.16,0-1.16,1.8,0,1.8h0Z"/>
  <path class="cls-1" d="M510.37,303.56c1.16,0,1.16-1.8,0-1.8s-1.16,1.8,0,1.8h0Z"/>
  <path class="cls-1" d="M511.57,295.46c1.16,0,1.16-1.8,0-1.8s-1.16,1.8,0,1.8h0Z"/>
  <path class="cls-1" d="M494.48,295.46h-.3c-1.16,0-1.16,1.8,0,1.8h.3c1.16,0,1.16-1.8,0-1.8h0Z"/>
  <path class="cls-1" d="M472.88,307.98c-12.06-2.41-15.22-14.55-13.59-25.37,1.98-13.12,10.68-23.09,22.24-29.11,11.09-5.78,26.43-8.15,38.03-2.45,8.02,3.94,13.63,11.73,16.79,19.9,3.43,8.87,4.44,19.21,1.04,28.23-3.48,9.24-12.27,12.86-21.62,12.01-2.89-.26-2.86,4.24,0,4.5,8.57.78,17.08-1.73,22.41-8.79,4.99-6.6,6.26-15.34,5.61-23.4-1.48-18.41-13.29-36.62-32.48-39.53-20.36-3.09-44.41,7.45-53.15,26.71-6.62,14.59-5.55,37.83,13.52,41.63,2.83.57,4.04-3.77,1.2-4.34h0Z"/>
  <path class="cls-1" d="M495.98,520.69c-13.22-1.4-24.96,10.36-29.71,21.68-4.99,11.89-1.79,25.32,7.54,34.06,14.59,13.68,42.07,14.52,52.28-4.62,5.57-10.45,4.92-23.69-.2-34.16-2.59-5.29-6.67-9.82-11.69-12.89-5.61-3.43-11.78-4.07-18.21-4.07-2.32,0-2.32,3.6,0,3.6,9.14,0,16.97,2.17,23.07,9.38,5.37,6.34,7.59,15.06,7.29,23.23-.29,7.95-3.53,16.17-9.97,21.11-8.65,6.65-21.19,5.85-30.76,1.79-12.17-5.17-20.12-17.34-17.72-30.7,2.21-12.26,14.79-26.22,28.09-24.82,2.31.24,2.28-3.36,0-3.6Z"/>
  <g>
    <path class="cls-1" d="M513.41,443.54c-4.82-18.7-8.09-37.79-13.03-56.45-.42-1.58-.91-3.12-1.18-4.73-.13-.81-.33-1.84-.94-2.45-1.27-1.27-2.67.1-3.09,1.38-2.71,8.28-4.66,16.88-6.57,25.38-2.17,9.61-4.11,19.26-6.35,28.85-.98,4.18-2.64,8.54-2.96,12.82-.36,4.72,1.68,8.96,3.03,13.38,5.46,17.92,6.42,37.04,6.06,55.65-.05,2.7.41,4.74,3.2,5.45,2.55.64,5.6.3,8.23.43,2.05.1,4.62.02,5.24-2.3.41-1.55-.08-3.55-.06-5.14.04-3.11.11-6.21.2-9.32.34-10.96,1.2-21.91,3.24-32.69.99-5.21,2.34-10.34,3.99-15.38.71-2.17,1.69-4.35,1.94-6.65.31-2.85-.24-5.47-.94-8.23-.29-1.12-2.02-.65-1.74.48.74,2.9,1.27,5.61.7,8.6-.42,2.18-1.36,4.29-2.05,6.39-1.54,4.68-2.68,9.48-3.64,14.3-1.79,9.03-2.61,18.25-3.08,27.43-.24,4.61-.34,9.24-.42,13.86-.03,1.8.08,3.57.12,5.37.06,2.14-3.47,1.48-4.84,1.39-2.04-.14-7.47.79-8.14-1.76-.48-1.82-.11-4.02,0-5.87.15-2.34.04-4.68-.04-7.02-.28-9.26-.95-18.51-2.33-27.67-.68-4.52-1.6-8.99-2.72-13.42-1.25-4.96-3.71-9.89-4.26-14.98-.5-4.63,1.91-10.18,2.97-14.66,1.18-4.98,2.26-9.99,3.33-15,2.07-9.62,4.12-19.24,6.63-28.76.73-2.78,1.55-5.54,2.36-8.3.25-.85.39-1.69.75-2.51-.1.22.52,2.08.59,2.48.51,3.06,1.66,6.13,2.39,9.16.8,3.32,1.52,6.65,2.23,9.99,2.94,13.7,5.91,27.39,9.41,40.96.29,1.12,2.03.65,1.74-.48Z"/>
    <path class="cls-1" d="M498.01,438.13c-.2,1.4-.4,2.8-.6,4.2-.04.3-.48,4.39-1.22,3.71-1.82-1.68-3.21-3.82-4.74-5.75-.5-.63-1.56-.09-1.54.64.06,2.1.27,4.18.22,6.28-.05,2-.07.28-.02-.55.06-1.08-.04-2.18-.11-3.25-.07-1.09-.14-2.17-.16-3.26-.02-1.93,1.08-.64,1.71.12,1.33,1.62,2.53,3.33,3.93,4.9.42.47,1.41.27,1.5-.4.16-1.11.32-2.22.48-3.33.11-.76.22-1.53.33-2.29.02-.14.16-1.47.2-.78.06,1.15,1.86,1.16,1.8,0-.11-2.08-3.25-3.04-3.6-.61-.31,2.18-.62,4.35-.93,6.53.5-.13,1-.26,1.5-.4-1.39-1.57-2.62-3.26-3.93-4.9-.82-1.03-1.58-2.26-2.99-2.3-3.04-.09-1.61,6.86-1.53,8.35.09,1.71-.86,6.1,2.43,5.19.97-.27,1.05-1.44,1.15-2.24.29-2.33-.09-4.74-.16-7.07-.51.21-1.02.42-1.54.64,1.24,1.56,2.41,3.17,3.71,4.68.74.86,1.85,2.32,3.18,2.07,1.19-.23,1.44-1.02,1.6-2.13.36-2.52.72-5.04,1.08-7.56.16-1.13-1.57-1.62-1.74-.48Z"/>
  </g>
  <path class="cls-1" d="M511.32,639.06c.81,1.92,1.59,3.75,1.62,5.87.03,2.12-1.04,4.45-1.65,6.45-1.46,4.74-2.8,9.51-4.12,14.29-2.52,9.18-4.68,18.48-7.39,27.61-.58,1.95-1.35,3.86-1.86,5.82-.14.52-.22,1.06-.35,1.58.44,0,.89.02,1.33.03-.19-.41-.34-.84-.45-1.27-1.28-4.28-2.89-8.47-4.16-12.76-2.7-9.13-4.89-18.4-7.39-27.59-1.16-4.25-2.63-8.44-3.66-12.72-1.04-4.3,2.4-9.51,3.72-13.49,2.81-8.49,4.12-17.42,4.88-26.3.38-4.53.69-9.14.64-13.69-.02-1.9-.43-3.78-.15-5.69.17-1.13,3.89-.74,4.67-.73,1.07,0,6.54-.61,6.58.27.17,4.37-.04,8.8.16,13.2.6,13.33,2.5,26.72,7.59,39.13.87,2.12,4.35,1.19,3.47-.96-3.64-8.88-5.64-18.24-6.68-27.76-.51-4.63-.75-9.28-.92-13.93-.08-2.16-.12-4.32-.16-6.48-.03-1.68.35-3.37-.12-5.01-.61-2.11-3.53-2.2-5.27-2.22-2.63-.04-5.4.04-8.02.25-2.32.19-4.06.98-4.76,3.29-.46,1.54-.21,3.35-.1,4.91.18,2.4.06,4.79-.03,7.19-.37,9.54-1.38,19.04-3.72,28.32-1.06,4.22-2.5,8.32-4.18,12.33-1.64,3.92-1.51,7.15-.28,11.16,2.81,9.11,5.09,18.36,7.52,27.57,1.17,4.42,2.39,8.82,3.73,13.19,1.11,3.64,2.12,7.6,3.72,11.05.63,1.36,1.82,2.5,3.45,2.06,1.72-.47,2.12-2.48,2.41-3.97.68-3.42,2.19-6.84,3.13-10.22,1.02-3.67,1.93-7.37,2.89-11.06,1.91-7.38,3.9-14.74,6.04-22.05,1-3.43,2.32-6.84,2.94-10.36.52-2.95-.48-5.59-1.6-8.26-.88-2.11-4.37-1.18-3.47.96Z"/>
  <path class="cls-1" d="M500.17,562.29c1.64.01,3.36-.13,4.78-.95,2.62-1.52,3.5-4.86,3.83-7.87.15-1.41.23-2.9-.41-4.17-.34-.67-.86-1.24-1.37-1.79-1.44-1.55-2.96-3.16-4.97-3.81-.99-.32-2.04-.39-3.08-.49-2.16-.21-4.46-.56-6.43.37-.66.31-1.26.76-1.8,1.25-3.15,2.85-4.66,7.73-2.79,11.54,1.05,2.14,3.03,3.74,5.23,4.67,2.2.92,4.62,1.22,7.01,1.24Z"/>
  <path class="cls-1" d="M490.99,540.21c-7.49.67-8.97,10.96-7.96,16.88,1.42,8.32,11.59,10.68,18.62,9.48,8.18-1.4,13.21-10.26,11.02-18.06-2.46-8.79-14.48-11.91-22.22-9.16-.44.16-.79.62-.63,1.11l.3.9c.37,1.1,2.1.63,1.74-.48l-.3-.9c-.21.37-.42.74-.63,1.11,6.91-2.46,16.75,0,19.78,7.24,2.85,6.8-2.12,14.69-8.89,16.38-6.03,1.51-14.22-.45-16.67-6.72-1.83-4.66-.34-15.41,5.84-15.97,1.15-.1,1.16-1.9,0-1.8Z"/>
  <path class="cls-1" d="M509.35,579.35c1.26-1.59,3.41-2.12,4.8-3.6.6-.63-.36-1.59-.95-.95-1.39,1.48-3.52,1.99-4.8,3.6-.53.67.41,1.64.95.95h0Z"/>
  <path class="cls-1" d="M507.71,574.36c1.6-.81,2.73-2.22,4.04-3.4.65-.59-.31-1.54-.95-.95-1.22,1.11-2.27,2.44-3.76,3.19-.78.39-.09,1.56.68,1.17h0Z"/>
  <path class="cls-1" d="M504.85,569.33c1.63-.61,2.93-1.7,4.2-2.87.64-.59-.32-1.54-.95-.95-1.08,1-2.2,2-3.6,2.53-.81.3-.46,1.61.36,1.3h0Z"/>
  <path class="cls-1" d="M512.52,565.2c-.11-.45.28-.78.57-1.07.43-.44.87-.86,1.16-1.41.41-.77-.75-1.45-1.17-.68-.66,1.23-2.28,1.88-1.87,3.52.21.84,1.51.49,1.3-.36h0Z"/>
  <path class="cls-1" d="M516.32,564.6c-.4.98-.87,1.94-1.43,2.84-.46.74.71,1.42,1.17.68.62-1,1.12-2.07,1.57-3.16.33-.81-.98-1.15-1.3-.36h0Z"/>
  <path class="cls-1" d="M519.89,565.68c-.23,2.34-1.79,4.3-2.68,6.42-.33.8.97,1.15,1.3.36.95-2.29,2.48-4.24,2.72-6.78.08-.87-1.27-.86-1.35,0h0Z"/>
  <path class="cls-1" d="M513.89,552.48v4.5c0,.87,1.35.87,1.35,0v-4.5c0-.87-1.35-.87-1.35,0h0Z"/>
  <path class="cls-1" d="M517.22,553.26c.47,1.15.27,2.51.28,3.72,0,.87,1.35.87,1.35,0,0-1.33.19-2.82-.32-4.08-.33-.79-1.63-.45-1.3.36h0Z"/>
  <path class="cls-1" d="M521.42,552.96c.68,1.67.97,3.43,1.18,5.22.1.85,1.45.86,1.35,0-.22-1.9-.5-3.79-1.22-5.58-.32-.79-1.63-.45-1.3.36h0Z"/>
  <path class="cls-1" d="M512.42,544.86c.33,1.66,1.06,3.18,1.87,4.66.42.76,1.58.08,1.17-.68-.76-1.38-1.43-2.78-1.73-4.34-.17-.85-1.47-.49-1.3.36h0Z"/>
  <path class="cls-1" d="M516.62,543.96c.54,1.6.85,3.27,1.87,4.66.51.69,1.68.02,1.17-.68-.95-1.3-1.23-2.85-1.73-4.34-.28-.82-1.58-.47-1.3.36h0Z"/>
  <path class="cls-1" d="M520.59,542.92c.73,1.22,1.78,2.29,2.03,3.74.15.86,1.45.49,1.3-.36-.27-1.58-1.38-2.73-2.17-4.06-.44-.75-1.61-.07-1.17.68h0Z"/>
  <path class="cls-1" d="M507.19,538.86c1.22,1.28,2.42,2.63,4.04,3.4.78.38,1.47-.79.68-1.17-1.52-.73-2.62-2-3.76-3.19-.6-.63-1.56.33-.95.95h0Z"/>
  <path class="cls-1" d="M510.07,537.86c1.6.02,2.93,1.76,4.16,2.61.72.5,1.39-.67.68-1.17-1.5-1.04-2.86-2.77-4.84-2.79-.87,0-.87,1.34,0,1.35h0Z"/>
  <path class="cls-1" d="M513.19,535.14c1.41.55,2.74,1.25,4.04,2.03.75.45,1.43-.72.68-1.17-1.4-.84-2.84-1.58-4.36-2.17-.81-.31-1.16.99-.36,1.3h0Z"/>
  <path class="cls-1" d="M499.27,536.36c1.3.04,2.59.27,3.9.3.87.02.87-1.33,0-1.35-1.31-.03-2.59-.26-3.9-.3-.87-.03-.87,1.32,0,1.35h0Z"/>
  <path class="cls-1" d="M501.07,532.76h5.4c.87,0,.87-1.35,0-1.35h-5.4c-.87,0-.87,1.35,0,1.35h0Z"/>
  <path class="cls-1" d="M502.57,527.36c1.28.12,2.5.48,3.72.88.83.27,1.18-1.04.36-1.3-1.34-.43-2.68-.79-4.08-.92-.87-.08-.86,1.27,0,1.35h0Z"/>
  <path class="cls-1" d="M490.62,537.77c1.76-.86,3.62-1.38,5.54-1.73.86-.16.49-1.46-.36-1.3-2.04.37-3.99.96-5.86,1.87-.78.38-.1,1.54.68,1.17h0Z"/>
  <path class="cls-1" d="M489.56,533.64c1.56-.41,3.01-1.18,4.2-2.27.64-.59-.32-1.54-.95-.95-1.02.94-2.27,1.58-3.6,1.93-.84.22-.48,1.52.36,1.3h0Z"/>
  <path class="cls-1" d="M488.05,529.27c.99-1.1,2.46-1.65,3.76-2.29.78-.39.1-1.55-.68-1.17-1.41.7-2.96,1.31-4.04,2.5-.58.64.37,1.6.95.95h0Z"/>
  <path class="cls-1" d="M478.32,534.17c2.24-.96,3.97-2.79,5.83-4.3.68-.55-.29-1.5-.95-.95-1.78,1.45-3.43,3.17-5.56,4.09-.8.34-.11,1.51.68,1.17h0Z"/>
  <path class="cls-1" d="M480.86,536.46c1.14-1.04,2.36-1.95,3.76-2.59.79-.36.1-1.53-.68-1.17-1.5.69-2.82,1.69-4.04,2.8-.64.59.31,1.54.95.95h0Z"/>
  <path class="cls-1" d="M481.92,541.67c1.44-1.02,2.77-2.17,4.04-3.4.62-.61-.33-1.56-.95-.95-1.18,1.15-2.41,2.24-3.76,3.19-.7.5-.03,1.67.68,1.17h0Z"/>
  <path class="cls-1" d="M480.7,545.54c-1.07,1.92-1.05,4.15-1.87,6.16-.33.81.98,1.15,1.3.36.77-1.89.73-4.04,1.73-5.84.43-.76-.74-1.44-1.17-.68h0Z"/>
  <path class="cls-1" d="M477.33,545.1c-.57,1.58-1.21,3.14-1.5,4.8-.15.85,1.15,1.21,1.3.36.29-1.66.93-3.22,1.5-4.8.3-.82-1.01-1.17-1.3-.36h0Z"/>
  <path class="cls-1" d="M474.33,542.1c-.62,1.67-1.28,3.32-2.03,4.94-.36.78.8,1.47,1.17.68.8-1.72,1.5-3.48,2.17-5.26.31-.82-1-1.17-1.3-.36h0Z"/>
  <path class="cls-1" d="M468.91,552.78v6c0,.87,1.35.87,1.35,0v-6c0-.87-1.35-.87-1.35,0h0Z"/>
  <path class="cls-1" d="M471.31,554.28c.06,1.9.3,3.78.92,5.58.28.82,1.59.47,1.3-.36-.59-1.69-.82-3.43-.88-5.22-.03-.87-1.38-.87-1.35,0h0Z"/>
  <path class="cls-1" d="M472.76,540.96c1.35-1.15,2.43-2.56,3.4-4.04.48-.73-.69-1.4-1.17-.68-.91,1.39-1.93,2.68-3.19,3.76-.66.57.3,1.52.95.95h0Z"/>
  <path class="cls-1" d="M474.7,556.42c.77,1.22.93,2.74,1.8,3.9.52.69,1.69.02,1.17-.68-.87-1.16-1.03-2.68-1.8-3.9-.47-.73-1.63-.06-1.17.68h0Z"/>
  <path class="cls-1" d="M478.51,555.78c-.01,1.53.54,2.92.92,4.38.22.84,1.52.48,1.3-.36-.35-1.33-.89-2.62-.88-4.02,0-.87-1.34-.87-1.35,0h0Z"/>
  <path class="cls-1" d="M481,563.02c.99,1.65,2.1,3.22,3.4,4.64.59.64,1.54-.32.95-.95-1.23-1.34-2.26-2.81-3.19-4.36-.45-.75-1.61-.07-1.17.68h0Z"/>
  <path class="cls-1" d="M479,565.25c1.26,1.38,2.5,2.77,3.49,4.36.46.74,1.63.06,1.17-.68-1.05-1.68-2.37-3.17-3.7-4.64-.59-.64-1.54.31-.95.95h0Z"/>
  <path class="cls-1" d="M475.54,565.66c1.51,1.11,2.76,2.61,3.66,4.26.42.77,1.58.08,1.17-.68-1.01-1.86-2.44-3.49-4.14-4.74-.7-.52-1.37.66-.68,1.17h0Z"/>
  <path class="cls-1" d="M472.21,565.98c.05,2.86,3.13,3.99,5,5.58.66.56,1.62-.39.95-.95-1.45-1.24-4.56-2.41-4.6-4.62-.02-.87-1.37-.87-1.35,0h0Z"/>
  <path class="cls-1" d="M479.9,575.32c2.25.93,4.03,2.69,6.3,3.6.81.32,1.16-.98.36-1.3-2.26-.91-4.04-2.67-6.3-3.6-.81-.33-1.15.98-.36,1.3h0Z"/>
  <path class="cls-1" d="M484.16,574.55c.53-.55,1.96.41,2.48.67.81.41,1.65.86,2.57,1,.85.13,1.22-1.17.36-1.3-1.79-.27-4.67-3.07-6.35-1.33-.61.63.35,1.58.95.95h0Z"/>
  <path class="cls-1" d="M487.28,570.85c1.87.25,3.5,1.41,5.4,1.5.87.04.87-1.31,0-1.35-1.86-.09-3.54-1.25-5.4-1.5-.86-.11-.85,1.24,0,1.35h0Z"/>
  <path class="cls-1" d="M487.7,566.93c1.46.31,2.97.5,4.34,1.13.78.36,1.47-.8.68-1.17-1.49-.69-3.07-.93-4.66-1.27-.85-.18-1.21,1.12-.36,1.3h0Z"/>
  <path class="cls-1" d="M495.08,570.55c1.54.18,3.12.11,4.62.58.83.26,1.19-1.04.36-1.3-1.61-.51-3.32-.43-4.98-.62-.86-.1-.85,1.25,0,1.35h0Z"/>
  <path class="cls-1" d="M495.08,575.05h5.1c.87,0,.87-1.35,0-1.35h-5.1c-.87,0-.87,1.35,0,1.35h0Z"/>
  <path class="cls-1" d="M495.08,579.25c1.91.03,3.79.37,5.7.3.87-.03.87-1.38,0-1.35-1.91.07-3.79-.27-5.7-.3-.87-.01-.87,1.34,0,1.35h0Z"/>
  <g>
    <path class="cls-1" d="M474.08,500.3c-2.75.25-5.24,1.2-7.65,2.52-1.02.56-.11,2.11.91,1.55,2.12-1.16,4.32-2.06,6.74-2.28,1.15-.1,1.16-1.9,0-1.8h0Z"/>
    <path class="cls-1" d="M458.03,508.22c-1.91,1.39-3.35,3.25-4.98,4.94-.81.83.46,2.11,1.27,1.27,1.51-1.56,2.85-3.37,4.62-4.66.93-.68.03-2.24-.91-1.55h0Z"/>
    <path class="cls-1" d="M444.65,526.95c-1.62,1.85-2.66,4.02-3.23,6.4-.27,1.13,1.47,1.61,1.74.48.5-2.07,1.36-3.99,2.77-5.6.76-.87-.51-2.15-1.27-1.27h0Z"/>
    <path class="cls-1" d="M439.59,550.38v7.8c0,1.16,1.8,1.16,1.8,0v-7.8c0-1.16-1.8-1.16-1.8,0h0Z"/>
    <path class="cls-1" d="M442.11,573.03c1.05,2.33,2.65,4.29,4.34,6.18.77.87,2.04-.41,1.27-1.27-1.6-1.78-3.07-3.62-4.06-5.82-.48-1.06-2.03-.14-1.55.91h0Z"/>
    <path class="cls-1" d="M452.91,588.02c1.1,2.1,3.34,3.75,5.18,5.17.67.52,1.75.07,1.5-.88-.36-1.38-1.35-2.18-2.67-2.62-1.1-.37-1.57,1.37-.48,1.74.73.24,1.21.6,1.41,1.36.5-.29,1-.58,1.5-.88-1.7-1.32-3.87-2.86-4.9-4.81-.54-1.03-2.09-.12-1.55.91h0Z"/>
    <path class="cls-1" d="M471.68,602.87c1.34.05,2.65.24,3.96.57,1.13.28,1.6-1.45.48-1.74-1.46-.37-2.94-.58-4.44-.63-1.16-.04-1.16,1.76,0,1.8h0Z"/>
  </g>
  <g>
    <path class="cls-1" d="M517.03,502.1c2.42.22,4.62,1.12,6.74,2.28,1.02.56,1.93-1,.91-1.55-2.41-1.32-4.9-2.27-7.65-2.52-1.16-.1-1.15,1.7,0,1.8h0Z"/>
    <path class="cls-1" d="M532.17,509.77c1.77,1.29,3.11,3.1,4.62,4.66.81.84,2.08-.44,1.27-1.27-1.63-1.69-3.07-3.55-4.98-4.94-.94-.68-1.84.88-.91,1.55h0Z"/>
    <path class="cls-1" d="M545.19,528.22c1.41,1.61,2.27,3.53,2.77,5.6.27,1.13,2.01.65,1.74-.48-.57-2.38-1.62-4.55-3.23-6.4-.77-.87-2.03.4-1.27,1.27h0Z"/>
    <path class="cls-1" d="M549.72,550.38v7.8c0,1.16,1.8,1.16,1.8,0v-7.8c0-1.16-1.8-1.16-1.8,0h0Z"/>
    <path class="cls-1" d="M547.44,572.12c-.99,2.2-2.46,4.03-4.06,5.82-.77.86.5,2.14,1.27,1.27,1.69-1.89,3.29-3.85,4.34-6.18.47-1.05-1.08-1.96-1.55-.91h0Z"/>
    <path class="cls-1" d="M536.65,587.12c-1.02,1.95-3.19,3.49-4.9,4.81.5.29,1,.58,1.5.88.2-.76.68-1.12,1.41-1.36,1.1-.36.63-2.1-.48-1.74-1.32.44-2.31,1.24-2.67,2.62-.25.95.83,1.4,1.5.88,1.83-1.42,4.07-3.07,5.18-5.17.54-1.03-1.01-1.94-1.55-.91h0Z"/>
    <path class="cls-1" d="M519.43,601.07c-1.5.06-2.98.26-4.44.63-1.12.28-.65,2.02.48,1.74,1.3-.33,2.61-.52,3.96-.57,1.16-.04,1.16-1.84,0-1.8h0Z"/>
  </g>
  <g>
    <path class="cls-1" d="M329.54,544.87l.05-.03-1.51.41c2.05-.17,3.31-.75,4.11-2.76.53-1.32-.38-2.65-1.38-3.39.65.48-.11-.22-.18-.3-.3-.32-.67-.56-1.03-.82-.24,1.83-.48,3.65-.72,5.48.9-.17-.56.04.12-.03.13-.01.26-.02.38-.04,1.13-.13,2.16-.48,2.77-1.55.47-.84.48-1.65.31-2.57-.03-.14-.07-.28-.1-.42-.02-.09-.18-.96-.13-.55-.14-1.09-.49-2-1.49-2.59-1.06-.62-2.81-.57-3.63.47-1.33,1.69-2.31,3.54-1.76,5.75.4,1.58,1.91,3.02,3.53,3.27,2.13.34,3.93-.48,4.72-2.57.75-1.99-.9-4.08-2.28-5.3-.93-.82-2.52-1.29-3.63-.47-1.86,1.38-3.28,3.67-3.08,6.08.27,3.34,3.52,5.08,6.59,3.83,2.53-1.03,4.04-3.31,4.12-6.04.09-2.94-2.21-5.34-5.11-5.51-2.7-.16-5.6,1.49-6.15,4.28-.58,2.99,1.15,5.59,3.93,6.61,3,1.1,6.69-.95,7.65-3.87,1.03-3.12-.9-6.02-3.82-7.07-1.54-.55-3.28.61-3.69,2.09-.46,1.67.56,3.14,2.09,3.69-.7-.25.37.34-.27-.18.54.45-.27-.5.07.09-.39-.66-.04.33-.12-.49,0,.34.01.29.06-.16-.09.32-.06.28.1-.09-.27.64.43-.39-.07.14.41-.44-.04.02-.23.12.58-.31-.66.05.16-.04-.16.01-.32.01-.49,0,.42.06.46.06.14-.02.79.22-.23-.24.42.27-.17-.13-.5-.63-.05.01-.38-.54.19.64-.02.01-.16-.47-.03.69,0-.14-.03.86.19-.12-.15.61.17-.27.12-.23-.13.13.23-.22.19-.19-.11.07.58-.4-.57.15.18-.07.36-.07.36-.08,0-.01.36.01.33-.01-.09-.07.25.04.73.33.04-.03-.1-.08-.2-.17-.3-.25.22.22.19.16-.1-.2.14.19.29.7.02-.06.28.78.02-.36.03.14.02.68.15-.69.02,0-.16.8.17-.2-.05.23-.09.17-.5.65,0,.06-.09.1-.19.2-.3.29.34-.25.37-.29.09-.11.62-.37.07-.05-.17.02.64-.16-.42-.14.46.03.43.08.8.47,1.03.82.18.48.22.57.13.26.05.51.07.6.06.27,0-.67-.15.7,0,.02.18-.8-.15.19.07-.26.09-.19.21-.36.32-.54-.54.81.58-.38-.27.24-1.21-.16-2.42-.31-3.63-.47.32.29.63.58.92.91-.49-.57-.15-.18-.05,0-.36-.62-.11-.12-.21-.92-.1-.78.75-1.81,1.72-2.18-.42.16.89-.07.43-.05-.47.02.86.16.39.06-.64-.14.68.4.11.03.72.47.16-.02.67.66-.16-.22-.21-.6.09.27-.17-.51.04.82.04.25,0,.8-.08.47,0,.14.18-.64-.32.62.04-.04.04-.06.49-.71.13-.25-1.71-.71-3.41-1.41-5.12-2.12.08.65.16,1.3.29,1.95.3,1.45-.21-.29.44-1.44.36-.36.72-.72,1.08-1.08.14-.1,1.76-.38.95-.31-.57.05-1.14.14-1.71.24-1,.19-1.84,1.15-2.09,2.09-.38,1.39.27,2.59,1.38,3.39-.53-.38.21.3.25.34.28.3.63.53.96.78-.46-1.13-.92-2.26-1.38-3.39l-.09.22c.26-.44.51-.88.77-1.32.71-.79,2.05-.55,1.1-.56-.57,0-1.19.13-1.67.45-1.36.9-1.94,2.63-1.08,4.1.79,1.35,2.74,1.98,4.1,1.08h0Z"/>
    <path class="cls-1" d="M670.72,551.77c2.31-.76,4.04-3.02,3.14-5.52-.73-2.03-2.55-3.56-4.76-3.59-4.17-.05-6.44,6.75-2.54,8.82,2.32,1.23,5.51.24,7.22-1.62,1.33-1.45,1.62-3.21.84-5-.66-1.52-2.47-2.33-3.94-2.78-.19-.06-.38-.11-.57-.15-1.32-.33-2.68.2-3.39,1.38-1.23,2.03-1.88,4.25-.84,6.49.9,1.93,3.25,2.39,5.13,2.04,1.78-.33,3.23-1.82,3.76-3.5.67-2.15-.55-4.37-2.1-5.77-1.21-1.1-3.04-1.2-4.24,0-1.11,1.11-1.21,3.14,0,4.24.21.19.4.38.59.59.38.43-.43-.6-.12-.16.07.1.13.21.19.32.24.44-.29-.76-.13-.3.03.1.05.19.07.29-.19-.97-.08-.72-.08-.43,0,.45.15-.89.06-.45-.12.56.44-.79.08-.19-.22.36.55-.67.27-.35-.05.06-.11.12-.17.17-.31.28.7-.51.35-.27-.07.05-.14.08-.21.12-.38.2.82-.32.42-.17-.08.03-.15.05-.23.07-.57.15.91-.07.33-.04-.7.03.81.18.27.05-.52-.13.8.46.26.09.79.54.59.49.4.28.62.68.44.62.3.36.43.81.27.7.19.41-.12-.43.09.9.06.43-.05-.81-.17.71-.01,0,.06-.25.46-1.18.05-.27.16-.35.35-.68.55-1.01-1.13.46-2.26.92-3.39,1.38.25.06.5.13.75.21.22.07.97.4.03-.02.16.07.31.16.47.25.42.25-.64-.57-.18-.14.44.41-.41-.6-.2-.26.13.26.06.09-.21-.51.08.28.05.09-.06-.59.07.53.16-.84.08-.45-.11.53.41-.8.13-.31-.27.49.51-.6.23-.28-.08.09-.16.17-.25.25-.44.41.61-.44.25-.19-.13.09-.27.17-.41.25-.11.06-.23.12-.35.17,1.01-.46.52-.22.27-.13-.12.04-.24.07-.36.1-.71.17.62-.06.27-.03-.11,0-.22,0-.33,0-.43-.02.96.19.43.04-.39-.1.84.43.41.16.51.42.66.53.46.34.59.56.47.67.32.39.24.62.31.79.23.52-.06-.28-.04-.1.07.56-.03-.27.1-.8-.07.32.02-.16.07-.31.12-.46.22-.7-.36.61.07-.1-.33.4-.4.49-.19.28-.25.26-.55.44-.91.52.3-.08.14-.06-.46.05.31,0,.15-.02-.45-.07.67.12-.56-.3-.16-.07.25.16.15.08-.3-.25.1.08.19.18.27.27-.62-.68-.26-.36-.13-.08-.21-.54-.27-.66-.18-.38-.06-.61-.08-.76-.06-.46.11-.61.13-.76.06-.47.26-.53.31-.67.16-.41.17-.31.4-.55.7-.72-.45.33.72-.23.12-.04-1.55.51-2.54,2.05-2.09,3.69.42,1.52,2.14,2.61,3.69,2.09h0Z"/>
  </g>
  <g>
    <path class="cls-1" d="M503.5,718.25c.33-.51.39-.97.44-1.56.09-1.11.03.45-.55.98-.44.26-.88.51-1.32.77.07-.03.15-.06.22-.09-1.13-.46-2.26-.92-3.39-1.38.24.33.49.67.78.96.04.04.71.78.34.26.63.88,1.46,1.49,2.59,1.49,1.25,0,2.65-.91,2.89-2.2.09-.51.16-1.02.22-1.54.14-1.08-.08.48-.29.76l-1.08,1.08c-1.28.74-2.85.12-1.44.44.64.15,1.3.21,1.95.3-.71-1.71-1.41-3.41-2.12-5.12.56-.45-1.14.54-.1.11-.17.07-.34.11-.52.15.86-.19-.06-.13.86,0-.27-.04-.6-.29.24.13-.45-.23.59.52.23.18.08.07.29.43.33.55.05.15.02.61-.02.81-.18.79-1.16,1.58-2.24,1.66-.66.05-.43-.04-.95-.27.15.06.28.16.42.25-.69-.46-.1-.05.04.08.2.19.38.4.56.6-.16-1.21-.31-2.42-.47-3.63.49-.67.11-.18-.04-.04.56-.52.11-.1-.07,0-.15.09-.79.33-.05.05-.21.08-1.11.22-.19.12-.24.03-.82-.07.08.07-.46-.08.52.32.62.41.34.29.48.71.51,1.14.01-.32,0-.3-.03.05.04-.17.08-.34.14-.5-.27.84.31-.29-.24.41.11-.14.63-.56,0-.09.16-.12.35-.22.53-.31-.73.37.02.04.25,0-.81.16-.24.06-.01.06-1.01-.03.47.26-.43-.14.24.11.56.47-.01-.05-.26-.38-.31-.44-.13-.16-.15-.43-.18-.48-.08-.16.21.67,0-.66-.02.12,0-.64-.04.11-.08.27.2-.69-.3.31.21-.32-.24.23-.19.2.15-.07-.28.16-.22.14.2-.05-.61.23.71-.01.05,0-.33-.02-.25,0,.23.04-.31-.09-.25-.05.17.11-.19-.08-.66-.46-.05.04-.61-.5.08.21-.15-.19.41.74.03-.37.12.45-.02-.15.1-.86-.03-.22.15-.82-.24.3.11-.36.19-.3.19-.29-.01,0,.25-.23.23-.22-.06.04.59-.39-.56.15.11-.01-.44.05-.49.07-.16.06-.44-.07-.5-.07-.17.01-.74-.21.16.25-.39-.22.22.24.21.21-.03-.07.16.29.16.28,0-.03.55,1.54,2.03,2.55,3.69,2.09,1.49-.41,2.64-2.15,2.09-3.69-1.04-2.94-3.74-4.65-6.86-3.9-3.29.79-4.72,4.51-4.14,7.54.49,2.55,3.18,4.37,5.69,4.28,3.27-.12,5.24-3,5.28-6.07.08-6.28-8.8-6.95-11.26-1.94-1.31,2.66-.71,6.65,2.73,7.22,2.72.45,5.28-.81,6.88-2.99.82-1.12.35-2.7-.47-3.63-1.34-1.53-3.07-2.73-5.19-2.31-1.74.34-3,2.28-2.78,4.01.26,2.09,1.33,3.46,3.28,4.26,2.06.84,4.3-.51,5.84-1.74.81-.64,1.03-1.98.77-2.92-.39-1.41-1.54-2.03-2.89-2.2.46.06-.32-.08-.35-.08-.17-.04-.33-.08-.5-.12-.9-.23-1.82-.21-2.64.26-.71.41-1.33,1.17-1.48,2-.06.33-.1.69-.13,1.03-.07.81.1-.48-.04.28,1.83-.24,3.65-.48,5.48-.72-.25-.36-.52-.71-.82-1.03-.07-.07-.77-.83-.3-.19-.73-1-2.07-1.91-3.39-1.38-2.01.81-2.59,2.07-2.76,4.12.14-.5.27-1.01.41-1.51-.01.02-.02.03-.03.05-.9,1.37-.28,3.31,1.08,4.1,1.47.86,3.21.29,4.1-1.08h0Z"/>
    <path class="cls-1" d="M497.21,372.75c.11-.31.07-.23-.11.24.17-.27.09-.18-.22.26-.46.32-.57.4-.32.25-.55.2-.68.26-.4.19-.61.05-.77.09-.46.09-.6-.1-.76-.12-.46-.04-.53-.24-.65-.29-.38-.16.21.11.55.43-.19-.18.21.17.54.68-.05-.13.41.57-.18-.59-.04-.16.07.3.06.15-.05-.45,0,.31.02.16.08-.45-.08.28-.03.15.17-.39.11-.13.21-.27.32-.4-.21.21-.11.14.28-.19-.64.46.41-.12.02.03-.15.06-.31.1-.47.14-.48.12.92-.06.3-.05-.3-.01-.12.02.55.09-.25-.04-.64-.27.44.21-.46-.21.61.54.35.27.39.53.5.68.35.45-.13-.25-.06-.07.22.53-.04-.09-.05-.19-.07-.28.21,1.13.07.65.09.32.02-.6-.13.81-.05.36.02-.12.05-.24.09-.36.03-.12.08-.24.12-.36.12-.33-.4.85-.07.19.15-.29.74-1.05,0-.1.07-.09.15-.18.24-.26.48-.49-.49.33-.22.16.24-.16.68-.26-.38.14.5-.19-.85.07-.45.04.4-.02-.97-.21-.45-.05-.59-.27-.76-.34-.51-.21.37.2-.66-.56-.33-.26.46.41-.41-.6-.14-.21.1.14.17.29.25.44.21.41-.28-.77-.01,0,.11.3.18.61.26.91.46-1.13.92-2.26,1.38-3.39-.28.17-.56.33-.85.47-.19.1-.77.31.11-.04-.13.05-.27.1-.41.14-.12.04-.25.06-.37.09.96-.19.63-.07.36-.06-.64.03.87.24.17.02.87.28.69.32.44.17.75.45.6.49.38.28.21.21.39.57.48.84-.23-.64.05.85.02.28,0-.08,0-.16,0-.23.03-.43-.15.91-.06.48.06-.3.37-.89-.12.18.13-.27.56-.79-.16.13.2-.25.74-.58-.19.09.57-.41-.75.23-.2.06.55-.17-.94,0-.2.05-.99-.06-.71-.11-.42-.04.23.06.62.28-.31-.15.25.12.95.67.15.03.25.2.48.44.69.68,1.09,1.22,3.13,1.11,4.24,0,1.2-1.2,1.09-3.03,0-4.24-1.46-1.63-3.54-2.67-5.75-2.12-1.74.43-3.11,2.03-3.51,3.74-.47,1.98.19,4.08,1.99,5.16,2.08,1.25,4.65.32,6.54-.82,1.17-.71,1.71-2.06,1.38-3.39-.44-1.78-1.19-3.34-2.71-4.42-1.26-.9-3.25-.76-4.47.13-2.06,1.5-3.48,4.38-2.75,6.95.5,1.78,2.16,2.96,3.99,2.92,2.24-.05,4.22-1.35,5.03-3.43.81-2.08-.72-4.35-2.38-5.45-2.08-1.38-4.83-.6-6.07,1.49-.22.36-.36.79-.49,1.19-.51,1.55.58,3.27,2.09,3.69,1.63.45,3.18-.54,3.69-2.09h0Z"/>
  </g>
  <g>
    <path class="cls-1" d="M391.06,678.64c.58-.14,1.02-.44,1.44-.85,1.01-.96-1.11.48-1.77.25-.73-.96-1.47-1.93-2.2-2.89-.04.55.13,1.09.08,1.64-.09,1.03.64,2.09,1.49,2.59,1.25.73,2.58.4,3.63-.47.21-.17.41-.34.6-.53.67-.63.33-.02-.8.32h-1.59c-.65-.18-1.15-.54-1.48-1.08.07.1.15.2.22.3.4.54.82,1.06,1.28,1.56.71-1.71,1.41-3.41,2.12-5.12-.14,0-1-.09-.18.03-.2-.03-.4-.08-.59-.14-.62-.18.61.32.1.03-.5-.28.54.49.17.12.54.54.34.49.19.21.4.74.23.59.16.29.19.91.07.67.09.37-.1.62-.12.78-.05.49.09-.28.02-.14-.2.43.29-.69-.48.45-.09.08-.72.67-1.76.91-2.77.35-.1-.05-.91-.97-.74-.71.28.44-.27-.76-.09-.2.06.17.09.36.12.54-.16-.88-.02.22-.01.41.73-.96,1.47-1.93,2.2-2.89-.68.16.71-.02-.03,0-.74.02.65.15-.1,0-.23-.04-.45-.12-.66-.19.69.24.08,0-.08-.09.68.41-.15-.28.36.41-.03-.05-.06-.1-.09-.15.28.44.34.94.19,1.48-.03.17-.64.88-.17.41-.34.34.58-.26-.22.07.18-.08.87-.16.07-.08.19-.02.88.08.08-.05.16.03.84.27.11-.04.2.08.38.2.56.32-.61-.39-.13-.07.02.08-.59-.63.08.36-.26-.47.25.61,0-.69.02-.03l.06-.4c-.09.31-.07.27.08-.11-.3.63.4-.37-.16.2-.57.59.35-.17-.3.19.59-.33-.43-.07.41-.12-.68.04.63.17,0-.03.75.24-.09-.27.49.24-.5-.44.33.54-.02-.03.36.6.08.22.02-.05.21.86.12-.3,0,.54.1-.68-.32.52.02-.13.33-.63-.39.37.18-.18-.35.34.53-.19,0,0,.74-.27-.46-.04.27-.03-.69-.01.25.28-.35-.05-.59-.32.15.29-.23-.26.31.44,0-.17-.03-.38,0,.34.01.34.06-.02-.04.18-.1.36-.17.54-.56,1.54.62,3.28,2.09,3.69,1.67.46,3.13-.56,3.69-2.09.53-1.44.37-2.95-.25-4.33-.65-1.44-1.89-2.24-3.29-2.83-2.65-1.12-6.29.81-7.36,3.33-1.17,2.77-.32,5.45,2.04,7.23,2.27,1.72,5.67.58,7.34-1.4,1.91-2.28,1.78-5.26-.24-7.42-1.61-1.72-4.56-2.46-6.75-1.54-2.64,1.11-5.07,4.27-2.98,7.07,1.63,2.19,4.53,3.11,7.17,2.49,1.27-.3,2.23-1.6,2.2-2.89-.05-2.08-.49-3.96-2.25-5.22-1.83-1.32-4.08-.08-5.2,1.47-1.01,1.39-.86,3.4-.09,4.84,1.05,1.95,3.41,2.56,5.44,2.62,2.72.08,3.82-3.27,2.12-5.12-.23-.25-.45-.5-.66-.75.43.53.1.12.01,0-.5-.68-1.12-1.42-2.02-1.56-1.9-.31-2.74.67-4.04,1.75,1.71.71,3.41,1.41,5.12,2.12.05-.55-.12-1.09-.08-1.64.11-1.38-1.01-2.48-2.2-2.89-1.68-.58-2.98.26-4.13,1.36.44-.26.88-.51,1.32-.77-.02,0-.03,0-.05.01-1.59.38-2.52,2.15-2.09,3.69.44,1.61,2.1,2.48,3.69,2.09h0Z"/>
    <path class="cls-1" d="M606.49,412.19c.65-.41-.69.17-.04,0-.8.22-.73.06-.4.07-.21-.03-.41-.05-.62-.08.28.08.12.01-.47-.21.26.12-.65-.65-.21-.14-.62-.71-.41-.55-.27-.3.22.4-.3-.8-.16-.36.23.71-.03-.55,0-.22,0,.1,0,.2,0,.29-.02.47.15-.87.05-.42-.13.61.4-.73.09-.21.43-.72.46-.55.24-.34.51-.49.28-.28.94-.54-.58.23.86,0,.18-.04,1.08.07.31.01-.02-.11-.38-.14.82.41.19.06-.62-.34.55.51.19.15-.25-.25.51.82.26.31.45.89.3.78.24.51.22.98.09.88.09.59,0-.38-.16.95-.07.59.06-.23.29-.65-.22.5.05-.11.12-.21.19-.31-.68.93-.41.52-.2.31.49-.49-.39.27-.22.14.23-.17.47-.31.73-.43.52-.25-.83.32-.28.12.14-.05.29-.09.44-.13.28-.07.88-.12-.37.03.14-.02.27-.02.41-.01.53.02-.93-.17-.42-.05.49.12-.84-.45-.34-.14.23.16.07.03-.47-.37.18.15.43.56-.32-.43.36.48-.26-.82-.12-.31.08.3-.06-1.02-.06-.34,0,.76.16-.79.02-.13-.05.24-.13.47-.21.7-.07.2-.3.69.08-.18-.06.15-.14.29-.21.44,1.13-.46,2.26-.92,3.39-1.38-.37-.06-.74-.13-1.11-.23-.15-.04-.31-.09-.46-.14-.55-.18.69.32.2.09-.3-.14-.93-.67-.06.04-.07-.06-.14-.13-.2-.2.62.68.42.58.28.33-.21-.36.31.83.19.44-.12-.4.09.93.07.52-.03-.53-.24.94-.02.32-.32.94-.32.7-.18.46.12-.21.41-.53-.3.36.18-.23.73-.62-.21.1.13-.1.27-.18.41-.25-1.01.5-.51.2-.18.12.42-.1-.91.1-.48.07.08,0,.16,0,.24,0-1-.05-.77-.12-.48-.06.24.06.62.27-.41-.19.64.29-.54-.53-.12-.12.18.17.37.53-.23-.31.06.09.11.18.16.27.23.44-.29-.77-.13-.28.04.13.07.26.1.38.05.22.09.76-.02-.21.02.17.02.34.03.5.06,1.63,1.32,3,3,3,1.59,0,3.06-1.36,3-3-.08-2.08-.78-4.42-2.78-5.43-1.61-.82-3.73-.78-5.21.35-1.54,1.18-2.74,3.1-2,5.12.83,2.28,3.02,3.35,5.3,3.71,1.27.2,2.75-.09,3.39-1.38.6-1.23,1.24-2.68,1.12-4.09-.12-1.42-.78-2.99-2.19-3.59-2.01-.86-4.38-.54-6.13.81-.99.76-1.89,1.64-2.19,2.9-.44,1.83.38,3.32,1.8,4.4,1.21.92,3.01,1.23,4.45.9,2.02-.46,3.01-2.42,3.18-4.31.12-1.34-.5-2.95-1.5-3.84-1.52-1.36-3.62-1.47-5.34-.39-1.38.87-1.92,2.66-1.08,4.1.81,1.37,2.72,1.95,4.1,1.08h0Z"/>
  </g>
  <g>
    <path class="cls-1" d="M375.02,427.46s.04,0,.06.01c-.44-.26-.88-.51-1.32-.77.41.33.79.72,1.26.97,1.22.66,2.42.49,3.64-.07,1.27-.58,1.62-2.16,1.38-3.39.18.91.06.11.06-.12,0-.51-.07-1.02-.17-1.52-1.47,1.13-2.94,2.26-4.41,3.39.21.13.41.27.61.42-.83-.6.19.16.45.35.67.5,1.74.61,2.53.36,1.54-.47,2.03-1.88,2.9-3.06.62-.84.5-2.17,0-3.03-.74-1.27-2.03-1.58-3.39-1.38-1.75.26-3.76,1.18-4.52,2.89-.83,1.88-.56,3.71.73,5.29,1.12,1.38,3.29,1.78,4.8.84,1.81-1.13,2.15-3.36,1.97-5.32-.16-1.78-1.26-2.79-3-3-2.4-.28-4.97,1.13-6.26,3.09-1.93,2.94.71,6.07,3.52,6.91,2.61.77,5.47-.57,6.96-2.72,1.57-2.26,1.06-5.38-1.06-7.1-2.35-1.91-5.34-2.13-7.67-.09-1.97,1.72-2.1,4.76-.94,6.93,1.48,2.78,5.38,3.88,8.12,2.47,2.93-1.51,3.6-4.98,2.19-7.76-.73-1.46-2.76-1.86-4.1-1.08-1.47.86-1.81,2.64-1.08,4.1-.3-.59.03.55-.04-.28.07.73.17-.55-.02.13.2-.69-.29.16.17-.36.32-.21.34-.23.06-.05.36-.13.38-.14.06-.04.72-.22-.33-.09.31.02-.7-.11.28.23-.42-.15-.69-.38.36.37-.15-.13.23.33.26.36.08.09-.15-.29-.13-.24.06.16-.22-.63.02.7-.01.04-.03-.66-.16.69-.01.06.15-.63-.32.6-.02.04.17-.26.13-.21-.15.17.23-.22.16-.18-.2.11.21-.15.69-.26-.06,0,.61-.2-.71.01-.04.02-.93-.01.23.18-.46-.12.15.07.3.16.45.25-.22-.19-.21-.17.03.04.43.4-.1-.23-.17-.4.25.62,0-.68.01-.03-.01-.72.06-.36-.04-.05.18-.42.19-.48.04-.19.28-.33.31-.38.09-.13-.13.14-.65.49-.03.06-.15.1-.77.37-.04.08-.2.08-.41.12-.62.17.44-.05.49-.08.15-.06.44.08.48.09.15.02-.71-.15.62.36-.19-.09.45.25-.22-.38.22.27.24.36.31.91.2,1.33-.1.37-.7.96-.13.43-.54.51-.09.09.09-.02.64-.37-.6.2.1-.05.21-.07.43-.12.64-.16-.81.16-.03.06.22.08-1-1-2-2-3-3,.04.48.06.96.03,1.44.06-.84.05-.38-.01-.14.18-.67.06-.24.51-.81.34-.43,1.65-.74,2.19-.58.65.19.45.13.95.54-.47-.39.4.6.16.23-.25-.4.29.79.13.33-.09-.25-.07-.68.03.37-.02-.27.12-.66-.07.35.09-.49-.37.72-.12.27.24-.46-.52.57-.12.18-.56.56-.34.25-.07.1.57-.32-.67.23.03,0,.32-.1.66-.15.99-.2-1.13-1.47-2.26-2.94-3.39-4.41-.27.37-.52.74-.76,1.14-.37.63-.08.09.12-.06.44-.26.88-.51,1.32-.77.23-.03.47-.07.7-.1.5.14,1.01.27,1.51.41-.48-.21.64.52.18.16-.45-.35-.89-.69-1.36-1-2.36-1.53-4.91.97-4.41,3.39-.16-.79-.04.01-.04.2,0,.48.06.96.15,1.44.46-1.13.92-2.26,1.38-3.39-.07.03-.15.07-.22.1.5-.14,1.01-.27,1.51-.41l.94.28c.35.27.42.32.21.12-.39-.38-.92-.75-1.47-.85-1.61-.28-3.23.41-3.69,2.09-.4,1.46.48,3.41,2.09,3.69h0Z"/>
    <path class="cls-1" d="M618.11,666.94c1.78.86,3.95.95,5.39-.64,1.19-1.32,1.46-3.01,1.13-4.71-.29-1.52-1.68-3.1-3.26-3.33-1.84-.27-3.42.35-4.82,1.51-1.19.99-1.46,2.51-1.22,3.94.19,1.2,1.19,2.08,2.1,2.77,1.45,1.11,3.6,1.45,5.35,1.07,1.43-.31,2.85-1.61,3.06-3.1.26-1.84-.29-3.44-1.29-5-.73-1.14-2.05-1.75-3.39-1.38-2.2.61-4.32,1.73-5.08,4.02-.67,2,.54,4.02,2.19,5.07,1.54.99,3.62,1.01,5.2.12,1.95-1.1,2.64-3.48,2.48-5.58-.13-1.63-1.27-3-3-3-1.54,0-3.13,1.37-3,3,.02.29.03.58.02.86,0,.25-.1.77.06-.31-.02.14-.06.29-.1.43-.07.24-.27.65.17-.35-.05.11-.11.21-.17.31.52-.8.45-.56.27-.36-.37.4.65-.46.32-.23-.55.38.83-.25.19-.07-.25.07-.69.07.52-.06-.09.01-.19,0-.28,0-.26,0-.67-.11.51.08-.09-.02-.19-.04-.28-.07-.65-.18.78.4.2.08-.57-.32.61.53.22.18-.05-.04-.1-.09-.14-.14-.27-.29.54.77.27.35-.25-.4.26.93.12.25.21,1.01.09.84.09.55,0-.4-.19.98-.05.48.11-.38-.38.82-.19.46.25-.49-.51.61-.24.28.06-.07.13-.13.19-.19.32-.3-.75.52-.19.15.23-.16,1.21-.58.21-.17.36-.15.74-.26,1.11-.37-1.13-.46-2.26-.92-3.39-1.38.15.24.3.49.44.74.06.11.11.22.17.33.22.46-.3-.76-.13-.31.07.18.12.36.16.54.1.43-.1-.9-.06-.48,0,.07,0,.14,0,.21,0,.25.24-.99.03-.37.33-.96.35-.76.21-.52-.19.31.58-.71.34-.44-.32.34.8-.52.31-.25-.17.09.95-.32.34-.17-.5.13,1-.09.37-.05-.13,0-.27,0-.4,0-.55-.04.98.17.31.04-.14-.03-.28-.06-.42-.11-.14-.04-.27-.09-.41-.14,1.13.44.53.23.27.09-.12-.06-.24-.14-.35-.21-.42-.28.72.64.21.15-.45-.44.32.45.21.3-.34-.49.2.56.15.39-.14-.45.04,1.01.07.46-.06,1.04-.15.88-.07.6.1-.35-.39.85-.21.52.23-.42-.65.71-.19.27.39-.37-.78.52-.15.14.24-.14.99-.45-.06-.01.11-.05.23-.08.34-.11-.84.21-.7.07-.39.07-.85,0-.76-.14-.44-.04-.73-.22-.37-.11-.96-.57.07.05.12.12.18.18-.62-.71-.42-.57-.28-.32.21.39-.31-.81-.17-.39.03.09.05.18.06.27-.21-1.12-.06-.5-.08-.15.08-1.03.11-.71.04-.44-.06.24-.26.64.18-.38-.03.08-.08.15-.12.22.47-.75.47-.56.26-.36.61-.59.61-.43.34-.29.19-.08.37-.16.56-.24-.29.07-.11.05.54-.06-.25.03-.68-.11.41.08-.65-.11.6.31.15.1-1.47-.71-3.23-.42-4.1,1.08-.78,1.32-.4,3.4,1.08,4.1h0Z"/>
  </g>
  <g>
    <path class="cls-1" d="M330.08,567.75c1.02-.77,2.14-1.25,3.38-1.51,1.14-.23.65-1.97-.48-1.74-1.38.28-2.69.84-3.81,1.69-.92.69-.02,2.25.91,1.55h0Z"/>
    <path class="cls-1" d="M335.46,586.24c1.16-.38,2.29-.81,3.41-1.29.45-.19.55-.85.32-1.23-.27-.46-.78-.51-1.23-.32-.98.42-1.98.78-2.98,1.11-1.1.36-.63,2.1.48,1.74h0Z"/>
    <path class="cls-1" d="M340.66,606.63c.33-.05.67-.19.99-.29.55-.17,1.1-.36,1.62-.6.45-.21.55-.84.32-1.23-.27-.45-.79-.53-1.23-.32-.24.11.18-.07-.12.05-.1.04-.2.08-.3.11-.26.09-.52.18-.77.26-.32.1-.66.24-.99.29-.49.07-.75.68-.63,1.11.14.52.62.7,1.11.63h0Z"/>
    <path class="cls-1" d="M345.46,620.63c1.08-.45,2.19-.73,3.36-.77,1.16-.04,1.16-1.84,0-1.8-1.33.05-2.61.32-3.84.83-.45.19-.77.59-.63,1.11.12.43.65.82,1.11.63h0Z"/>
    <path class="cls-1" d="M355.05,638.39c.71-.66,1.6-.94,2.56-.94,1.16,0,1.16-1.79,0-1.8-1.44,0-2.77.48-3.84,1.46-.85.79.42,2.06,1.27,1.27h0Z"/>
    <path class="cls-1" d="M364.01,658.25c1.46-.15,2.85-.75,3.84-1.86.76-.87-.5-2.15-1.27-1.27-.66.75-1.57,1.23-2.56,1.34-1.14.12-1.15,1.92,0,1.8h0Z"/>
    <path class="cls-1" d="M375.27,668.52c1.22-.54,2.38-1.25,3.38-2.14.87-.77-.41-2.04-1.27-1.27-.88.78-1.94,1.38-3.02,1.86-.45.2-.55.84-.32,1.23.27.46.78.52,1.23.32h0Z"/>
  </g>
  <g>
    <path class="cls-1" d="M664.31,528.1c-1.03.76-2.15,1.23-3.4,1.48-1.14.22-.65,1.96.48,1.74,1.38-.27,2.69-.82,3.83-1.66.92-.68.03-2.24-.91-1.55h0Z"/>
    <path class="cls-1" d="M659.09,509.57c-1.09.34-2.16.73-3.21,1.17-.45.19-.77.59-.63,1.11.12.43.65.82,1.11.63,1.05-.44,2.12-.83,3.21-1.17,1.1-.35.63-2.09-.48-1.74h0Z"/>
    <path class="cls-1" d="M654.07,489.13c-.87.12-1.82.51-2.62.87-.45.2-.55.84-.32,1.23.27.46.78.52,1.23.32.24-.11-.18.07.12-.05.1-.04.2-.07.3-.11.26-.09.52-.17.78-.25.32-.1.66-.23.99-.28.49-.07.75-.68.63-1.11-.14-.52-.62-.69-1.11-.63h0Z"/>
    <path class="cls-1" d="M649.39,475.09c-1.09.44-2.19.7-3.37.74-1.16.03-1.16,1.83,0,1.8,1.33-.04,2.62-.3,3.84-.8,1.06-.43.6-2.18-.48-1.74h0Z"/>
    <path class="cls-1" d="M639.96,457.25c-.72.66-1.61.92-2.57.91-1.16-.02-1.16,1.78,0,1.8,1.44.02,2.78-.46,3.85-1.44.86-.78-.42-2.05-1.27-1.27h0Z"/>
    <path class="cls-1" d="M631.16,437.31c-1.46.14-2.86.73-3.85,1.84-.77.86.5,2.14,1.27,1.27.66-.74,1.58-1.21,2.58-1.31,1.14-.11,1.16-1.91,0-1.8h0Z"/>
    <path class="cls-1" d="M620,426.94c-1.23.53-2.39,1.23-3.4,2.11-.88.76.4,2.03,1.27,1.27.89-.77,1.95-1.37,3.03-1.83.45-.19.55-.85.32-1.23-.27-.46-.78-.52-1.23-.32h0Z"/>
  </g>
  <path class="cls-1" d="M524.61,712.81c1.08.76,1.29,2.5,1.69,3.66.37,1.09,2.11.62,1.74-.48-.58-1.73-.93-3.63-2.51-4.74-.95-.67-1.85.89-.91,1.55h0Z"/>
  <path class="cls-1" d="M538.09,709.19c.59.85,1.09,1.75,1.5,2.7.19.45.85.55,1.23.32.46-.27.52-.78.32-1.23-.41-.95-.91-1.85-1.5-2.7-.66-.94-2.22-.04-1.55.91h0Z"/>
  <path class="cls-1" d="M558.02,702.47c1.08.84,1.79,2.01,2.56,3.12.65.95,2.21.05,1.55-.91-.84-1.23-1.65-2.56-2.84-3.48-.39-.3-.89-.38-1.27,0-.31.31-.39.97,0,1.27h0Z"/>
  <path class="cls-1" d="M576.2,696.02c.72.45,1.31,1.07,1.78,1.78.63.97,2.19.07,1.55-.91-.63-.97-1.44-1.81-2.42-2.42-.99-.62-1.89.94-.91,1.55h0Z"/>
  <path class="cls-1" d="M587.59,688.82c1.27.56,2.2,1.55,3.12,2.56.78.86,2.05-.42,1.27-1.27-1.01-1.11-2.09-2.22-3.48-2.84-1.05-.47-1.97,1.08-.91,1.55h0Z"/>
  <path class="cls-1" d="M602.89,678.62c.88.49,1.73,1.04,2.52,1.66.39.3.89.38,1.27,0,.32-.32.39-.97,0-1.27-.92-.72-1.87-1.37-2.88-1.94-1.01-.57-1.92.99-.91,1.55h0Z"/>
  <path class="cls-1" d="M408.44,691.68c1.05-1.05,2.25-1.94,3.3-3,.82-.82-.45-2.1-1.27-1.27-1.05,1.05-2.25,1.95-3.3,3-.82.82.45,2.09,1.27,1.27h0Z"/>
  <path class="cls-1" d="M416.74,700c.94-.29,1.86-.64,2.61-1.28.79-.67-.23-1.95-1.09-1.41-.24.15-.48.3-.72.45-.98.61-.08,2.17.91,1.55.24-.15.48-.3.72-.45-.36-.47-.73-.94-1.09-1.41-.49.42-1.2.62-1.82.81-1.1.35-.63,2.08.48,1.74h0Z"/>
  <path class="cls-1" d="M434.67,708.59c.48-1.07,1.14-2.03,1.8-3,.66-.96-.9-1.86-1.55-.91-.66.96-1.32,1.93-1.8,3-.2.45-.14.96.32,1.23.39.23,1.03.13,1.23-.32h0Z"/>
  <path class="cls-1" d="M451.29,714.73c.07-.71.41-1.3.94-1.76.87-.78-.41-2.04-1.27-1.27-.89.8-1.35,1.86-1.46,3.04-.05.49.44.9.9.9.52,0,.85-.41.9-.9h0Z"/>
  <path class="cls-1" d="M470.48,718.93v-2.1c0-1.16-1.8-1.16-1.8,0v2.1c0,1.16,1.8,1.16,1.8,0h0Z"/>
  <path class="cls-1" d="M631.2,649.69c.76.82,1.72,1.41,2.8,1.73,1.12.33,1.59-1.41.48-1.74-.79-.23-1.45-.67-2-1.27-.79-.85-2.06.42-1.27,1.27h0Z"/>
  <path class="cls-1" d="M636.03,637.06c1.6.19,2.97,1.21,4.34,1.98,1.01.57,1.92-.99.91-1.55-1.7-.95-3.28-1.99-5.25-2.22-1.15-.13-1.14,1.67,0,1.8h0Z"/>
  <path class="cls-1" d="M642.63,624.46c1.17-.12,2.27.53,3.36.87,1.11.34,1.58-1.4.48-1.74-1.26-.39-2.48-1.07-3.84-.93-1.14.11-1.15,1.91,0,1.8h0Z"/>
  <path class="cls-1" d="M650.09,606.8c1.91,1.5,4.28,1.84,6.63,2.06,1.16.11,1.14-1.69,0-1.8-1.8-.17-3.89-.38-5.36-1.54-.9-.71-2.19.56-1.27,1.27h0Z"/>
  <path class="cls-1" d="M659.13,598.07c1.43-.08,2.84.05,4.26.27,1.13.18,1.62-1.56.48-1.74-1.57-.24-3.14-.42-4.74-.33-1.15.06-1.16,1.86,0,1.8h0Z"/>
  <path class="cls-1" d="M668.58,574.25c.91-.39,2-.23,2.91.09,1.1.39,1.56-1.35.48-1.74-1.4-.5-2.92-.5-4.29.09-1.06.46-.15,2.01.91,1.55h0Z"/>
  <path class="cls-1" d="M329.16,523.66c1.05-.15,2.1.07,3.12.3,1.13.25,1.61-1.48.48-1.74-1.37-.31-2.68-.5-4.08-.3-.49.07-.75.68-.63,1.11.14.52.62.7,1.11.63h0Z"/>
  <path class="cls-1" d="M330.12,508.99c.88-.03,1.74.11,2.55.48.45.2.96.13,1.23-.32.23-.39.12-1.03-.32-1.23-1.1-.5-2.24-.76-3.45-.72-1.16.04-1.16,1.84,0,1.8h0Z"/>
  <path class="cls-1" d="M334.98,487.97c1.39.54,2.71,1.25,4.2,1.5,1.13.19,1.62-1.54.48-1.74-1.49-.25-2.81-.96-4.2-1.5-1.08-.42-1.55,1.32-.48,1.74h0Z"/>
  <path class="cls-1" d="M339.48,476.57c1.01.28,2,.58,3,.9,1.11.35,1.58-1.38.48-1.74-.99-.32-1.99-.62-3-.9-1.12-.31-1.59,1.42-.48,1.74h0Z"/>
  <path class="cls-1" d="M350.52,461.91c1.18.01,2.17.44,3.14,1.08.97.64,1.88-.92.91-1.55-1.24-.81-2.57-1.31-4.05-1.32-1.16-.01-1.16,1.79,0,1.8h0Z"/>
  <path class="cls-1" d="M362.88,443.58c.7.24,1.25.69,1.7,1.27.3.39.96.31,1.27,0,.38-.38.3-.89,0-1.27-.64-.82-1.52-1.39-2.5-1.73-.46-.16-.98.18-1.11.63-.14.5.17.95.63,1.11h0Z"/>
  <path class="cls-1" d="M390.55,408.1c.79.58,1.67,1.01,2.61,1.29,1.12.33,1.59-1.41.48-1.74-.8-.23-1.52-.61-2.18-1.11-.39-.29-1-.07-1.23.32-.27.46-.07.94.32,1.23h0Z"/>
  <path class="cls-1" d="M403.45,397.3c.96.62,1.78,1.42,2.7,2.1.4.29,1,.07,1.23-.32.27-.46.07-.94-.32-1.23-.92-.68-1.74-1.48-2.7-2.1-.98-.63-1.88.93-.91,1.55h0Z"/>
  <path class="cls-1" d="M419.5,388.73c.1-.01.2-.02.3-.01-.17,0,.13.07-.01,0,.2.1-.05-.07.12.08-.02-.02.19.21.13.13.33.43.55.96.77,1.45.2.45.84.55,1.23.32.46-.27.52-.78.32-1.23-.53-1.19-1.32-2.74-2.88-2.55-.49.06-.9.36-.9.9,0,.44.41.96.9.9h0Z"/>
  <path class="cls-1" d="M438.36,378.87c.52.45.81,1.04.97,1.7.27,1.13,2.01.65,1.74-.48-.23-.93-.7-1.86-1.43-2.5-.37-.32-.91-.36-1.27,0-.33.33-.37.95,0,1.27h0Z"/>
  <path class="cls-1" d="M457.55,373.17c.39.41.62.89.64,1.46.04,1.16,1.84,1.16,1.8,0-.04-1.05-.43-1.98-1.16-2.74-.81-.83-2.08.44-1.27,1.27h0Z"/>
  <path class="cls-1" d="M519.97,369.54c-.04,1.14-.35,2.24-.57,3.36-.22,1.13,1.51,1.62,1.74.48.25-1.28.58-2.53.63-3.84.04-1.16-1.76-1.16-1.8,0h0Z"/>
  <path class="cls-1" d="M537.96,372.83c.03,1.13-.05,2.25-.27,3.36-.22,1.13,1.52,1.62,1.74.48.25-1.27.36-2.55.33-3.84-.03-1.16-1.83-1.16-1.8,0h0Z"/>
  <path class="cls-1" d="M550.08,379.89c.33.65.3,1.43,0,2.09-.2.45-.13.96.32,1.23.39.23,1.03.13,1.23-.32.57-1.29.64-2.63,0-3.91-.52-1.04-2.07-.13-1.55.91h0Z"/>
  <path class="cls-1" d="M571.98,387.08c-.57,1.32-1.23,2.58-1.8,3.9-.46,1.05,1.09,1.97,1.55.91.57-1.31,1.23-2.58,1.8-3.9.45-1.05-1.1-1.97-1.55-.91h0Z"/>
  <path class="cls-1" d="M586.58,396.59c-.38.98-.68,1.98-.9,3-.24,1.13,1.49,1.61,1.74.48.22-1.02.52-2.02.9-3,.18-.46-.19-.99-.63-1.11-.51-.14-.93.17-1.11.63h0Z"/>
  <path class="cls-1" d="M477.11,369.17c.28.9.48,1.82.57,2.76.11,1.15,1.91,1.16,1.8,0-.1-1.1-.3-2.18-.63-3.24-.34-1.1-2.08-.63-1.74.48h0Z"/>
  <path class="cls-1" d="M497.01,643.99c-1.66-.27-2.96-.02-4.17,1.19-.95.95-2.13,3.31-1.19,4.63.78,1.09,2.26,2.22,3.54,2.61.74.22,1.48.27,2.24.4.89.16.46,1.57.36,2.06-.32,1.58-1.83.76-2.56.39-1.03-.52-1.95,1.03-.91,1.55,1.21.61,3.17,1.37,4.29.13,1.06-1.17,1.47-3.09.9-4.59-.49-1.27-1.9-1.32-3.05-1.49-1.03-.15-1.83-.83-2.67-1.4-1.22-.82-.37-1.95.13-2.78.59-.98,1.58-1.15,2.61-.98,1.13.18,1.62-1.55.48-1.74h0Z"/>
  <g>
    <path class="cls-1" d="M610.71,638.7s-.05,0-.07,0c-.97-.24-1.98-.54-2.98-.88-.16-.05-.24-.22-.19-.38.05-.16.22-.24.38-.19.64.21,1.27.41,1.9.59l-.1-.08c-.13-.1-.15-.29-.05-.42.06-.08.16-.12.26-.11-.47-1.25-1.09-2.5-1.88-3.78-.09-.14-.04-.33.1-.41.14-.09.33-.04.41.1,1,1.62,1.73,3.18,2.24,4.78.02.06.02.13,0,.19.02,0,.04.01.06.01.16.04.26.2.22.36-.03.14-.16.23-.29.23ZM602.2,635.56s-.09,0-.13-.03c-1.63-.77-3.37-1.68-5.34-2.78-.14-.08-.2-.26-.11-.41.08-.14.26-.2.41-.11,1.95,1.09,3.69,2,5.3,2.76.15.07.21.25.14.4-.05.11-.16.17-.27.17ZM605.11,634.13c-.06,0-.13-.02-.18-.06-1.58-1.22-3.17-2.43-4.77-3.64-.13-.1-.16-.29-.06-.42.1-.13.29-.16.42-.06,1.6,1.21,3.19,2.42,4.77,3.64.13.1.16.29.05.42-.06.08-.15.12-.24.12ZM591.7,629.78c-.05,0-.1-.01-.15-.04l-.4-.24c-1.57-.93-3.19-1.89-4.78-2.79-.14-.08-.19-.27-.11-.41.08-.14.26-.19.41-.11,1.59.91,3.22,1.87,4.79,2.8l.4.23c.14.08.19.27.11.41-.06.09-.16.15-.26.15ZM604.62,628.8c-.08,0-.17-.03-.23-.1-1.38-1.57-2.87-3.06-4.14-4.31-.12-.12-.12-.31,0-.42.12-.12.31-.12.42,0,1.28,1.26,2.77,2.76,4.17,4.34.11.12.1.31-.03.42-.06.05-.13.07-.2.07ZM595.52,626.91c-.06,0-.12-.02-.18-.06-1.64-1.2-3.28-2.38-4.87-3.5-.14-.1-.17-.28-.07-.42.1-.14.28-.17.42-.07,1.59,1.12,3.23,2.3,4.88,3.5.13.1.16.29.07.42-.06.08-.15.12-.24.12ZM581.22,623.94s-.09,0-.13-.03l-.28-.13c-1.71-.81-3.43-1.62-5.14-2.42-.15-.07-.22-.25-.14-.4.07-.15.25-.21.4-.14,1.72.8,3.44,1.61,5.15,2.42l.28.13c.15.07.21.25.14.4-.05.11-.16.17-.27.17ZM596.2,620.26c-.08,0-.16-.03-.22-.09l-.4-.41c-1.25-1.31-2.49-2.63-3.72-3.96-.11-.12-.11-.31.01-.42.12-.11.31-.11.42.01,1.23,1.32,2.47,2.64,3.72,3.95l.39.41c.12.12.11.31,0,.42-.06.06-.13.08-.21.08ZM585.72,620c-.06,0-.12-.02-.17-.05-.39-.27-.79-.53-1.18-.8-1.26-.85-2.53-1.69-3.81-2.53-.14-.09-.18-.28-.09-.42.09-.14.28-.18.42-.09,1.27.84,2.55,1.68,3.81,2.53.39.27.79.53,1.18.8.14.09.17.28.08.42-.06.09-.15.13-.25.13ZM570.36,618.86s-.09,0-.13-.03c-1.81-.84-3.63-1.69-5.44-2.54-.15-.07-.21-.25-.14-.4.07-.15.25-.21.4-.14,1.81.85,3.62,1.69,5.43,2.54.15.07.22.25.15.4-.05.11-.16.17-.27.17ZM559.5,613.74s-.09,0-.13-.03c-1.93-.93-3.69-1.79-5.39-2.64-.15-.07-.21-.25-.13-.4.07-.15.25-.21.4-.13,1.69.85,3.45,1.71,5.38,2.64.15.07.21.25.14.4-.05.11-.16.17-.27.17ZM575.71,613.39c-.06,0-.11-.02-.16-.05-1.68-1.09-3.35-2.19-5.02-3.29-.14-.09-.18-.28-.08-.42.09-.14.28-.18.42-.08,1.67,1.1,3.34,2.19,5.02,3.29.14.09.18.28.09.42-.06.09-.15.14-.25.14ZM588,611.51c-.08,0-.16-.03-.22-.09-1.61-1.71-2.92-3.1-4.13-4.35-.12-.12-.11-.31,0-.42.12-.11.31-.11.42,0,1.21,1.25,2.52,2.64,4.13,4.35.11.12.11.31-.01.42-.06.05-.13.08-.21.08ZM548.79,608.35s-.09-.01-.14-.03c-1.58-.82-3.45-1.77-5.37-2.62-.15-.07-.22-.24-.15-.4.07-.15.25-.22.4-.15,1.93.86,3.82,1.82,5.4,2.64.15.08.2.26.13.4-.05.1-.16.16-.27.16ZM565.71,606.76c-.06,0-.12-.02-.17-.05-1.78-1.22-3.39-2.35-4.92-3.45-.13-.1-.16-.28-.07-.42.1-.13.28-.16.42-.07,1.52,1.1,3.13,2.22,4.91,3.44.14.09.17.28.08.42-.06.08-.15.13-.25.13ZM537.79,603.62s-.05,0-.08-.01c-.34-.1-.7-.19-1.05-.28-1.64-.44-3.33-.89-4.68-1.7-.14-.09-.19-.27-.1-.41.09-.14.27-.19.41-.1,1.27.77,2.92,1.21,4.52,1.63.36.1.71.19,1.06.29.16.04.25.21.21.37-.04.13-.16.22-.29.22ZM579.65,602.89c-.08,0-.15-.03-.21-.09-1.52-1.49-2.94-2.83-4.36-4.1-.12-.11-.13-.3-.02-.42.11-.12.3-.13.42-.02,1.42,1.28,2.85,2.63,4.38,4.12.12.12.12.31,0,.42-.06.06-.14.09-.21.09ZM556.08,599.62c-.07,0-.14-.03-.2-.08-.8-.73-1.59-1.49-2.42-2.29-.64-.61-1.28-1.23-1.93-1.84-.12-.11-.13-.3-.01-.42.11-.12.3-.13.42-.01.66.61,1.3,1.23,1.94,1.85.83.8,1.62,1.56,2.41,2.28.12.11.13.3.02.42-.06.07-.14.1-.22.1ZM533,597.41c-.08,0-.15-.03-.21-.09-.12-.12-.12-.31,0-.42,1.38-1.4,2.76-2.73,4.31-4.19.12-.11.31-.11.42.01.11.12.11.31-.01.42-1.54,1.46-2.92,2.78-4.29,4.17-.06.06-.14.09-.21.09ZM570.82,594.78c-.07,0-.14-.03-.2-.08-1.49-1.34-2.97-2.67-4.46-4.01-.12-.11-.13-.3-.02-.42.11-.12.3-.13.42-.02,1.49,1.34,2.97,2.68,4.46,4.01.12.11.13.3.02.42-.06.07-.14.1-.22.1ZM547.07,591.72c-.06,0-.11-.02-.16-.05-1.86-1.22-3.62-1.95-5.38-2.24-.16-.03-.27-.18-.25-.34.01-.06.04-.12.08-.16-.08-.12-.07-.27.04-.38,1.59-1.61,2.87-3.01,4.01-4.42.1-.13.29-.15.42-.04.13.1.15.29.04.42-1.14,1.4-2.4,2.79-3.97,4.38,1.75.33,3.5,1.08,5.33,2.28.14.09.18.28.09.42-.06.09-.15.14-.25.14ZM561.9,586.75c-.07,0-.14-.03-.2-.08l-2.71-2.44c-.59-.53-1.18-1.14-1.69-1.67-.11-.12-.11-.31,0-.42.12-.11.31-.11.42,0,.5.52,1.09,1.13,1.66,1.64l2.71,2.44c.12.11.13.3.02.42-.06.07-.14.1-.22.1ZM549.07,579.71c-.05,0-.1-.01-.15-.04-.14-.08-.19-.27-.11-.41.49-.83.94-1.69,1.36-2.55.06-.13.21-.2.35-.16.93.25,1.85.72,2.83,1.43.13.1.16.29.07.42-.1.13-.29.16-.42.07-.83-.61-1.62-1.02-2.4-1.27-.39.8-.82,1.59-1.27,2.36-.06.09-.16.15-.26.15Z"/>
    <path class="cls-1" d="M445.06,519.95c-.09,0-.18-.04-.24-.12-.95-1.25-1.58-2.89-2.19-4.47-.13-.34-.26-.68-.39-1.01-.06-.15.01-.33.17-.39.15-.06.33.01.39.17.13.33.26.68.4,1.02.59,1.54,1.2,3.14,2.1,4.32.1.13.08.32-.06.42-.05.04-.12.06-.18.06ZM449.2,518.64c-.07,0-.13-.02-.19-.07-.13-.11-.15-.29-.04-.42,1.24-1.51,2.41-3.03,3.7-4.71.1-.13.29-.16.42-.06.13.1.16.29.06.42-1.29,1.69-2.46,3.21-3.71,4.73-.06.07-.15.11-.23.11ZM456.22,509.27c-.13,0-.25-.09-.29-.22-.47-1.72-1.39-3.4-2.79-5.11-.1-.13-.09-.32.04-.42.13-.1.32-.09.42.04,1.39,1.69,2.31,3.35,2.83,5.06,1.41-1.73,2.66-3.13,3.93-4.41.12-.12.31-.12.42,0,.12.12.12.31,0,.42-1.28,1.29-2.54,2.7-3.97,4.46-.09.11-.25.14-.37.08-.04.05-.09.08-.15.1-.03,0-.05.01-.08.01ZM439.83,509.17c-.1,0-.2-.05-.26-.15-1.05-1.82-2.2-3.58-3.18-5.06-.09-.14-.05-.32.08-.42.14-.09.32-.05.42.08.99,1.49,2.14,3.27,3.2,5.1.08.14.03.33-.11.41-.05.03-.1.04-.15.04ZM465.09,500.78c-.09,0-.18-.04-.24-.12-.1-.13-.07-.32.06-.42.72-.53,1.46-1.04,2.22-1.51-.33-.75-.82-1.49-1.52-2.25-.11-.12-.1-.31.02-.42.12-.11.31-.1.42.02.81.9,1.38,1.77,1.72,2.67.05.13,0,.29-.12.36-.81.5-1.61,1.05-2.39,1.62-.05.04-.12.06-.18.06ZM449.12,499.81c-.07,0-.14-.02-.2-.07-.68-.59-1.36-1.16-2.04-1.73-.89-.74-1.73-1.45-2.53-2.17-.12-.11-.13-.3-.02-.42.11-.12.3-.13.42-.02.8.71,1.64,1.41,2.52,2.16.68.57,1.37,1.15,2.04,1.73.13.11.14.3.03.42-.06.07-.14.1-.23.1ZM433.35,499.08c-.1,0-.2-.05-.25-.14-1.03-1.6-2.07-3.26-3.2-5.08-.09-.14-.04-.33.1-.41.14-.09.33-.04.41.1,1.13,1.82,2.17,3.48,3.2,5.07.09.14.05.32-.09.41-.05.03-.11.05-.16.05ZM461.27,492.7c-.06,0-.13-.02-.18-.06-.58-.45-1.26-.98-1.84-1.5l-2.71-2.44c-.12-.11-.13-.3-.02-.42.11-.12.3-.13.42-.02l2.71,2.44c.57.51,1.23,1.03,1.81,1.47.13.1.16.29.05.42-.06.08-.15.12-.24.12ZM440.38,491.62c-.08,0-.16-.03-.22-.1-1.26-1.41-2.56-2.89-3.95-4.53-.11-.13-.09-.32.03-.42.13-.11.32-.09.42.03,1.39,1.63,2.68,3.11,3.94,4.51.11.12.1.31-.02.42-.06.05-.13.08-.2.08ZM427.02,488.9c-.1,0-.2-.05-.26-.14-1.04-1.71-2.07-3.42-3.1-5.14-.09-.14-.04-.33.1-.41.14-.09.33-.04.41.1,1.03,1.71,2.06,3.43,3.1,5.14.09.14.04.33-.1.41-.05.03-.1.04-.16.04ZM452.27,484.76c-.07,0-.14-.03-.2-.08l-4.46-4.01c-.12-.11-.13-.3-.02-.42.11-.12.3-.13.42-.02l4.46,4.01c.12.11.13.3.02.42-.06.07-.14.1-.22.1ZM432.59,482.5c-.09,0-.17-.04-.23-.11-1.27-1.54-2.54-3.09-3.8-4.64-.1-.13-.09-.32.04-.42.13-.1.32-.08.42.04,1.26,1.55,2.53,3.1,3.8,4.64.11.13.09.32-.04.42-.06.05-.12.07-.19.07ZM420.82,478.62c-.1,0-.2-.05-.26-.14-.98-1.62-1.96-3.24-2.95-4.86l-.16-.26c-.09-.14-.04-.33.1-.41.14-.09.33-.04.41.1l.16.27c.99,1.62,1.97,3.24,2.95,4.86.09.14.04.33-.1.41-.05.03-.1.04-.15.04ZM443.35,476.74c-.07,0-.14-.03-.2-.08-1.42-1.27-2.9-2.55-4.54-3.9-.13-.11-.15-.29-.04-.42.11-.13.29-.15.42-.04,1.64,1.36,3.14,2.64,4.56,3.91.12.11.13.3.02.42-.06.07-.14.1-.22.1ZM424.99,473.22c-.09,0-.17-.04-.23-.11-.97-1.18-1.94-2.35-2.92-3.52-.3-.36-.61-.73-.92-1.09-.11-.13-.09-.32.04-.42.13-.11.32-.09.42.04.31.36.61.73.92,1.09.98,1.17,1.95,2.34,2.92,3.52.11.13.09.32-.04.42-.06.05-.12.07-.19.07ZM434.12,469.09c-.06,0-.13-.02-.18-.06-1.38-1.07-2.89-2.23-4.76-3.64-.13-.1-.16-.29-.06-.42.1-.13.29-.16.42-.06,1.87,1.41,3.39,2.57,4.77,3.65.13.1.15.29.05.42-.06.08-.15.12-.24.12ZM414.36,468.52c-.09,0-.19-.04-.24-.13-1.07-1.5-2.21-3.02-3.31-4.49l-.25-.33c-.1-.13-.07-.32.06-.42.13-.1.32-.07.42.06l.25.33c1.1,1.47,2.24,3,3.32,4.5.1.13.07.32-.07.42-.05.04-.11.06-.17.06ZM417.24,464.06c-.08,0-.17-.03-.23-.1-1.29-1.46-2.63-2.97-3.99-4.47-.11-.12-.1-.31.02-.42.12-.11.31-.1.42.02,1.37,1.5,2.71,3.01,4,4.48.11.12.1.31-.03.42-.06.05-.13.07-.2.07ZM424.56,461.84c-.06,0-.13-.02-.18-.06-1.45-1.09-2.89-2.18-4.33-3.28l-.45-.35c-.13-.1-.15-.29-.05-.42.1-.13.29-.15.42-.05l.45.35c1.43,1.1,2.88,2.19,4.32,3.28.13.1.16.29.06.42-.06.08-.15.12-.24.12ZM407.25,458.86c-.09,0-.19-.04-.24-.13-1.3-1.84-2.39-3.48-3.33-5.01-.09-.14-.04-.33.1-.41.14-.09.33-.04.41.1.93,1.53,2.01,3.15,3.31,4.98.1.13.06.32-.07.42-.05.04-.11.06-.17.06ZM409.18,455.18c-.08,0-.16-.03-.22-.1-1.37-1.46-2.74-2.91-4.12-4.35-.11-.12-.11-.31,0-.42.12-.12.31-.11.42,0,1.38,1.44,2.76,2.89,4.13,4.36.11.12.11.31-.01.42-.06.05-.13.08-.2.08ZM415.14,454.41c-.07,0-.13-.02-.19-.07-1.38-1.13-3.02-2.45-4.73-3.66-.14-.1-.17-.28-.07-.42.1-.14.28-.17.42-.07,1.72,1.22,3.37,2.55,4.76,3.68.13.11.15.29.04.42-.06.07-.15.11-.23.11ZM401.09,448.58c-.11,0-.22-.06-.27-.17-.44-.96-.84-1.93-1.19-2.87-.06-.16.02-.33.18-.38.16-.06.33.02.38.18,0,.02.01.04.02.06.06-.03.12-.03.19-.02,1.64.34,3.28.9,4.99,1.72.15.07.21.25.14.4-.07.15-.25.21-.4.14-1.36-.65-2.66-1.13-3.95-1.47.02.09-.01.2-.09.27-.12.12-.31.11-.42,0l-.09-.09c.24.61.51,1.22.79,1.83.07.15,0,.33-.15.4-.04.02-.08.03-.13.03Z"/>
  </g>
  <g>
    <path class="cls-1" d="M553.29,526.28c-.07,0-.13-.02-.19-.07-.13-.11-.15-.29-.04-.42.94-1.14,1.61-2.72,2.26-4.24.15-.34.29-.68.44-1.01.07-.15.24-.22.4-.15.15.07.22.24.15.4-.14.33-.29.66-.43,1-.67,1.56-1.35,3.17-2.35,4.38-.06.07-.14.11-.23.11ZM549.2,524.82c-.09,0-.18-.04-.24-.12-1.19-1.57-2.3-3.13-3.53-4.86-.1-.14-.06-.32.07-.42.13-.1.32-.06.42.07,1.22,1.73,2.33,3.29,3.52,4.84.1.13.07.32-.06.42-.05.04-.12.06-.18.06ZM558.92,515.71c-.05,0-.11-.01-.16-.05-.14-.09-.18-.27-.09-.41,1.12-1.79,2.34-3.51,3.39-4.97.1-.13.28-.17.42-.07.13.1.17.28.07.42-1.04,1.45-2.25,3.17-3.37,4.94-.06.09-.15.14-.25.14ZM542.54,515.19s-.06,0-.09-.01c-.06-.02-.11-.06-.15-.1-.13.06-.28.03-.37-.09-1.36-1.81-2.57-3.27-3.79-4.6-.11-.12-.1-.31.02-.42.12-.11.31-.1.42.02,1.22,1.33,2.42,2.78,3.76,4.56.58-1.69,1.57-3.31,3.02-4.95.11-.12.3-.14.42-.03.12.11.14.3.03.42-1.47,1.66-2.44,3.3-2.98,5.01-.04.13-.16.21-.29.21ZM533.99,506.37c-.07,0-.13-.02-.19-.07-.75-.6-1.54-1.18-2.33-1.71-.12-.08-.17-.24-.11-.37.38-.88.98-1.73,1.82-2.6.12-.12.31-.12.42,0,.12.12.12.31,0,.42-.72.74-1.25,1.46-1.6,2.19.73.5,1.46,1.04,2.16,1.6.13.1.15.29.05.42-.06.07-.15.11-.23.11ZM549.99,506.01c-.09,0-.17-.04-.23-.11-.1-.13-.08-.32.05-.42.7-.56,1.41-1.11,2.11-1.65.91-.71,1.77-1.38,2.6-2.06.13-.1.32-.09.42.04.11.13.09.32-.04.42-.83.69-1.7,1.36-2.62,2.07-.7.54-1.4,1.09-2.1,1.65-.06.04-.12.07-.19.07ZM565.78,505.88c-.06,0-.12-.02-.17-.05-.14-.09-.17-.28-.07-.42,1.08-1.55,2.18-3.16,3.38-4.95.09-.14.28-.17.42-.08.14.09.17.28.08.42-1.2,1.79-2.31,3.41-3.39,4.95-.06.08-.15.13-.25.13ZM538.12,498.44c-.09,0-.19-.04-.24-.13-.1-.14-.06-.32.07-.42.59-.42,1.27-.91,1.86-1.4l2.8-2.33c.13-.11.32-.09.42.04.11.13.09.32-.04.42l-2.8,2.33c-.6.5-1.3,1.01-1.9,1.43-.05.04-.11.06-.17.06ZM559.03,498.15c-.07,0-.15-.03-.21-.08-.12-.12-.12-.3,0-.42,1.31-1.36,2.65-2.78,4.1-4.36.11-.12.3-.13.42-.02.12.11.13.3.02.42-1.45,1.58-2.8,3.01-4.11,4.37-.06.06-.14.09-.22.09ZM572.49,495.93c-.06,0-.11-.02-.16-.05-.14-.09-.18-.28-.09-.42,1.1-1.67,2.2-3.34,3.29-5.01.09-.14.28-.18.41-.09.14.09.18.28.09.42-1.09,1.67-2.19,3.35-3.29,5.02-.06.09-.15.13-.25.13ZM547.41,490.85c-.09,0-.17-.04-.23-.11-.11-.13-.09-.32.04-.42l4.61-3.84c.13-.11.32-.09.42.04.11.13.09.32-.04.42l-4.61,3.84c-.06.05-.12.07-.19.07ZM567.16,489.33c-.07,0-.14-.02-.2-.08-.12-.11-.13-.3-.02-.42,1.33-1.49,2.65-2.99,3.97-4.49.11-.12.3-.14.42-.03.12.11.14.3.03.42-1.32,1.5-2.64,3-3.97,4.5-.06.07-.14.1-.22.1ZM579.06,485.9c-.06,0-.11-.02-.16-.05-.14-.09-.18-.28-.09-.42,1.04-1.59,2.08-3.17,3.13-4.75l.17-.26c.09-.14.28-.17.42-.08.14.09.17.28.08.42l-.17.26c-1.05,1.58-2.09,3.16-3.13,4.75-.06.09-.15.14-.25.14ZM556.62,483.17c-.09,0-.17-.04-.23-.11-.11-.13-.09-.32.04-.42,1.47-1.22,3.01-2.45,4.7-3.74.13-.1.32-.08.42.06.1.13.08.32-.06.42-1.69,1.29-3.22,2.51-4.68,3.72-.06.05-.12.07-.19.07ZM575.1,480.34c-.07,0-.14-.02-.2-.08-.12-.11-.14-.3-.03-.42,1.01-1.14,2.03-2.28,3.05-3.41l.96-1.06c.11-.12.3-.13.42-.02.12.11.13.3.02.42l-.96,1.05c-1.02,1.13-2.04,2.27-3.05,3.41-.06.07-.14.1-.22.1ZM585.9,476.05c-.06,0-.13-.02-.18-.06-.13-.1-.15-.29-.05-.42,1.13-1.45,2.32-2.93,3.47-4.35l.28-.34c.1-.13.29-.15.42-.05.13.1.15.29.05.42l-.28.34c-1.15,1.42-2.33,2.89-3.46,4.34-.06.08-.15.12-.24.12ZM566.14,475.87c-.09,0-.19-.04-.24-.12-.1-.13-.07-.32.07-.42,1.41-1.02,2.97-2.12,4.9-3.47.14-.09.32-.06.42.07.09.14.06.32-.07.42-1.93,1.34-3.48,2.44-4.89,3.46-.05.04-.11.06-.17.06ZM583.2,471.48c-.07,0-.15-.03-.21-.08-.12-.11-.13-.3-.01-.42,1.34-1.42,2.74-2.87,4.17-4.32.12-.12.31-.12.42,0,.12.12.12.31,0,.42-1.42,1.45-2.82,2.9-4.16,4.32-.06.06-.14.09-.22.09ZM575.96,468.98c-.09,0-.19-.04-.25-.13-.09-.14-.06-.32.07-.42,1.49-1.03,2.97-2.07,4.44-3.12l.46-.33c.13-.1.32-.07.42.07.1.13.07.32-.07.42l-.46.33c-1.48,1.05-2.96,2.08-4.45,3.12-.05.04-.11.05-.17.05ZM593.37,466.66c-.06,0-.13-.02-.18-.06-.13-.1-.16-.29-.06-.42,1.36-1.78,2.51-3.36,3.49-4.85.09-.14.28-.18.42-.08.14.09.18.28.08.42-1,1.5-2.15,3.1-3.52,4.88-.06.08-.15.12-.24.12ZM591.59,462.91c-.08,0-.15-.03-.21-.09-.12-.12-.12-.31,0-.42,1.42-1.41,2.85-2.81,4.29-4.2.12-.11.31-.11.42,0,.12.12.11.31,0,.42-1.43,1.39-2.86,2.79-4.28,4.2-.06.06-.13.09-.21.09ZM585.66,461.92c-.09,0-.18-.04-.24-.12-.1-.13-.07-.32.06-.42,1.43-1.09,3.13-2.35,4.9-3.5.14-.09.32-.05.42.09.09.14.05.32-.09.42-1.75,1.14-3.44,2.4-4.86,3.48-.05.04-.12.06-.18.06ZM599.92,456.62s-.09-.01-.14-.03c-.15-.07-.21-.26-.13-.4.3-.6.59-1.2.86-1.8l-.1.09c-.12.11-.31.11-.42-.01-.07-.07-.1-.18-.08-.27-1.31.28-2.63.72-4.01,1.32-.15.07-.33,0-.39-.16-.07-.15,0-.33.16-.39,1.75-.76,3.4-1.26,5.05-1.53.07-.01.13,0,.19.03,0-.02.02-.04.02-.06.06-.15.24-.23.39-.16.15.06.23.24.16.39-.38.93-.82,1.88-1.3,2.82-.05.1-.16.16-.27.16Z"/>
    <path class="cls-1" d="M380.03,634.81c-.14,0-.26-.1-.29-.24-.03-.16.07-.32.23-.36.02,0,.04,0,.06-.01-.02-.06-.02-.13,0-.19.57-1.58,1.36-3.11,2.42-4.69.09-.14.28-.17.42-.08.14.09.17.28.08.42-.84,1.25-1.5,2.47-2.02,3.7.1,0,.19.04.25.12.1.13.07.32-.07.42l-.11.08c.63-.15,1.28-.33,1.92-.52.16-.05.33.04.37.2.05.16-.04.33-.2.37-1.02.3-2.03.56-3.01.77-.02,0-.04,0-.06,0ZM388.65,631.99c-.12,0-.23-.07-.28-.18-.07-.15,0-.33.16-.39,1.64-.7,3.41-1.54,5.4-2.56.15-.08.33-.02.4.13.08.15.02.33-.13.4-2.01,1.03-3.78,1.87-5.44,2.58-.04.02-.08.02-.12.02ZM385.8,630.45c-.09,0-.19-.04-.24-.13-.1-.13-.07-.32.07-.42,1.62-1.16,3.26-2.31,4.9-3.46.14-.09.32-.06.42.07.09.14.06.32-.07.42-1.64,1.14-3.28,2.3-4.9,3.45-.05.04-.11.06-.17.06ZM399.36,626.61c-.11,0-.21-.06-.26-.16-.08-.15-.03-.33.12-.41l.37-.2c1.61-.88,3.28-1.78,4.92-2.63.15-.08.33-.02.4.13.08.15.02.33-.13.4-1.63.85-3.3,1.75-4.91,2.63l-.37.2s-.09.04-.14.04ZM386.49,625.15c-.07,0-.15-.03-.21-.08-.12-.11-.13-.3-.01-.42,1.45-1.53,3-2.97,4.33-4.18.12-.11.31-.1.42.02.11.12.1.31-.02.42-1.32,1.2-2.86,2.64-4.3,4.15-.06.06-.14.09-.22.09ZM395.65,623.6c-.1,0-.19-.05-.25-.13-.09-.14-.06-.32.08-.42,1.68-1.13,3.36-2.25,5-3.32.14-.09.32-.05.41.09.09.14.05.32-.09.42-1.64,1.07-3.32,2.18-5,3.31-.05.03-.11.05-.17.05ZM410.05,621.17c-.12,0-.23-.07-.27-.18-.07-.15,0-.33.15-.4l.29-.12c1.74-.75,3.49-1.49,5.24-2.23.15-.06.33,0,.39.16.06.15,0,.33-.16.39-1.75.74-3.49,1.48-5.23,2.22l-.28.12s-.08.03-.12.03ZM405.71,617.06c-.1,0-.2-.05-.25-.14-.09-.14-.04-.33.1-.41.4-.25.81-.5,1.21-.75,1.3-.8,2.6-1.6,3.9-2.39.14-.09.33-.04.41.1.09.14.04.33-.1.41-1.3.79-2.6,1.58-3.9,2.38-.4.25-.81.5-1.21.75-.05.03-.1.05-.16.05ZM395.22,616.92c-.08,0-.16-.03-.22-.09-.11-.12-.11-.31,0-.42l.41-.39c1.3-1.26,2.58-2.53,3.87-3.81.12-.12.31-.12.42,0,.12.12.12.31,0,.42-1.29,1.28-2.57,2.55-3.87,3.81l-.41.4c-.06.06-.13.08-.21.08ZM421.1,616.5c-.12,0-.23-.07-.28-.18-.06-.15,0-.33.16-.39,1.84-.77,3.69-1.55,5.53-2.33.15-.06.33,0,.39.16.06.15,0,.33-.16.39-1.84.78-3.68,1.56-5.53,2.33-.04.02-.08.02-.12.02ZM432.14,611.8c-.12,0-.23-.07-.27-.18-.07-.15,0-.33.15-.39,1.97-.86,3.76-1.65,5.48-2.44.15-.07.33,0,.4.15.07.15,0,.33-.15.4-1.72.78-3.52,1.58-5.48,2.44-.04.02-.08.02-.12.02ZM415.96,610.83c-.1,0-.2-.05-.26-.15-.09-.14-.04-.33.1-.41,1.71-1.03,3.43-2.06,5.14-3.1.14-.09.33-.04.41.1.09.14.04.33-.1.41-1.71,1.04-3.42,2.07-5.14,3.1-.05.03-.1.04-.15.04ZM403.75,608.49c-.08,0-.15-.03-.21-.09-.12-.12-.12-.31,0-.42,1.67-1.65,3.03-2.98,4.29-4.2.12-.11.31-.11.42,0,.11.12.11.31,0,.42-1.26,1.21-2.62,2.54-4.29,4.19-.06.06-.13.09-.21.09ZM443.05,606.81c-.11,0-.22-.06-.27-.17-.07-.15,0-.33.14-.4,1.62-.76,3.54-1.65,5.5-2.43.15-.06.33.01.39.17.06.15-.01.33-.17.39-1.95.78-3.86,1.66-5.47,2.42-.04.02-.08.03-.13.03ZM426.2,604.58c-.1,0-.2-.05-.25-.14-.09-.14-.05-.33.09-.41,1.81-1.14,3.46-2.2,5.03-3.25.14-.09.32-.05.42.08.09.14.05.32-.08.42-1.58,1.05-3.23,2.11-5.04,3.26-.05.03-.1.05-.16.05ZM454.22,602.49c-.14,0-.26-.09-.29-.23-.04-.16.06-.32.22-.36.35-.08.71-.16,1.07-.25,1.61-.36,3.28-.74,4.58-1.46.15-.08.33-.03.41.12.08.14.03.33-.12.41-1.37.76-3.08,1.15-4.74,1.52-.36.08-.72.16-1.06.24-.02,0-.05,0-.07,0ZM412.42,600.2c-.08,0-.16-.03-.22-.1-.11-.12-.1-.31.02-.42,1.58-1.43,3.06-2.73,4.53-3.95.13-.11.32-.09.42.04.11.13.09.32-.04.42-1.46,1.22-2.94,2.51-4.51,3.94-.06.05-.13.08-.2.08ZM436.1,597.81c-.09,0-.17-.04-.23-.11-.11-.13-.09-.32.04-.42.82-.69,1.63-1.42,2.49-2.18.66-.59,1.33-1.19,2.01-1.78.13-.11.31-.09.42.03.11.13.09.31-.03.42-.68.59-1.35,1.18-2,1.77-.86.77-1.68,1.5-2.51,2.2-.06.05-.12.07-.19.07ZM459.24,596.47c-.08,0-.16-.03-.22-.1-1.31-1.44-2.65-2.81-4.13-4.33-.12-.12-.11-.31,0-.42.12-.12.31-.11.42,0,1.49,1.52,2.83,2.9,4.15,4.35.11.12.1.31-.02.42-.06.05-.13.08-.2.08ZM421.55,592.42c-.09,0-.17-.04-.23-.11-.11-.13-.09-.32.04-.42l4.61-3.84c.13-.11.32-.09.42.04.11.13.09.32-.04.42l-4.61,3.84c-.06.05-.12.07-.19.07ZM445.4,590.25c-.1,0-.2-.05-.26-.15-.09-.14-.04-.33.1-.41,1.88-1.13,3.65-1.81,5.41-2.07-1.51-1.65-2.72-3.09-3.8-4.52-.1-.13-.07-.32.06-.42.13-.1.32-.07.42.06,1.09,1.45,2.31,2.9,3.84,4.56.1.11.1.27.02.38.04.04.07.1.08.16.02.16-.1.31-.26.34-1.77.22-3.56.89-5.46,2.03-.05.03-.1.04-.15.04ZM430.77,584.73c-.09,0-.17-.04-.23-.11-.11-.13-.09-.32.04-.42l2.8-2.33c.59-.49,1.17-1.05,1.72-1.58.12-.12.31-.11.42,0,.12.12.11.31,0,.42-.55.54-1.15,1.11-1.75,1.61l-2.8,2.33c-.06.05-.12.07-.19.07ZM443.85,578.18c-.11,0-.21-.06-.26-.16-.42-.79-.82-1.6-1.18-2.41-.79.22-1.59.6-2.44,1.18-.14.09-.32.06-.42-.08-.09-.14-.06-.32.08-.42,1-.68,1.95-1.11,2.88-1.32.14-.03.28.04.34.17.38.88.81,1.75,1.26,2.6.08.15.02.33-.12.41-.05.02-.09.04-.14.04Z"/>
  </g>
  <g>
    <path class="cls-1" d="M552.81,550.5l.04.11c-.05.36-.09.73-.14,1.09.58-.45,3.13-.28,4.06-.33,3.46-.2,6.9-.23,10.37-.14,7.63.19,15.23.5,22.87.46,15.04-.09,30.08.27,45.13.09,1.16-.01,1.16-1.81,0-1.8-15.82.19-31.62-.17-47.43-.08-8,.05-15.97-.46-23.97-.53-2.77-.02-5.52.11-8.28.28-1.23.08-2.99-.02-4.01.78-.34.26-.29.75-.14,1.09.13.28.33.41.6.53,1.04.49,1.96-1.06.91-1.55h0Z"/>
    <path class="cls-1" d="M546.76,526.99c6.56-.86,13.1,1.78,19.27,3.65,7.58,2.3,15.34,3.91,22.91,6.27,15.62,4.87,31.05,10.21,46.76,14.84,1.12.33,1.59-1.41.48-1.74-16.07-4.73-31.86-10.19-47.85-15.18-7.5-2.34-15.19-3.91-22.69-6.19-6.05-1.84-12.45-4.3-18.88-3.46-1.13.15-1.15,1.95,0,1.8h0Z"/>
    <path class="cls-1" d="M546.52,577.74c2.31.42,5.1-1.01,7.36-1.51,4.01-.88,8.03-1.74,12-2.78,8.2-2.14,16.32-4.75,24.44-7.16,7.75-2.3,15.41-4.84,23.08-7.39,3.92-1.3,7.83-2.62,11.71-4,3.93-1.4,7.84-3.37,12.01-3.91,1.13-.15,1.15-1.95,0-1.8-3.27.43-6.25,1.64-9.32,2.81-3.85,1.47-7.77,2.79-11.68,4.1-7.62,2.56-15.24,5.12-22.94,7.46-7.8,2.37-15.64,4.59-23.45,6.92-3.95,1.18-7.94,2.17-11.97,3.07-1.82.41-3.65.8-5.47,1.2-1.48.32-3.82,1.54-5.31,1.27-1.13-.21-1.62,1.53-.48,1.74h0Z"/>
  </g>
  <g>
    <path class="cls-1" d="M438.66,548.68c.27-.13.47-.25.6-.53.15-.34.19-.83-.14-1.09-.91-.71-2.36-.65-3.46-.74-2.56-.21-5.13-.29-7.7-.32-7.98-.08-15.96.57-23.95.53-16.2-.07-32.38.26-48.58.07-1.16-.01-1.16,1.79,0,1.8,15.05.18,30.08-.17,45.13-.09,7.26.04,14.48-.15,21.74-.42,3.75-.14,7.51-.13,11.25.09,1,.06,3.67-.15,4.3.35-.05-.36-.09-.73-.14-1.09.01-.04.03-.08.04-.11-1.05.49-.14,2.04.91,1.55h0Z"/>
    <path class="cls-1" d="M443.8,521.82c-6.42-.84-12.84,1.6-18.88,3.46-7.49,2.31-15.19,3.88-22.69,6.19-16,4.93-31.78,10.44-47.85,15.18-1.11.33-.64,2.06.48,1.74,15.7-4.63,31.15-9.91,46.76-14.84,7.29-2.3,14.73-3.91,22.06-6.02,6.49-1.86,13.23-4.81,20.12-3.91,1.15.15,1.13-1.65,0-1.8h0Z"/>
    <path class="cls-1" d="M443.56,572.63c-1.27.23-2.98-.75-4.22-1.03-1.82-.41-3.65-.8-5.47-1.2-4.01-.88-8.01-1.81-11.95-2.98-7.82-2.3-15.64-4.57-23.45-6.92-7.71-2.32-15.34-4.89-22.98-7.44-3.91-1.3-7.82-2.64-11.69-4.06-3.43-1.26-6.73-2.73-10.38-3.21-1.15-.15-1.13,1.65,0,1.8,3.81.5,7.37,2.21,10.95,3.53,3.87,1.42,7.79,2.73,11.7,4.03,8.02,2.67,16.04,5.33,24.15,7.75,7.78,2.32,15.55,4.67,23.36,6.87,3.95,1.12,7.98,1.96,11.99,2.83,1.75.38,3.53.72,5.25,1.23,1.21.36,1.95.75,3.21.52,1.14-.21.66-1.94-.48-1.74h0Z"/>
  </g>
  <g>
    <path class="cls-1" d="M472.34,604.01c-.63,5.52,1.21,10.99,2.9,16.16,2.03,6.22,3.54,12.56,5.42,18.83.33,1.11,2.07.64,1.74-.48-1.79-5.96-3.18-12.02-5.13-17.93-1.75-5.31-3.78-10.91-3.13-16.58.13-1.15-1.67-1.14-1.8,0h0Z"/>
    <path class="cls-1" d="M523.15,603.4c.21,1.05-.44,2.15-.72,3.14-.4,1.42-.6,2.94-.89,4.39-.59,2.93-1.18,5.86-1.84,8.77-1.4,6.18-3.29,12.27-4.96,18.38-.31,1.12,1.43,1.6,1.74.48,1.77-6.48,3.73-12.92,5.21-19.48.74-3.28,1.37-6.58,2.03-9.88.41-2.01,1.58-4.24,1.17-6.29-.23-1.14-1.96-.65-1.74.48h0Z"/>
  </g>
  <path class="cls-1" d="M489.68,437.77v.3c0,1.16,1.8,1.16,1.8,0v-.3c0-1.16-1.8-1.16-1.8,0h0Z"/>
  <path class="cls-1" d="M489.86,440.1c.12.51.16,1.03.13,1.55.59-.08,1.18-.16,1.77-.24-.12-.6-.22-1.19-.27-1.8-.09-.94-1.6-1.31-1.77-.24-.09.58-.19,1.16-.3,1.75h1.74c-.11-.34-.23-.67-.35-1.01-.26-.75-1.59-.96-1.74,0-.11.73-.16,1.38-.11,2.11.07,1.06,1.39,1.17,1.77.24.19-.48.34-.94.45-1.45-.55.07-1.1.14-1.64.21.64,1.33,1.62,2.22,2.75,3.14,1.16.94,1.91,2.22,2.99,3.23.74.69,1.94-.19,1.41-1.09-.49-.82-.9-1.65-1.5-2.4-.64-.79-2.01.26-1.41,1.09.57.79,1.19,1.48,1.94,2.11.89.74,2.04-.39,1.27-1.27-1.63-1.88-2.97-3.99-4.72-5.76-.7-.71-2.01.24-1.41,1.09,1.57,2.26,2.81,5.28,5.5,6.4.36.15.84-.09,1.02-.41,1.41-2.58,1.59-5.68,1.61-8.56.01-1.16-1.79-1.16-1.8,0-.03,2.55-.12,5.36-1.37,7.65.34-.14.68-.28,1.02-.41-2.08-.87-3.21-3.83-4.42-5.58-.47.36-.94.73-1.41,1.09,1.75,1.77,3.1,3.88,4.72,5.76.42-.42.85-.85,1.27-1.27-.63-.53-1.17-1.08-1.66-1.75-.47.36-.94.73-1.41,1.09.5.62.82,1.35,1.22,2.03.47-.36.94-.73,1.41-1.09-.95-.9-1.63-2.02-2.59-2.91-1.09-1.01-2.2-1.71-2.87-3.1-.34-.71-1.48-.51-1.64.21-.12.5-.26.97-.45,1.45.59.08,1.18.16,1.77.24-.06-.55-.05-1.09.05-1.64h-1.74c.12.33.23.67.35,1.01.26.77,1.56.94,1.74,0,.11-.58.21-1.16.3-1.75-.59-.08-1.18-.16-1.77-.24.07.77.18,1.52.34,2.28.21,1.02,1.76.75,1.77-.24,0-.71-.04-1.33-.19-2.02-.25-1.13-1.99-.65-1.74.48h0Z"/>
  <path class="cls-1" d="M557.76,532.69h-.6c-1.16,0-1.16,1.8,0,1.8h.6c1.16,0,1.16-1.8,0-1.8h0Z"/>
  <path class="cls-1" d="M556.26,540.48c1.16,0,1.16-1.8,0-1.8s-1.16,1.8,0,1.8h0Z"/>
  <path class="cls-1" d="M567.35,538.98c1.16,0,1.16-1.8,0-1.8s-1.16,1.8,0,1.8h0Z"/>
  <path class="cls-1" d="M566.45,544.68h.3c1.16,0,1.16-1.8,0-1.8h-.3c-1.16,0-1.16,1.8,0,1.8h0Z"/>
  <path class="cls-1" d="M585.35,545.58c1.16,0,1.16-1.8,0-1.8s-1.16,1.8,0,1.8h0Z"/>
  <path class="cls-1" d="M579.35,537.79c1.16,0,1.16-1.8,0-1.8s-1.16,1.8,0,1.8h0Z"/>
  <path class="cls-1" d="M597.34,544.38c1.16,0,1.16-1.8,0-1.8s-1.16,1.8,0,1.8h0Z"/>
  <path class="cls-1" d="M613.54,546.18c1.16,0,1.16-1.8,0-1.8s-1.16,1.8,0,1.8h0Z"/>
  <path class="cls-1" d="M480.72,493.73c.1-.1.2-.2.3-.3.35-.35.35-.93,0-1.27-.35-.35-.93-.35-1.27,0l-.3.3c-.35.35-.35.93,0,1.27.35.35.93.35,1.27,0h0Z"/>
  <path class="cls-1" d="M480.68,489.8c1.16,0,1.16-1.8,0-1.8s-1.16,1.8,0,1.8h0Z"/>
  <path class="cls-1" d="M481.58,479.9c1.16,0,1.16-1.8,0-1.8s-1.16,1.8,0,1.8h0Z"/>
  <path class="cls-1" d="M476.48,496.4c1.16,0,1.16-1.8,0-1.8s-1.16,1.8,0,1.8h0Z"/>
  <path class="cls-1" d="M436.59,538.09c1.16,0,1.16-1.8,0-1.8s-1.16,1.8,0,1.8h0Z"/>
  <path class="cls-1" d="M437.19,527.59c1.16,0,1.16-1.8,0-1.8s-1.16,1.8,0,1.8h0Z"/>
  <path class="cls-1" d="M423.1,536.59c1.16,0,1.16-1.8,0-1.8s-1.16,1.8,0,1.8h0Z"/>
  <path class="cls-1" d="M425.53,541.72c.37-.31.54-.76.56-1.24.02-.49-.43-.9-.9-.9-.51,0-.88.41-.9.9,0-.05.02-.08.05-.12-.07.17.07-.05-.09.08-.38.32-.32.95,0,1.27.37.37.9.31,1.27,0h0Z"/>
  <path class="cls-1" d="M407.5,541.68c1.16,0,1.16-1.8,0-1.8s-1.16,1.8,0,1.8h0Z"/>
  <path class="cls-1" d="M407.2,534.19c-.49.04-.93.16-1.35.42-.42.26-.58.8-.32,1.23.24.42.81.58,1.23.32.05-.04.11-.07.17-.1.1-.05.11-.06.05-.02.06-.02.12-.04.18-.05.11-.02.12-.02.05,0,.49-.04.9-.38.9-.9,0-.46-.41-.94-.9-.9h0Z"/>
  <path class="cls-1" d="M387.58,542.74l.3-.6c.22-.44.12-.97-.32-1.23-.4-.24-1.01-.12-1.23.32l-.3.6c-.22.44-.12.97.32,1.23.4.24,1.01.12,1.23-.32h0Z"/>
  <path class="cls-1" d="M378.15,545.02c.08-.08.08-.09,0-.04.14-.11.02,0-.05,0,.49-.02.9-.39.9-.9,0-.47-.41-.92-.9-.9-.48.02-.92.19-1.24.56-.31.38-.37.9,0,1.27.32.32.96.38,1.27,0h0Z"/>
  <path class="cls-1" d="M417.1,542.58c1.16,0,1.16-1.8,0-1.8s-1.16,1.8,0,1.8h0Z"/>
  <path class="cls-1" d="M424.6,528.79h.3c1.16,0,1.16-1.8,0-1.8h-.3c-1.16,0-1.16,1.8,0,1.8h0Z"/>
  <path class="cls-1" d="M512.17,609.46c1.16,0,1.16-1.8,0-1.8s-1.16,1.8,0,1.8h0Z"/>
  <path class="cls-1" d="M517.87,610.06c1.16,0,1.16-1.8,0-1.8s-1.16,1.8,0,1.8h0Z"/>
  <path class="cls-1" d="M513.37,613.66v.3c0,1.16,1.8,1.16,1.8,0v-.3c0-1.16-1.8-1.16-1.8,0h0Z"/>
  <path class="cls-1" d="M514.27,620.86v.3c0,1.16,1.8,1.16,1.8,0v-.3c0-1.16-1.8-1.16-1.8,0h0Z"/>
  <path class="cls-1" d="M485.18,499.7c1.16,0,1.16-1.8,0-1.8s-1.16,1.8,0,1.8h0Z"/>
  <path class="cls-1" d="M485.81,492.24c.37-.31.54-.76.56-1.24.02-.49-.43-.9-.9-.9-.51,0-.88.41-.9.9,0-.05.02-.08.05-.12-.07.17.07-.05-.09.08-.38.32-.32.95,0,1.27.37.37.9.31,1.27,0h0Z"/>
  <path class="cls-1" d="M484.28,484.1c1.16,0,1.16-1.8,0-1.8s-1.16,1.8,0,1.8h0Z"/>
</svg>