<svg xmlns="http://www.w3.org/2000/svg" id="Calque_2" data-name="Calque 2" viewBox="342.63 318.09 314.77 363.84">
  <defs>
    <style>
      .cls-1 {
        fill: #303d3c;
        stroke-width: 0px;
      }
    </style>
  </defs>
  <path class="cls-1" d="M418.88,500.22c-3.53,10.02-8.12,15.93-5.32,15.93.87.02.64-.18,3.39-6.29h0c1.05-2.36,2.5-5.49,3.74-8.99.41-1.19-1.37-1.84-1.81-.64Z"/>
  <path class="cls-1" d="M512.01,352.01h0c6.95-3.34,11.99-10.51,11.5-17.66-.49-7.15-6.28-13.74-13.62-16.26,1.93,1.53,2.57,4.09,2.26,6.39-1.12,8.01-12.34,13.59-.13,27.53Z"/>
  <polygon class="cls-1" points="549.21 422.7 549.21 422.7 549.21 422.7 549.21 422.7"/>
  <path class="cls-1" d="M549.21,422.7l.66-1.1c1.25-5.63,4.96-10.64,10.41-13.51-7.86,3.26-12.95-8.68-11.76-18.65-4.89,3.82-7.23,9.77-5.6,15.47,1.76,6.03,7.63,11.35,6.29,17.79Z"/>
  <path class="cls-1" d="M607.08,595.7h0c1.6-1.27,2.36-3.06,2.17-5.02-.16-1.7-1-3.26-1.81-4.79-.41-.77-1.12-1.81-2.55-1.84h-.08c-1.3,0-2.32.87-2.82,1.63-2.08,3.21.33,6.39,3.29,5.29,1.12-.43,1.48-1.65.58-2.21-.43-.26-.84.38-.41.66.38.23-.03.68-.44.84-2.31.87-4.02-1.61-2.37-4.15.96-1.47,3-1.99,4.15.16,1.7,3.2,2.98,6.33-.17,8.86-1.65,1.32-4.38,1.89-6.34,1.35-3.76-1.07-8.2-8.34-4.94-15.53,1.81-4.04,4.71-2.59,4.69-3.54,0-.99-3.82-.31-5.4,3.21-4.65,10.21,4.76,21.27,12.45,15.09Z"/>
  <path class="cls-1" d="M476.3,578.63s.1,0,.16-.03c.2-.08.28-.31.2-.51-1.1-2.47-3.76-4.73-8.32-7.1-3.25-1.68-6.95-3.21-9.95-5.19,2.01-.59,3.18-2.03,3.38-3.62.2-1.68-.91-5.06-2.09-6.21-4.48-4.37-11.83,2.5-3.25,9.36-7.96.21-19.19-12.42-12.49-23.97.25-.43-.4-.82-.66-.38-7.26,12.52,5.5,26.34,14.07,25.06h0c8.65,5.02,4.93,2.69,10.62,5.65,8.5,4.41,7.41,6.95,8.32,6.95ZM456.22,555.49h0c1.1-.08,2.26.38,2.93,1.04,1.02,1,2.03,4.15,1.86,5.57-.16,1.4-1.3,2.73-3.46,3.13-6.24-4.55-4.81-9.49-1.33-9.74Z"/>
  <path class="cls-1" d="M570.31,631.36c-8.12-3.03-24.23-5.22-31.46-17.86-.25-.44-.92-.07-.66.38,7.5,13.1,24.18,15.34,31.84,18.2h0c9.37,3.49,8.6,6.98,9.54,6.98.05,0,.1,0,.15-.03.89-.36-1.22-4.63-9.41-7.68Z"/>
  <path class="cls-1" d="M443.78,629.06c3.87.26,8.99-1.42,10.38-4.81h0c.53-1.28.44-2.6.36-3.87-.05-.84-.1-1.65.02-2.44.41-2.77,3.05-5.32,6.69-6.75,3.49,5.93,11.19,5.01,12.12,2.08.44-1.37-.73-2.87-2.78-3.56-2.7-.91-6.31-.4-8.99.54-3.97-7.84,4.69-14.5,14.13-15.7.49-.07.41-.82-.1-.76-9.87,1.25-18.91,8.29-14.74,16.74-3.85,1.55-6.64,4.32-7.08,7.31-.31,2.14.43,4.22-.35,6.13-1.07,2.64-5.42,4.56-9.6,4.33-.53.02-.53.74-.05.76ZM470.33,610.43h0c1.61.54,2.6,1.66,2.31,2.6-.79,2.42-7.5,3.06-10.67-2.11,2.49-.86,5.88-1.33,8.37-.49Z"/>
  <path class="cls-1" d="M417.57,639.45h0c-.48.03-.48.76.07.76,11.12-.87,22.78,2.67,29.04,8.75.33.35.91-.18.53-.54-6.41-6.23-18.35-9.83-29.64-8.96Z"/>
  <path class="cls-1" d="M495.44,554.46h0c2.69,1.8,6.1,2.64,8.93,2.42.49-.03.46-.76-.03-.76-.87-.1-4.5.4-8.48-2.29-2.08-1.4-3.48-3.13-4.94-5.32-9.24-13.74-8.1-22.01-9.41-21.91-.21.03-.35.23-.31.44,1.35,7.56,4.4,14.93,9.08,21.88,1.52,2.26,2.98,4.07,5.17,5.53Z"/>
  <path class="cls-1" d="M525.99,620.7h0c4.3-4.78,6.03-10.77,3.71-17.17-.64-1.8-1.25-3.51-.08-4.93,2.65-3.25,10.35-2.17,14.99-3.53,2.39-.69,5.12-2.65,4.15-4.84-.21-.48-.91-.15-.71.31.76,1.65-1.76,3.25-3.66,3.81-2.5.72-5.44.72-8.12,1-2.49.26-5.78.96-7.25,2.77-1.45,1.76-.71,3.84-.05,5.68.08.25.16.48.25.72,1.78,5.29.4,11-3.81,15.68-.35.35.25.84.58.48Z"/>
  <path class="cls-1" d="M640.93,612.35c-4.35-1.89-8.34-1.71-12.64.84-8.68-2.26-23.42-3.53-38.4-1.55,8.22-3.08,9.18-3.56,16.77-6.67.51-.12,1.09-.08,1.56-.26,3.34-1.24,5.93-3.95,6.95-7.28.92-3.05.48-6.14-.08-8.75-3.92-18.48-17.61-19.59-18.47-20.26-2.31-.71-4.07-1.1-5.8.56-3.05,1.4-5.12,2.41-8.96,4.05,1.27-6.39.21-12.83-.84-17.26-.3-1.25-2.16-.77-1.86.44,1.71,7.22,1.89,12.87.63,17.76-10.2,4.81-20.9,9.37-31.88,13.54-.76-.4-1.43-.82-2.11-1.27.16-1.15.21-2.42.12-3.77.03-.03-.44.3,3.57-2.29.76-.48.49-1.65-.4-1.76-3.62-.48-3.01-.33-3.79-.41-.38-1.8-.25-1.12-.43-1.91,1.75-2.32,6.01-7.76,4.88-10.18-.3-2.11-3.51-3.29-5.58-3.84,1.86-6.31,3.82-12.67,7.76-18.07,3.21-4.69,7.79-8.45,11.45-12.73,8.9-10.36,12.9-24,11.04-37,2.16,4.35,2.17,9.95,1.63,14.23-1.56,13.56-6.62,15.04.74,39.27.38,1.22,2.21.64,1.83-.56-7.17-23.62-2.17-25.3-.68-38.48.68-5.29.68-12.6-3.05-17.58-.79-2.34-2.82-2.42-2.87-1.04-.31,12.75-6.72,26.28-17.21,36.46-5.98-24.3,23.61-43.85,14.74-77.93-2.93-10.58-10.26-18.83-19.39-25.09-.71-.48-1.7.16-1.47,1.04,3.43,12.67,1.61,27.05-4.96,40.01,1.09-64.24-49.37-86.01-40.61-110.42.43-1.15-1.32-1.86-1.8-.68-2.04,5.21-4.71,8.95-8.22,13.82-11.89,16.61-12.11,22.24-4.84,38.37,1.45,3.23,2.97,6.56,3.87,9.92,2.82,10.28.31,21.73-6.36,29.7-4.63-17.33-18.3-30.18-34.96-36.6-1.05-.38-1.8,1.02-.92,1.66,18.33,13.69,23.89,35.88,15.48,54.94-2.96,6.94-8.25,13.61-8.38,22.63-9.06-15.67-20.34-31.3-38.02-36.85,5.07-6.33,5.32-14.28,1.24-20.2-2.42-3.53-6.69-6.59-6.9-10.97-.1-2.14,1.09-4.45,3.26-5.24-4.05,1.02-7.07,4.46-7.89,8.24-1.83,8.34,4.88,19.98,10.82,26.39l-.61,1.76c-4.5-1.4-9.42-2.08-14.69-1.48-.35.03-.63.25-.77.56-.63,1.43,6.95,8.32,12.73,19.31,7.48,14.55,3.43,19.47,5.98,19.49.53,0,.96-.43.96-.96.05-12.77-7.2-23.9-14.56-33.44,13.01,2.9,24.59,10.77,32.86,20.53,10.2,12.11,15.91,26.74,20.15,41.46-8.01-32.7,34.77-68.25.61-99.79,11.37,7.43,19.37,18.43,22.16,30.77.18.77,1.12.99,1.63.44,8.02-8.47,11.17-21.37,8.01-32.86-.96-3.49-2.49-6.9-3.97-10.2-9.19-20.43-4.1-22.88,8.42-41.92-5.95,21.73,11.89,40.62,21.53,57.39,13.39,23.08,17.74,50.34,12.14,75.81,15.96-21.99,29.27-42.43,20.82-68.1,7.56,6.09,12.59,13.16,14.78,21.04,7.87,30.26-15.16,47.35-15.52,70.38-5.16,23.72-7.87,35.22-8.19,42.53-.25-.07-.46-.16-.71-.21-.63-.16-1.19-.28-1.76-.41-.3-5.83,4.68-15.75-.07-22.19-.16-.44-.48-.84-.91-1.17-.59-.46-1.52-.05-1.53.74-.13,7.05-3.64,14.51-9.32,20.26-1.2-6.42,1.61-11.28,1.71-12.27,4.15-10,4.94-8.43,16.51-27.33.33-.54.16-1.22-.97-1.66-2.54-1.84-5.67-3.41-9.08-4.83-2.95-8.37-10.2-12.68-10.97-13.43-.74-.53-1.71.16-1.48,1.02.77,2.85,1.05,5.86.96,8.95-1.52-.28-3.1-.46-4.66-.64-1.83-8.93-5.65-17.66-11.15-25.3-3.49-4.83-13.85-16.13-11.07-23.92.03-.07.05-.13.08-.2.41-1.17-1.32-1.84-1.8-.69-.43,1.07-.12.33-.99,2.19-.63.59.43-.12-3.85,5.9-6.95,9.78-7.07,13.24-2.8,22.72,2.62,5.82,4.55,11.47,1.05,18.85-1.12-.12-2.22-.21-3.36-.26-3.61-8.2-10.56-14.02-19.09-17.33-1.04-.41-1.81,1-.92,1.66,5.77,4.23,9.52,10.41,10.58,16.19-4.5.63-8.86,1.68-12.62,3.39-.33.15-.54.48-.56.84-.15,5.21.51,10.44,1.78,15.67-6.19-8.35-15.39-15.14-25.63-13.92-.33.03-.63.25-.77.56-.35.77.43,1.45,1.73,3.11l.21.3c4.96,6.62,9.6,13.66,8.02,21.86-5.25-5.98-4.91-5.93-5.68-5.96-8.65.41-17.33,3.15-25.81,8.1-.51.3-.64,1-.23,1.47,7.28,8.02,15.77,15.58,25.29,22.58.81,3.36,2.42,5.25,4.88,6.84-14.61-1.55-12.55-5.14-14.17.64-.76,2.75-.53,1.55-1.02,4.66-6.75-7.63-14.05-15.09-18.4-24.07-5.4-10.89-6.03-23.39-3.85-30.74.36-1.2-1.47-1.78-1.83-.54-2.32,7.78-1.65,20.81,3.97,32.12,4.74,9.78,12.7,17.61,19.85,25.8-.36,4.73,0,8.24,4.61,9.46.87.2,1.4-.84,8.8-2.41,2.97,2.17,2.67,6.85,3.9,11.2-8.38,8.2-12.17,11.76-17.94,17.49-17.51,5.65-25.7,2.78-43.9,6.67-3.36.43-4.17.05-4.53.91-.02.03-.02.08-.03.12-8.47,2.03-26.79,7.74-27.46,16.47-2.32,1.38-14.31,9.22-14.35,11.93-.36,15.07,50.56,27.49,67.62,17.08h0c12.95.64,34.5-.71,54.61-4.66-.16.46-.33.92-.25,1.28,2.8,15.35,57.85,20.61,77.57,7.73,18.52,6.79,61.66.53,62.88-13.03.02-.21-.15-.44-.21-.68,11-1.5,32.06-5.35,32.42-16.41,10-1.81,19.82-6.67,20.13-14.1.08-1.73-8.17-13.69-16.46-18.07ZM592.97,569.84c.99-.31,8.14,1.24,12.83,5.27h0c3.71,3.2,6.06,7.63,7.41,13.99.51,2.39.91,5.17.12,7.79-2.65,8.73-16.79,9.85-22.19-2.39-4.84-10.76-.92-23.8,1.83-24.66ZM587.18,572.77c-3.69,8.35-.64,17.61.89,26.78,1.48,8.93-2.16,9.75-8.9,14-7.03,2.49-9.83,3.31-13.38,4.46-7.76-.58-10.82-2.85-17.21-6.18-3.43-2.39-6.65-5.98-6.38-10.15.08-.13.13-.26.21-.4,1.83-.33,1.2-.21,1.33-.25,2.47.94,4.99,1.57,7.59,1.75,1.63.46,3.56-1.5,5.06-3.66,17.68-2.98,28.78-16,27.13-16.93-.16-.1-.41-.05-.53.13-4.96,8.42-16.31,14.08-26.04,15.91,1.45-2.34,3.46-6.21.87-7.23-4.48-.92-6.7-2.06-7.5-2.41,13.08-5.04,22.82-9.34,36.83-15.85ZM556.91,593.99c-.15-.54-.4-1.04-.79-1.43.33.08.71.21,1.04.28.02.23-.1.64-.25,1.15ZM546.17,580.03h0c-1.55.99-3.08,1.98-4.61,2.97-.21-.2-.48-.36-.68-.58.63-1.37.36-.92,1.5-2.7.51.02,3.71.3,3.79.31ZM543.95,583.72c.02.44,0,.87-.03,1.27-.3-.21-.54-.48-.82-.71.28-.18.58-.36.86-.56ZM540.71,541.78h0c2.64,6.19-1.24,12.98-1.12,19.19-2.57-.51-5.44-.91-7.97-1.17,4.93-5.21,8.24-11.65,9.09-18.02ZM527.84,502.62c3.49,2.83,5.98,5.98,7.51,9.34-2.12-.77-.2-.46-7.07-1.98.12-2.5-.02-4.97-.45-7.36h0ZM493.13,482.69c.28-3.92,3.9-9.03,4.68-9.27,1.66-.84,5.42,7.86,10.51,13.43,1.38,1.53,3.01,2.85,4.63,4.1,3.15,5.6,5.42,11.63,6.74,17.76-5.58-.46-4.96-.36-4.99-.36-.79,0-1.25.87-.76,1.76,1.89,11.43-2.21,23.47-11.27,33.28-5.26-10.74-6.44-23.67-4.74-32.91.08-.49-.21-.99-.71-1.1-1.3-.31-2.72-.41-4.08-.63,1.14-2.6,1.71-5.45,1.73-8.3h0c3.9-4.78-2.04-11.83-1.73-17.74ZM473.79,495.44c5.39,3.21,9.41,7.63,11.88,12.78-1.81,0-3.61,0-5.42.2-.89-4.88-3.34-9.39-6.46-12.98ZM478.14,510.7c5.9-.92,12.12-.91,17.74.35-.71,4.84-.46,8.29-.44,9.31-2.09,10.3.31,20.99,6.74,30.53,9.46-11.99,15.55-25.15,17.82-38.55,6.26,3.97,18.15,8.45,24.41,7.68-6.41,6.46-16.8,11.32-28.27,13-.46.07-.41.76.05.76.87-.26,17.87-2.09,28.93-13.38-8.48,13.66-17.64,26.47-26.24,39.72-1.2.36-4.28,1.48-3.85,2.8l.13.38c.15.68.23,1.37.35,2.04-9.24,15.35-9.72,16.13-12.27,20.23-6.75-4.48-13.15-9.08-19.19-13.79,3.71-2.16,5.11-7.46,4.53-11.76-1.15-8.34-7.69-11.4-13.26-26.14-3.44-8.81-4.84-17.49,2.83-23.16ZM527.86,559.56h0c-1.15-.07-2.82-.3-6.36.03,2.39-3.64,4.83-7.26,7.25-10.87-1.1,3.44-1.68,6.84-.89,10.84ZM514.35,592.02c-.53.54-.35.35-.4.4-3.11-1.91-6.19-3.84-9.18-5.8,3.34-5.35,4.66-7.56,11.17-18.42,1.02,8.14.08,16.23-1.6,23.82h0ZM443.27,516.51c11.28,0,19.62,8.67,25.52,18.22,3.13,9.7,8.91,18.63,15.73,26.44-1.56,2.55-3.2,4.84-4.89,7.07-10.26-8.32-19.46-16.93-27.48-25.83,2.45-9.97-2.62-17.76-8.88-25.9ZM446.96,568.73c2.24,1.58,4.5,3.16,6.85,4.68-2.69-.35-5.27-1.81-6.85-4.68ZM445.31,586.9c-.41-1.14-.97-2.26-1.65-3.21-2.64-3.82-1.38-5.9,2.69-6.29,3.25-.18,12.78,1.24,14.18-1.22,2.98-5.96-32.3-14.89-30.56-36.49,4.83-1.78,9.69-2.9,14.53-3.16.87.79,22.39,29.39,69.27,58.05-.96,3.92-1.88,6.95-2.9,10.26-1.75-1.05-3.61-2.04-5.39-3.06v-.02c-.16-.23-.41-.35-.68-.38-11.37-6.54-21.38-12.45-34.43-15.11-1.53-.3-3.16-.4-4.76-.58-.13-.05-.26-.12-.41-.12-.07-.02-.08-.1-.16-.1-.1,0-.18.08-.26.12-6.44-.59-13.16-.18-19.47,1.3ZM499.16,634.81c-5.37.92-14.94,2.78-25.5,4.18,2.26-2.31,5.9-6.74,8.95-11.3.31-.21.69-.4.99-.61,2.22,2.77,7.71,3.82,11.43,3.82,2.08,0,4.3-.28,6.66-.74-.77,1.66-1.63,3.2-2.52,4.65ZM483.74,625.89c1.37-2.16,2.62-4.37,3.76-6.62.02-.02.05-.03.08-.03h0c1.32,0,1.99.76,1.75,1.6-.41,1.35-4.35,4.38-5.52,5.19-.03-.05-.03-.1-.07-.13ZM495.06,630.16c-3.49,0-8.76-.99-10.81-3.51,1.37-.94,5.34-4,5.8-5.58.33-1.09-.26-2.41-2.22-2.52,1.75-3.56,3.23-7.22,4.38-10.99,12.73-3.56,10.53-2.42,12.5-4,1.86,1.05,3.79,2.08,5.58,3.16h0c-5.39,17.13-7.86,21.84-8.15,22.62-2.54.53-4.89.82-7.08.82ZM492.79,605.43c.51-.77,3.06-4.65,4.12-6.34,2.06,1.12,4.02,2.29,6.03,3.44-.1.07-.18.13-.3.23h0c-2.29.63-2.37.74-9.85,2.67ZM449.25,588.14c4.6-.79,9.29-1.1,13.89-.81-1.47,1.5-3.87,4.12-10.67,10.81-1.15-5.3-.97-7.2-3.21-10ZM464.29,588.9h0s.63-.63.63-.63c9.9.44,20.13,7.07,27.3,14.6-.03.05-.07.1-.1.16-15.01,22.52-24.61,31.91-29.72,37.76-3.84,3.99-13.87,13.87-18.6,16.75,3.46-3.53.48-7.92-3.56-10.54-12.14-8.14-33.28-4.13-28.1,1.83,1.48,3.05,15.86,9.31,19.11,10.28,2.11.63,4.3,1.04,6.41.91-10.28,1.89-29.35-10.43-26.98-14.32,2.44-3.79,7.27-9.5,10.56-13.48.16-.07.33-.18.44-.33.58-.77,1.43-1.66,2.47-2.77.1-.1.17-.23.21-.36,12.22-13.21,27.23-26.47,39.93-39.87ZM424.82,622.06c.1,0,2.83-.99,3.03-1.05.53-.08,1.05-.15,1.58-.23h0c-.96.97-1.91,1.94-2.85,2.93-1.1-.43-2.21-.91-3.34-1.52l1.58-.13ZM383.65,627.1c-1.4,4.61-.91,8.88,1.42,12.8-8.9-5.17-16.87-4.37-25.94.26,2.55-6.66,17.63-11.3,24.53-13.06ZM356.4,658.96c-4.55-3.92-5.27-5.88-9.82-7.74,11.75-10.02,24-17.17,36.98-9.95,12.04,13.31-8.32,34.15-27.16,17.69ZM391.62,644.46c-6.57-5.32-8.43-11.32-5.65-18.35h0c7-.63,18.43-1.88,28.6-3.26l7.91-.61c-.08.18-.03.41.15.49,1.15.64,2.26,1.1,3.38,1.55-.35.36-3.28,3.25-3.46,3.72-.74.79-1.6,1.66-2.24,2.49-.4.15-2.14,2.44-2.41,2.75-1.5-.66-3-1.35-4.43-2.12-.46-.23-.81.44-.36.68,1.38.76,2.85,1.42,4.3,2.06-.63.77-6.13,7.13-8.1,10.38-5.95.21-11.91.3-17.68.23ZM466.2,663.45c-29.62,6.03-52.07,4.91-53.54,4.99h0c.89-.87,1.68-1.81,2.21-2.93,4.4-9.44-12.88-11.89-21.12-19.13,4.1.03,8.09,0,14.83-.21-.58,7.03,18.73,16,26.6,16,6.28,0,11.45-3.82,15.75-7.69l2.44-2.29c3.53-3.18,6.92-6.46,10.26-9.92,20.08-2.45,28.38-4.28,34.2-5.27-1.58,2.29-3.29,4.33-5.16,6.14-10.06,2.47-20.2,12.19-26.47,20.31ZM512.79,664.28c-3.97,9.82-17.45,14.59-31.5,6.31-5.22-3.03-7.99-5.83-12.9-6.87,9.6-11.55,21.05-21.78,35.58-18.94,1.17.25,2.34.63,3.51,1h0c6.54,4.65,7.84,12.52,5.3,18.5ZM495.78,642.6c1.7-1.88,3.25-3.97,4.7-6.26.07-.05.07-.13.12-.2,3.95-6.38,5.93-12.06,8.78-20.48,5.77-16.62,11.48-35.32,7.64-52.71,5.35-3.71,27.79-.1,30.49,2.78h0c.59.59.13.38.46.96.03.05-.02.12,0,.16l-.58.46c-3.54,7.68-11.33,14.53-21.51,18.88,5.42-.82,11-.79,16.46-.07.77.61,1.1,1.33,5.06,3.33,1.22.48,1.81,1.24,7.63,2.8-2.45.26-6.95,4.66-7.02,8.07-1.81-.4-3.59-.92-5.32-1.71-.46-.21-.99-.03-1.24.41-3.08,5.47-5.54,10.43-7.51,15.12-.33.33-2.09,5.01-2.27,5.44-2.9,9.62-9.08,20.31-4.74,29.52-1.33.76-2.93,1.35-4.65,1.84-8.55-4.71-15.8-9.69-26.49-8.35ZM532.93,621.59c.54.38,2.17,1.53,2.9,2.04,1.09.79,2.26,1.45,3.38,2.19-2.75.76-5.6,1.48-8.57,2.21.69-2.16,1.45-4.3,2.29-6.44h0ZM540.99,657.19c-5.17-2.04-11.4-3.18-16.18-5.07,9.93-3.69-1.24-.97,4.05-18.63h0c.31-1.1.73-2.19,1.07-3.29,2.08-.51,5.55-1.28,11.47-2.95,9.77,6.13,11.91,6.66,28.4,16.36-5.54,1.33-10.71,4.7-15.37,8.07-3.51,2.26-8.42,3.53-13.44,5.52ZM601.28,659.22c-3.85,1.1-6.38,3.85-10.38,6.59-17.86,12.12-33.98-2.5-27.53-15.42.71-1.37,1.7-2.55,2.83-3.57,14.17-6.11,23.66,2.11,35.07,12.4h0ZM599.65,655.04c-7.31-6.62-17.33-13.94-26.97-11.98-41.38-23.67-27.61-15.53-39.01-23.29.56-1.42,1.07-2.85,1.7-4.27h0c.08-.08.16-.2.21-.31.87-2.09,1.86-4.25,2.95-6.46,23.94,12.91,49.06,24.71,75.76,37.21,1.27,3.84.3,7.07-2.82,9.74-2.93,1.56-8.67.4-11.83-.64ZM603.83,659.19c-.28-.31-.48-.59-.82-.94h0l-.44-.44c4.12.79,5.62.53,6.79.38-1.83.33-3.66.77-5.52,1ZM610.5,657.95c.69-.16,1.38-.36,2.01-.71,4-3.41,5.16-7.56,3.43-12.32-.38-1.04-14.68-6.66-50.87-24.66,4.98-1.63,8.53-2.65,17.86-6.05l.51.15c.17.03.31.03.48,0,.86-.21,1.68-.28,2.6-.36,12.68-2.09,26.54-2.04,39.6.71h0c-6.57,4.93-3.48,4.6-11.48,8.37-4.89,2.31-10.43,4.94-8.71,11.25,2.9,10.41,18.45,12.07,29.39,10.51-.91,8.55-16.57,11.55-24.81,13.11ZM654.24,628.17c-3.15,1.33-3.72,3-7.05,6.16-7.56,7.35-16.21,4.63-19.52-3.9-1.88-4.66-1.83-11.19,1.37-15.44,9.8-6.03,18.65,3.74,25.2,13.18h0Z"/>
  <path class="cls-1" d="M447.58,401.86h0c.18.2.44.31.71.31h.03c2.45-.1,16.93-22.34,3.13-42.34-4.84-7.1-13.43-13.31-13.87-21.83-.2-3.66,1.81-8.15,6.05-9.69,1.15-.43.56-2.14-.56-1.83-6.77,1.66-12.55,6.66-15.44,13.31-3.94,8.1-1.61,19.14,1.56,27.61,4.53,11.93,10.02,25.42,18.38,34.45ZM437.61,330.89c-7.28,11.45,7.31,22.77,12.26,30.01,4.28,6.21,6.47,14.2,5.16,22.67-2.11-7.51-6.75-8.75-13.03-13.13-8.81-6.18-13.89-16.39-13.74-26.52,1.28-5.14,4.6-10,9.36-13.03Z"/>
</svg>