<svg xmlns="http://www.w3.org/2000/svg" id="Calque_2" data-name="Calque 2" viewBox="227.13 320.19 545.74 359.59">
  <defs>
    <style>
      .cls-1 {
        fill: #303d3c;
        stroke-width: 0px;
      }
    </style>
  </defs>
  <path class="cls-1" d="M587.33,601.41c.21.03.42.08.63.11.09-.01-.06-.04-.63-.11Z"/>
  <path class="cls-1" d="M736.65,373.06c13.11-2.99,31.29,3.23,35.3-14.51,3.05-13.51-1.52-16.24-13.5-19.14-1.53,0-2.96.29-4.31.88-6.65.68-10.58-1.59-11.8-6.81-1.04-.92-1.39-2.53-2.43-3.48-5.2-4.75-4.94-1.82-9.48-1.29-10.52,1.22-13.02-.25-21.91-2.81-8.3-2.39-16.38-1.4-24.43,1.35-.5.17-.9.62-.89,1.17,0,.22,1.74,6.57,2,5.67-.67,2.33-13.3,4.96-16.81,4.72-10.45-.7-17.9-2.84-28.14,1.7-2.07.92-4.15,2.68-6.25,3.38-6.19,2.1.17,4.95-8.37-.5-3.55-2.27-3.99-6.81-6.36-8.28-3.56-2.2-5.65-3-8.5.43-.37.44-.45.95-.19,1.47,5.55,10.92-14.4,18.72-20.17,24.01-6.38,5.86-10.88,12.63-21,10.56-.52.16-1.02.35-1.52.56-5.19,4.04-1.26-.71,11.79-14.25,3.12-1.36,7.12-.57,10.43-2.05,4.93-2.21,7.41-4.45,9.25-9.47.23-.63-.26-1.31-.85-1.5-9.53-2.97-13.16-11.26-20.73-15.3-5.48-2.93-14.33-2.29-20.43-3.11-6.54-.88-13.74-2.48-20.39-2.32-3.29.07-4.53.04-8.21,1.16-2.73.83-5.34,3.34-7.99,3.97-2.52-.08-5.03-.16-7.55-.24-4.99,2.01-8.06.91-9.21-3.31-4.93-3.05-5.91-4.86-12.36-5.33-10.26-.75-23.35.53-32.72,5.19-9.82,4.88-10.89,15.13-17.5,23.57-2.18,2.78-4.76,5.27-6.35,8.48-.67,1.35-1.78,8.84-2.56,10.02-7,10.62-23.22,6.35-33.58,12.11-5.38,2.98-4.89,2.3-5.54,7.92-.46,3.93,1.58,5.97.82,10.69-.97,6.07-1.58,4.67-3.72,9.02-1.84,3.74-3.55,5.38-3.51,9.68.05,4.61,2.41,9.13,6.01,12.02,7.51,6.02,10.81.07,18.43.59,3.66.25,6.81,3.62,6.29,4.61-.18.34-4.62,1.62-4.55,1.53-.72.9-2.13,1.28-2.91,2.2-7.36,8.78,1.66,23.1-7.51,31.92-7.5,7.2-19.44,11.24-27.57,18.52-4.41,3.95-8.55,8.21-12.31,12.79-5.49,6.69-6.8,9.45-16.81,8.89-5.07-.28-5.93-2.47-9.81,1.38-1.91,1.9-2.9,7.59-5.38,10.22-1.51,1.6-3.97,1.85-5.05,4.01-2.24,4.48.35,5.37,2.68,8.56.63.86,2.72.75,3.45,1.52,5.4,5.79,8.22,15.9,6,23.14-3.9,12.7-13.49,13.06-26.54,9.77-.33-.08-.62-.02-.85.11-5.21-2.31-10.81-4.99-15.49-.87-5.47,4.81-5.57,26.31-6.45,33.46-1.11,8.98-5.17,25.3-.89,33.65,4.28,8.35,19.31,5.25,26.89,5.33,19.73.2,34.31-3.77,38.12-24.73.86-4.72.44-10.14,2.39-14.53,6.95-15.72,9.85-7.93,17.66-13.77,4.51-3.36,4.84-6.81,10.09-10.1,6.81-4.26,12.34-1.84,19.55-4.5,3.03-1.12,5.06-3.66,7.75-4.94,6.78-3.21,9.79,1.35,15.39,6.12,5.87,5.01,11.76,10,17.61,15.03,2.67,2.29,5.98,4.58,8.29,7.18,12.06,10.73,12.82,17.98,2.3,21.74-2.7,2.83-5.9,4.14-9.6,3.94-5.78,5.28-4.3,17.65,6.53,17.68,5.19.01,12.93-10,15.18-13.24,2.38-3.43,4.23-7.08,5.63-10.99.62-1.73,1.88-13.95,2.02-14.15.52-.67,4.7.06,6.06-2.12,2.51-4.01-1.43-6.95-4.17-9.14-6.02-4.81-13.97-7.25-20.16-12.27-3.04-2.46-6.95-5.12-9.1-8.48-3.13-2.69-3.9-6.39-2.32-11.08,1.92,1.89,3.95,3.66,6.09,5.29,12.38,9.92,33.63,14.03,38.2,30.18,3.58,12.65,7.02,18.53,18.16,26.08.74.5,1.39.86,1.95,1.12-.06.02-.12.04-.18.06-7.48,3.04-13.64,4.16-20.68,8.48-1.02.63-.61,2.26.61,2.27,4.32,3.38,8.64,6.76,12.96,10.14.1.39.45.76.85.85,5.55,1.18,11.11,2.37,16.66,3.55.84.18,1.82-.56,1.5-1.5-5.88-17.01,11.11-16.19,6.21-28.39-.76-1.89-8.62-8.02-8.14-9.76,3.66-13.14,9.75-.35,12.94-.15,7.29.46,14.26.02,21.61-.45,1.55-.1,1.58-2.39,0-2.43-22.1-.61,11.69-38.31,13.84-13.43.12,1.36-3.34,3.2-3.49,5.02-.21,2.5-1.7,3.08-.71,6.29,2.93,9.42,16.69,4.59,22.91,4.54,13.4-.1,20.08,11.49,33.07,13.23,10.82,1.44,20.25-.77,31.02,3.27,4.81,1.8,8.43,4.5,13.39,2.65.55-.21.84-.59.89-1.17.7-7.05-3.98-15.85-8.45-21.06-4.29-5-9.67-4.36-6.43-8.91.48-.16.97-.31,1.45-.47.9-.29,1.03-1.3.57-1.91.23-.25.44-.47.71-.74,10.33-10.42,29.23-16.54,27.84-32.83-2.64-4.02-3.74-8.54-3.3-13.57.28-1.32.51-2.64.69-3.97-1.04-2.36,2.9,1.47-2.37-4.94-3.64-4.44-18.32-4.43-14.9-13.71,2.91-1.37,5.72-2.92,8.43-4.65,8.22-4.25,16.21-4.79,23.98-1.6,5.66,1.21,11.12,3.83,16.8,5.18,12.97,3.07,26.07,3.71,39.29,2.78.15.07.33.11.53.1,1.95,1.02,3.91,2.04,5.86,3.06.43.67,1.33.81,1.91.25,4.57-2.1,9.14-4.21,13.71-6.31,1.02-.09,1.65-1.28.86-2.08-9.41-9.59-8.5-17.06-12.15-28.73-.37-1.17-.2-2.78-.83-3.86-1.57-2.72-3.17-4.1-6.44-4.24-3.38-.15-4.4,3.36-7.13,3.53-4.93,3.94-9.14-.5-12.64-13.32,2.48-.57,4.98-.99,7.51-1.27,3.96-.83,10.37-1.57,11.2-6.77.25-1.59-.32-3.19-1.28-4.51-2.53-3.45-3.95-.82-7.08-2.69-13.78-8.21-5.91-4.9-6.45-12.59-.64-9.06,2.14-18.06.51-27.44-2.15-12.4-18.51-39.11.71-43.49ZM732.46,411.93c2.66,10.32,2.75,21,.63,31.42-.41,2-2.75,6.81-2,9.38,1.3,4.45,3.89,3.18,6.44,5.93,11.09,11.96-3.34,7.87-10.29,12.2-8.51,5.3-8.32,18.34,1.77,21.86,6.23,2.17,7.76-2.15,13.09-2.91,16.52-2.33,14.82,11.97,20.29,22.6,2.94,5.72,3.94,8.15-4.73,9.65-2.51.43-4.03-.19-5.97-.62-.15-.4-.51-.7-1.08-.65-21.78,1.9-40.15-2.92-60.89-8.47-15.52-4.15-21.46,4.22-35.86,8.53-.54.16-.86.62-.89,1.17-.29,4.31.8,6.19,4.44,8.78,6.86,4.88,13,3.53,15.67,14.79.52,2.17,2.03,8,2.17,10.04,1.18,16.18-16.16,26.55-28.06,35.3-2.79-.08-2.09-.04-6.83,1.01-.67.15-.98.88-.85,1.5.78,3.73.7,1.89,3.13,4.52,4.34,4.7,19.95,10.29,17.6,20.08-2.24,9.31-15.42-.53-21.22-1.79-7.94-1.72-16.2,1.6-23.87-.14-10.2-2.32-16.7-12.98-27.18-14.6-.45.06-7.39-.38-8.58-.02-2.51-2.02-11.12-9.22-11.24-9.77-.6-2.77,4.68-2.04,3.46-7.09-3.59-14.88-29.6.56-29.19,11.83.1,2.79.86,4.25,2.49,6.7.2.3.39.55.58.79-.29-.01-.59-.01-.92,0-11.97.71-20.85-8.75-32.08-2.55-.74.41-.73,1.33-.25,1.91,2.71,3.25,5.43,6.5,8.14,9.76,3.92,6.47,3.48,11.54-1.32,15.2-1.21,4.26-3.01,3.62-3.02,8.3,0-2.33-.21,5.23,1.04,7.05-2.35-.33-7.1-1.7-7.84-1.96-1.4-.3-2.8-.6-4.2-.9-2.15.12-3.07-1.06-2.75-3.56,2.43,2.23-7.47-8.8-5.73-6.3-.8-1.15-4.58-1.34-4.6-1.74-.2-3.64,21.96-6.72,23.74-6.89,1.26-.12,1.78-2.11.32-2.39-15.45-2.99-21.79-12.84-25.55-26.97-1.27-4.77-1.27-9.63-5.16-13.23-3.38-3.12-9.22-4.38-13.24-6.1-11.69-4.98-21.38-11.95-30.26-21.07-.36-.37-1.04-.49-1.47-.19-5.05,3.4-3.43,7.9-.72,12.74,3.13,5.59,9.26,10.74,14.19,14.72,3.95,3.18,8.16,5.92,12.59,8.37,1.51.75,3.01,1.49,4.52,2.24,3.99.73,4.95,3.21,2.89,7.41-.7-.84-2.06-.12-2.08.86-.17,11.19-3.56,23.82-12.28,31.52-5.4,4.77-10.9,8.95-11.34-.31-.64-13.19-.89-2.55,3.81-5.57,5.49-3.53,9.11-2.82,10.29-11.03,1.1-7.67-3.91-13.69-9.04-18.79-12.08-12-26.16-22.43-39.11-33.48-.61-.52-1.46-.45-1.91.25-11.46,17.64-19.28,4.91-31.38,11.42-1.26.68-1.54,1.36-3.19,2.46-8.58,5.71,5.6.79-12.93,12.71-8.92,5.73-11.42,8.54-13.29,19.9-2.07,12.61-4.13,25.25-18.96,29.04-9.12,2.33-38.33,4.67-42.95-6.16-3.94-9.24,1.82-31.53,3.17-40.24.68-4.33.51-10.6,2.48-14.38,3.8-7.25,12.94-4.58,20.04-2.83.76.19,1.3-.3,1.46-.89,7.35,1.2,14.21.99,21.99-.61.48-.1.94-.67.89-1.17-1.19-14.21,7.35-21.46-.19-33.85-3.54-5.81-2.04,4.1-5.27-7.32-.77-2.71-1.32-4.45-1.71-5.55.63.83,1.6,1.15,2.6-1.7-.12.36,3.82-6.64,3.46-6.35,4.29-3.4,10.7,1.29,15.84-.77,2.5-1,2.54-2.53,4.44-4.13,7.41-6.23,12.5-15.84,20.11-22.36,9.03-7.74,19.02-13.64,29.81-18.54.39-.18.58-.65.6-1.05.31-5.57.07-11.92.98-17.42,1.39-8.41,3.57-10.35,9.69-15.24,2.94-2.35,4.9-1.33,6.61-5.19.23-.51.22-1.05-.19-1.47-3.62-3.76-6.09-4.45-11.41-3.66-2.6.38-5.32,2.85-7.82,2.98-15.12-7.53-19.47-14.9-13.07-22.1,1.43-1.73,2.63-3.6,3.62-5.62,1.88-5.53-2.47-7.52-1.53-12.42,1.99-10.34,31.66-13.48,39.33-15.32.63-.15,1.03-.88.85-1.5-4.45-15.1,23.48-44.37,34.99-47.58,13.18-3.68,20.49-1.79,32.32,5.68,5.02,3.17-.79,3.07,5.8,4.85,4.65,1.25,8.64-1.78,12.63-3.49,12.35-5.31,21.82-4.26,34.71-2.55,6.37.84,15.38.43,20.87,3.9,3.29,2.08,3.23,4.38,5.89,7.29.94,1.03,6.27,3.82,6.88,4.59,4.91.55,5.09,2.39.53,5.52-2.1,4.57-5.83,6.35-11.2,5.34-3.16.52-6.69.48-9.68,1.81-7.71,3.43-12.78,13.64-3.85,18.92.44.26,1.12.21,1.47-.19,5-5.61,13.11-.3,19.04-3.24,1.13-.56,1.72-1.8,2.55-2.55,3.04-4.17,6.08-8.33,9.12-12.5,2.47-1.31,4.94-2.61,7.41-3.91,4.52-3.18,5.35-6.74,8.52-10.48,1.43-1.69.48-3.52.12-4.06.24.3.88,1.04,2.31,2.43,4.5,4.36-.17,1.87,3.23,6.14,1.82,2.28,2.02,3.84,5.36,4.17,6.94.68,1.84-.76,3.81-1.21,3.22-2.7,6.64-5.12,10.26-7.28,5.44-2.74,11.2-4.11,17.29-4.14,10.35.03,29.6,11.22,33.3-4.94.15-.65-.2-1.3-.85-1.5-1.33-6.21,1.85-8.23,9.52-6.07,6.41.09,12.35,1.8,17.82,5.14,2.63,1.21,5.47,4.25,8.73,4.07,3-.17,4.43-3.02,6.49-3.31,10.97-1.52,8.55,6.98,14.89,11.31,4.16,2.84,2.14-.09,3.98.49,10.31-4.76,16.78-2.72,19.42,6.11-5.7,6.38-11.4,12.76-17.1,19.14-9.89,3.69-28.03-3.01-30.79,12.73-1.58,9.04,8.36,21.45,10.39,29.36Z"/>
  <path class="cls-1" d="M388.42,597.75c-.48-.28-.93-.19-1.27.06-.11-.49-.47-.89-1.12-.85-4.93.34-10.05.73-14.58,2.89-5.21,2.49-7.76,9.69-13.24,11.06-1.2.3-1.12,2.01,0,2.35,5.56,1.69,12.25,5.01,18.04,5.35,3.03.18,4.71-1.45,5.66-4.2,1.22-3.54.81-5.66,4.23-8.22,1.14-.86,2.45-1.28,3.29-2.5,1.48-2.14,1.23-4.61-1.01-5.93ZM382.23,606.11c-1.24,1.49-1.62,3.31-2.07,5.14-1.16,4.7-5.26,4.55-9.29,3.32-2.98-.91-5.96-1.81-8.94-2.72,2.28-1.59,3.72-4.03,5.83-6.25,4.81-5.08,11.66-5.75,18.28-6.2.26-.02.46-.11.63-.24.07.26.23.51.53.69,2.62,1.54-4.28,5.43-4.97,6.26Z"/>
  <path class="cls-1" d="M419.9,585.48c-.34-.28-.71-.33-1.06-.26.84-6.8-6.97-11.68-11.67-5.35-1.52,2.04-1.51,4.55-2.27,6.88-1.33,4.06-4.5,6.36-6.44,9.94-3.31,6.11,1.54,8.75,2.58,14.82.77,4.52,0,7.96,5.38,9.48,2.89.81,8.83.64,10.92-1.98,1.13-1.42.68-3.89.84-5.53.55-5.61,2.37-9.89,4.11-15.09,1.62-4.85,1.76-9.44-2.4-12.91ZM416.25,607.97c-.7,3.72.22,8.21-3.31,10.39-6.19,3.83-8.1-6.51-9.77-9.72-.58-1.12-2.26-3.23-2.63-4.5-1.78-6,1.06-7.09,3.8-11.08.85-1.24,1.68-2.33,2.28-3.74.48-1.27.84-2.58,1.06-3.92.29-4.19,3.21-4.3,8.76-.31-.18.95.66,1.56,1.38,1.52.05.2.14.41.36.58,6.66,5.55-.75,14.54-1.93,20.77Z"/>
  <path class="cls-1" d="M249.95,664.57c-.63.27-.7,1.14-.44,1.66,1.17,2.34-1.56,5.19-2.52,7.2-.66,1.37-1.69,4.1-.5,5.47,1.24,1.44,4.32.82,5.82.18,2.26-.97,3.88-2.88,4.42-5.28.01-.06,0-.12,0-.18.2-.08.39-.21.55-.43,3.59-5.17-1.79-10.98-7.33-8.64ZM255.18,671.99c-.1.14-.15.28-.18.41-.29.12-.53.37-.62.77-.62,2.74-3.17,4.41-5.85,3.98-.16-2.35,1.85-4.55,2.82-6.56.68-1.41,1.02-2.76.75-4.16,3.02-.51,4.9,2.91,3.07,5.55Z"/>
  <path class="cls-1" d="M241.12,660.2c-5.72.69-14.74,2.65-13.94,10.34.26,2.55,2,4.82,4.65,5.1,2.4.26,4.62-1.03,5.37-3.32.39,1.08,2.3.93,2.36-.46.13-3.49,1-6.74,2.62-9.83.38-.73-.07-1.95-1.05-1.83ZM237.18,671.3c-.46-.8-1.91-.92-2.25.24-.57,1.95-3.24,2.25-4.51.83-1.38-1.53-.94-3.98.13-5.51,1.9-2.7,5.37-3.51,8.57-3.96-1.12,2.68-1.77,5.47-1.94,8.4Z"/>
  <path class="cls-1" d="M306.16,478.12c1.74-2.03,3.35-4.34,4.03-6.99.47-1.83-.27-4.1.17-5.76-.57-1.78-.04-3.33,1.6-4.64,2.83-6.85,6.7-4.47,11.61,7.16-1.13.38-1.02,1.84-.23,2.28-7.76,8.09-10.19,23.73-13.37,32.74-.37,1.05.91,1.85,1.79,1.37,13.35-7.2,27.27-6.79,40.53-12.54,4.99-2.16,9.54-5.5,10.93-11.03,2.11-8.4-4.37-14.9-8.93-21.03-15.31-20.58-12.85-39.94-3.02-62.74.27-.62.14-1.66-.73-1.79-8.23-1.17-8.77,5.33-14.63,10.17-7.47,6.18-19.87,3.16-26.53,10.64-8.76,9.84,3.04,21.63-9.91,31.46-7.21,5.47-8.04,4.4-11.76,13.95-2.08,5.34-24.43,26.32-5.35,28.5,7.19.82,19.32-6.54,23.79-11.76ZM294.66,483.35c-7,6.09-12.05,4.23-15.14-5.56.25-1.1,5.79-4.93,6.23-5.52,6.73-8.92,3.8-14.14,14.38-22.49,3.83-3.02,6.09-1.57,8.41-6.69,1.17-2.57,1.03-5.2,1.02-7.98-.01-11.14,2.29-20.16,14.87-22.18,4.65-.75,9.94-.91,13.81-3.99,4.48-3.58,9.56-13.16,5.98-1.74-3.01,9.61-4.51,14.12-3.78,24.8.52,7.61,2.41,14.78,6.28,21.41,1.69,2.89,3.84,5.33,5.84,8,6.3,4.5,7.55,10.17,3.74,17.02,1.29,8.02-1.96,12.18-9.73,12.47-8.37,2.18-17.74,4.83-26.1,6.38-8.38,1.55-5.64,2.04-4.04-5.42,1.68-7.84,5.62-20.71,14.05-23.64,1.25-.43.97-2.18-.05-2.38,4.75-8.03-10.36-20.12-20.48-8.39-.78.9-1.52,1.83-1.94,2.92-3.06,7.86,2.15,3.71-4.79,13.8-1.55,4.49-4.41,7.55-8.57,9.19Z"/>
  <path class="cls-1" d="M509.56,417.09c-.7-2.91-1.55-2.58-3.38-4.46-1.23-1.26-4.27-.52-5.71-1.3-4.74-2.55-4.27-5.54-6.28-8.78-.56-.9-3.56-4.79-3.83-5.4-2.31-5.11-3.78,3.05-.73-7.25,2.21-7.48,2.47-3.05,5.07-7.47,1.71-2.91,4.48-4.36,3.51-8.4-2.38-9.81-17.6-2.05-21.66,1.9-4.02,3.91-6.45,13.06-8.15,17.96-1.48,4.27-2.24,6.06-.54,10.62,2.76,7.39,6.11,5.89,3.63,15.07-1.18,4.38-3.55,6.38-4.54,9.9-1.91,6.81-2.49,16.6-8.98,20.86-3.07,2.02-12.61.09-19.54-.78-.13-.26-.36-.48-.71-.59-7.06-2.19-19.35,4.96-17.54,13.87,1.67,8.22,13.06,2.98,19.09,2.63,7.43-.43,8.5,3.62,14.69,4.09,4.81.37,6.96-3.31,10.55-5.42,4.81-2.83,9.46-1.69,14.52-3.65,6.09-2.36,9.25-8.78,12.44-13.93,2.03-3.27,1.14-4.25,4.37-7.1,1.64-1.44,5.35-2.1,6.59-3.36.21-.21.51-.31.73-.56,2.78-3.14,7.35-14.71,6.45-18.48ZM505.22,423.65c-.74,5.55-6.59,8.5-9.37,11.6-.53.6-1.99.12-2.64.87-.63.72-1.04,1.91-1.71,2.47-1.41,5.54-3.98,10.61-7.7,15.19-3.96,1.07-7.91,2.14-11.87,3.21-2.04.81-4.6,2.1-6.59,2.86-2.25,3.49-5.6,4.35-10.03,2.56-3.55,1.94-6.1,1.85-7.64-.28-.24,0-.52-.37-.86-.36-2.16.1-3.84.49-5.94.73-3.66,1.12-7.42,1.8-11.26,2.06-11.36-2.86-9.2-7.15,6.41-12.86,9.83.7,26.2,5.47,31.3-5.71.64-1.39.47-3.04.93-4.47,1.55-4.88,2.3-10.3,4.67-15.1,1.59-3.21,4.48-3.96,4.58-8.15.11-4.87-4.27-7.98-5.94-12.07-4.06-10,1.52-13.3,4.79-21.02.88-2.67,1.77-5.35,2.65-8.02,4.77-4.02,8.48-2.17,11.12,5.54-.29,1.29-3.99,1.57-4.37,3.16-.6,2.47-2.75,3.38-2.24,6.62.74,4.7,6.32,8.98,8.43,13.5,1.53,3.28-.39,3.19,2.48,5.83,5.8,5.34,12.46-.62,10.8,11.83Z"/>
  <path class="cls-1" d="M528.12,421.15c4.27.78,8.52.65,12.77-.14.7-.13.94-.89.85-1.5-.86-5.59-3.62-13.15-10.78-11.28-.92.24-1.04,1.2-.65,1.83-4.91.77-12.32,3.18-10.16,7.63,1.18,2.43,5.76,3.05,7.97,3.45ZM525.74,413.73c2.45-1.26,5.13-1.65,7.85-1.52.93.04,1.29-.8,1.12-1.5,2.73,1.13,3.88,5,4.45,8.1-4.57.7-9.24.57-13.68-.8-1.21-.37-2.21-.4-2.51-1.61-.37-1.47,1.67-2.1,2.77-2.67Z"/>
  <path class="cls-1" d="M412,484.13c-17.03,1.61-21.34,10.63-22.39,15.86-2.34,11.65,6.43,23.18,13.48,32.44,1.57,2.07,3.06,4.02,4.32,5.84.53.76,1.21,1.35,1.99,1.74.87,1.66,2.63,2.86,4.51,2.99.11,0,.22.01.33.01,1.76,0,3.3-.97,4.16-2.65,1.11-2.15,2.33-4.34,3.62-6.66,5.33-9.6,11.38-20.48,11.14-31.52-.12-5.88-2.08-10.66-5.65-13.84-3.77-3.36-9.14-4.82-15.53-4.21ZM419.4,532.25c-1.3,2.34-2.53,4.55-3.66,6.74-.37.73-.91,1.09-1.63,1.02-.93-.06-1.86-.77-2.17-1.65l-.25-.7-.7-.23c-.45-.15-.82-.43-1.12-.87-1.3-1.87-2.81-3.85-4.4-5.95-6.68-8.78-15-19.71-12.92-30.04,2.07-10.29,13.25-12.85,19.73-13.46h0c.85-.08,1.67-.12,2.47-.12,4.43,0,8.12,1.22,10.77,3.58,2.97,2.65,4.53,6.57,4.64,11.66.22,10.23-5.62,20.73-10.77,30Z"/>
  <path class="cls-1" d="M402.72,512.61l-5.9-5.47,3.56,7.25,1.14,2.28,1.47-1.62,1.16-1.22-1.19-1.03c-.07-.06-.14-.12-.25-.19Z"/>
  <path class="cls-1" d="M413.96,494.85l-1.04-.13-.48.94c-.38.75-.96,1.13-1.76,1.18-2.53.15-4.85,1.5-6.2,3.6-1.23,1.91-1.48,4.22-.67,6.34,1.35,3.56,4.65,4.98,7.86,4.98.92,0,1.83-.12,2.68-.33,5.89-1.48,5.78-7.46,5.73-10.67-.03-1.93-.87-5.27-6.1-5.91ZM413.6,508.52c-2.7.68-5.91.07-7-2.81-.47-1.23-.33-2.53.39-3.65.83-1.28,2.31-2.14,3.86-2.24,1.49-.09,2.75-.74,3.64-1.85,2.22.52,2.55,1.77,2.57,2.83.08,4.52-.43,6.95-3.46,7.71Z"/>
  <path class="cls-1" d="M522.32,541.91l-5.77-5.28,3.43,7.06,1.16,2.3,1.47-1.64,1.18-1.19-1.21-1.05c-.07-.06-.14-.12-.25-.2Z"/>
  <path class="cls-1" d="M531.6,513.43c-17.03,1.61-21.34,10.63-22.39,15.86-2.34,11.65,6.43,23.18,13.48,32.44,1.57,2.07,3.06,4.02,4.32,5.84.53.76,1.21,1.35,1.99,1.74.87,1.66,2.63,2.86,4.5,2.99.11,0,.22.01.34.01,1.76,0,3.3-.97,4.17-2.65,1.11-2.15,2.33-4.35,3.62-6.67,5.33-9.6,11.38-20.47,11.14-31.52-.13-5.88-2.08-10.66-5.65-13.84-3.77-3.36-9.14-4.82-15.52-4.21ZM539.01,561.54c-1.3,2.34-2.53,4.56-3.67,6.75-.38.73-.93,1.06-1.63,1.02-.93-.06-1.86-.77-2.17-1.65l-.25-.7-.7-.23c-.46-.15-.82-.43-1.12-.87-1.3-1.87-2.81-3.85-4.4-5.95-6.68-8.78-15-19.71-12.92-30.04,2.07-10.29,13.25-12.85,19.73-13.46.85-.08,1.67-.12,2.47-.12,4.43,0,8.12,1.22,10.77,3.58,2.97,2.65,4.54,6.57,4.64,11.67.22,10.23-5.62,20.73-10.76,29.99Z"/>
  <path class="cls-1" d="M533.57,524.14l-1.04-.13-.48.94c-.38.74-.96,1.13-1.76,1.18-2.53.15-4.85,1.5-6.2,3.6-1.23,1.91-1.48,4.22-.68,6.34,1.35,3.56,4.65,4.98,7.86,4.98.92,0,1.83-.12,2.68-.33,5.89-1.48,5.78-7.46,5.73-10.67-.03-1.93-.87-5.27-6.1-5.91ZM533.21,537.82c-2.69.68-5.91.07-7-2.81-.47-1.23-.33-2.53.39-3.65.83-1.28,2.31-2.14,3.87-2.24,1.49-.09,2.75-.74,3.64-1.85,2.22.52,2.55,1.77,2.57,2.83h0c.08,4.52-.43,6.95-3.46,7.71Z"/>
  <path class="cls-1" d="M583.66,415.49l-1.04-.13-.48.94c-.38.74-.96,1.13-1.76,1.18-2.53.15-4.85,1.5-6.2,3.6-1.23,1.91-1.48,4.22-.67,6.34,1.35,3.56,4.65,4.98,7.86,4.98.92,0,1.83-.12,2.68-.33,5.89-1.48,5.78-7.46,5.73-10.67-.03-1.93-.87-5.27-6.11-5.91ZM583.31,429.17c-2.7.68-5.91.07-7-2.81-.47-1.23-.33-2.53.39-3.65.83-1.28,2.31-2.14,3.87-2.24,1.49-.09,2.75-.74,3.64-1.85,2.22.52,2.55,1.76,2.57,2.83.08,4.52-.44,6.95-3.46,7.71Z"/>
  <path class="cls-1" d="M581.7,404.78c-17.03,1.61-21.33,10.63-22.39,15.86-2.34,11.65,6.43,23.18,13.47,32.44,1.57,2.07,3.06,4.02,4.32,5.84.53.76,1.21,1.35,1.99,1.74.87,1.66,2.63,2.86,4.5,2.99.11,0,.22.01.34.01,1.76,0,3.3-.97,4.16-2.65,1.11-2.15,2.33-4.34,3.62-6.67,5.33-9.6,11.38-20.48,11.14-31.52-.13-5.88-2.08-10.66-5.65-13.84-3.77-3.36-9.13-4.81-15.53-4.21ZM589.1,452.89c-1.3,2.34-2.53,4.55-3.66,6.75-.37.72-.93,1.06-1.63,1.02-.93-.06-1.86-.77-2.17-1.65l-.25-.7-.7-.23c-.46-.15-.82-.43-1.12-.87-1.3-1.87-2.81-3.85-4.4-5.95-6.68-8.78-15-19.71-12.92-30.03,2.07-10.29,13.25-12.85,19.73-13.46,5.54-.52,10.12.67,13.25,3.46,2.97,2.65,4.53,6.57,4.64,11.66.22,10.23-5.62,20.73-10.77,30Z"/>
  <path class="cls-1" d="M572.68,433.46c-.07-.07-.15-.13-.26-.21l-5.83-5.4,4.62,9.47,1.48-1.61s.07-.08.07-.08h0l1.09-1.12-1.17-1.04Z"/>
</svg>