<svg xmlns="http://www.w3.org/2000/svg" id="Calque_2" data-name="Calque 2" viewBox="295.96 345.72 409.51 308.96">
  <defs>
    <style>
      .cls-1 {
        fill: #4a5655;
        stroke-width: 0px;
      }
    </style>
  </defs>
  <g>
    <path class="cls-1" d="M359.81,528.62c-.19.17-.09.54.47.5l.44-.62-.91.13Z"/>
    <path class="cls-1" d="M363.36,530.28c.68-.18,1.59-.41,1.37-1.12-.82.37-.93.12-1.77.65-.54-.05-.91-.36-.78-.59-.22.14-.85-.29-1.19.12.34.25.71.47,1.13.54.42.06.88.07,1.39,0,.16.19-.07.3-.15.4Z"/>
    <path class="cls-1" d="M372.94,577.29l.08-.33c-.04.09-.07.21-.08.33Z"/>
    <path class="cls-1" d="M372.58,609.38c-.02-.24-.08-.35-.14-.36.04.23.08.41.14.36Z"/>
    <path class="cls-1" d="M371.87,614.87c.02-.12.03-.22.04-.32-.06.12-.09.25-.04.32Z"/>
    <path class="cls-1" d="M372.94,577.29l-.2.86c.21.06.16-.44.2-.86Z"/>
    <path class="cls-1" d="M370.65,532.62c-.17-.11-.33-.18-.5-.22.14.09.27.18.4.28.03-.02.06-.04.09-.05Z"/>
    <path class="cls-1" d="M372.42,563.13v-.26c-.07-.08-.16-.15-.26-.22l.26.48Z"/>
    <path class="cls-1" d="M372.32,552.28c-.02.25.52.33.76.43-.23-.14-.33-.32-.38-.54-.1,0-.23.03-.39.11Z"/>
    <path class="cls-1" d="M370.65,535.98l-.24-.19c.06.05.16.13.24.19Z"/>
    <path class="cls-1" d="M372.3,570.91c-.08.02-.15.06-.2.1.07,0,.13-.04.2-.1Z"/>
    <path class="cls-1" d="M347.22,527.35s0,.06,0,.1c.06-.06.08-.09,0-.1Z"/>
    <path class="cls-1" d="M359.81,530.06l-.17.03c-.02.1-.04.21-.04.31l.21-.34Z"/>
    <path class="cls-1" d="M371.17,624.9s0-.03.01-.04c-.06-.26-.05-.11-.01.04Z"/>
    <path class="cls-1" d="M303.83,643.12c.11.48-.27.34-.57.17-.31-.15-.62-.27-.4.48.08-.2,1.49.38.97-.65Z"/>
    <path class="cls-1" d="M370.83,532.89c.12.11.23.23.34.36-.14-.18-.24-.29-.34-.36Z"/>
    <path class="cls-1" d="M302.86,643.77h0s.05.16.05.16c-.02-.06-.03-.1-.05-.16Z"/>
    <path class="cls-1" d="M367.26,644.67c.09.05.19.05.3.05-.04-.04-.12-.06-.3-.05Z"/>
    <path class="cls-1" d="M372.28,630.79l-.07.43c.05-.17.07-.31.07-.43Z"/>
    <path class="cls-1" d="M360.48,648.09c-.21-.03-.28-.1-.56-.01.03.03.05.04.09.06.1-.08.23-.12.47-.05Z"/>
    <path class="cls-1" d="M351.26,648.13s.11.07.17.11c.09,0,.2-.02.29-.03l-.47-.08Z"/>
    <path class="cls-1" d="M318.94,527.61c.2.15.33.32.43.49-.14-.39,1.22-.53-.43-.49Z"/>
    <path class="cls-1" d="M370.44,532.85c.14-.06.25-.05.39.04-.09-.07-.19-.14-.27-.21-.08.04-.14.09-.12.17Z"/>
    <path class="cls-1" d="M360.25,652.42h-.44l-.37-.02-.74-.04c.21.03.44.05.7.06.13,0,.26,0,.39.01h.47Z"/>
    <path class="cls-1" d="M296.67,582.65l-.07-.34c-.01.13,0,.25.07.34Z"/>
    <path class="cls-1" d="M354.32,652.44c-.26-.19-.54-.31-.83-.38-.06.04-.13.08-.17.14l1,.24Z"/>
    <path class="cls-1" d="M319.38,528.11h0s0,0,0,0Z"/>
    <path class="cls-1" d="M329.11,526.81c-1.41-.02-.66.7-.96,1.12-1.68.2-.78-.53-1.35-.9-1.05.19-1.85.85-2.64.82-.06-.12-.21-.16-.03-.31-1.11.57-3.29.03-4.59.75-.1-.06-.14-.12-.17-.18.21.36.24.73.2.99-.63.01-1.17.45-1.41-.02.39.01.42-.18.6-.32l-.66.2c-.6-.68.9-.23.9-.73-1.29.22-2.79.78-3.78.59-.21-.66,2.31-.22.99-.81l1.53.25c-1.17-1.04.93.07-.14-1.04-2.01-.19-2.25.34-4.26.14-.45.37.15.54-.3.91-.77.19-1.33.2-1.75.12-.43-.05-.74-.2-1.04-.35-.59-.32-1.13-.54-2.21.19-.23.32-.34.69-.59,1.01-.26.31-.64.56-1.48.74.06-.31.13-.62.2-.93-1.05.45-1.2.86-1.36,1.22-.17.37-.38.62-1.44,1.12.08-.24.39-.56.65-.78.27-.21.48-.35.31-.3-.82.14-.96.44-1.04.7-.07.29-.07.57-.5.94l-.61-.34c-1.76,1.69-3,4.11-3.8,6.53-.14-.2-.17-.71-.57-.21-.5,1.61-.87,3.35-1.08,5.11-.09.81-.18,1.61-.26,2.4-.1.75-.19,1.48-.29,2.18l.57,1.07c0,.25-.26.46-.37.19-.22,1.09.36.06.59.58.04.62-.33.82-.5.43.48,1.92,1.04,5.48.43,7.5l-.17-.39c-.23,1.58,1.17,1.78.64,3.24l-.1-.28c-.25,3.42.28,7.21-.59,9.82.82.5-.37,3.39.78,3.61-.57,1.96-.77,1.39-1.16,4.15-.05.73.72,1.1.84,2l-.6.02.63,1.23-.72.66.15.85c.04-.34.27-.72.44-.67.27,1.33-.42,3.25-.73,3.28l.51,3.15c-.24-.07-.32-.6-.48-1.01.61,1.68-.63.31-.07,1.85.14-.21.36.11.48.15-.36.77-.37,2.52-.21,3.81l-.41-.25c-.11,2.34.2,4.93.19,7.55.19-.94.91-.72.98.04l-.63.31c.39.5.24-.8.72.22-.07.98-.72.66-.93.1l.22,1.19c-.19.07-.29-.21-.53-.28.39.49-.64,2.06.05,2.76l-.19.07c0,2.62.21,3.81.24,5.95.55.04.43.88.87,1.51-.17,1.57-.6,3.31-.56,5.2.27,1.33.46.39.79.99-.5.1-.45,1.99-.81,1.01.08,2.27.1,2.9.5,5.77.2-.31.29-.66.46-.48.08.52-.21,1.19-.45,1.11l-.05-.14c.75,3.22-1.45,7.44-.41,10l-.05-.14c.2.93.41,2.01.78,2.95.13,1.4-.5-.77-.64.31.73,1.57,1.11,2.79,1.59,3.94.12.29.24.57.36.85.14.27.29.54.45.8.3.54.74,1.02,1.25,1.47.08,1.27,1.45,2.77,3.2,3.81,1.74,1.09,3.73,1.71,5.04,2.53l-.07-.38c.81-.15.83.45,1.38.61-.04-.26-.74-.47-.25-.55,1.53.2,3.27.23,4.56.24,1.39.03,2.79.12,4.19.23,2.81.22,5.63.53,8.4.68,2.03.09,1.15-1.79,3.71-.96l-.73.64c4.09-.77,8.37.03,12.37-.63-.24.15-.25.34-.64.34.85.47,3.13.02,3.14-.36.62.04.14.34.53.54.85.28,2.13-.6,2.58-.13.08.08-.24.15-.39.19.55-.23,2.58.06,2.05-.48,1.5.26,2.88-.24,4.08.08.78-.6,2.57.29,2.82-.56-.1.88,2.62.71,3.6.29-.37.28.97.23.54.62,1.3-.03,2.44-.47,2.14-.85,1.24.33,2.37-.23,3.26-.78.9-.56,1.61-1.07,2.52-.85,3.05-2.37,4.94-5.38,5.97-8.44.41.22.03,1.07-.34,1.88-.43.77-.85,1.53-.45,1.72.74-1.47,1.08-2.72,1.29-3.96.25-1.23.37-2.43.66-3.93.18-.78.35.49.43.79.06-.8,0-1.58.04-2.34-.02-.67-.01-1.32,0-1.96,0-1.29,0-2.54-.24-3.76.08,0,.17.27.24.52-.03-.48.13-1.12-.27-1.07l.11.47c-.58.77-1.21-1.91-1.52-2,1.14.82.29-2.42,1.73-1.12-.08-.32-.26-.71-.53-.64.08-.47.23-.62.54-.14-.22-1.73-.64-1.11-.63-2.68.19,0,.27.32.5.48-.38-.79-.75-1.59-.59-2.91.12.08.27-.07.27.32-.06-2.27-1-3.87-.64-6.36.84.73.28-.85,1-.98l-.22-1.34-.35.54c.01-1.17-.52-2.21-.28-3.22l.3.87-.14-2.2-.28,1.24c-.37-1.19-.92.13-.72-1.43.07.32,0-1.17.44-1.78h0c-.23-.58-.48-1.17-.29-2.04.23-.23.8.18.96.03-.61-.57-.17-2.75-.82-3.47.15.24.53.25.61.17l-.49-.48c.16-.54.23-.62.54-.53.09-1.63-.92.52-.52-1.42.04.15.11.08.19.4.21-1.95-.31-3.76-.07-5.55.73-.53.18,1.56.8.96-.13-2.58-.88-5.34-.7-7.84l-.08.47c-1.03-.35.51-1.86.02-3.12.08.31.57.41.46.32.17-1.71-.25-3.5-.58-6.09l.27.32c.24-1.01.14-2.65.26-3.74-.26-.32-.22-.95-.61-.57,1.51-3.36-.81-6.4.45-9.38,0,.36.23.85.23.57l-.24-2.54c-.45.2-.27.33-.62.87-.27-.32-.47-1.04-.47-1.67.3,1.14.72,0,.97-.5-.14.08-.29-.09-.43-.04.8-1.33-.91-.22-.37-2.03l.24.1c-.12-.68-.43-1.3-.37-2.03.52-.3.24.72.67.77-.03-1.03-.99-2.02-.47-2.95.15.44.15,1.06.29,1.5.61-1.01.46-1.13.55-1.88v.07s.26-1.74.26-1.74l-.17.44c-1.36-1.28-.25-2.61-1.14-4.34.84,1.68.49.28,1.08.41.16-.44.35-1.11.51-.92-.48-.82.37-1.36-.32-2.52.19-.05.02-.87.5-.69-.15-1.06-.33.25-.57.16-.16-.41-.19-.85-.16-1.33.05-.5.1-1.03.16-1.58.13-1.16,0-2.48-.77-3.6-.53-.99-1-1.49-1.51-1.92-.47-.45-.99-.81-1.62-1.51-.13-.7.88.04.86.06-.35-1.05-.92-1.69-1.77-2.27.26.04.22-.21.15-.6-.66-.53-.87.12-1.5-.78.29-.06.68-.16,1.13-.04-.42-.29-.9-.48-1.38-.67-.47-.21-.96-.35-1.43-.53-.07-.42.78-.12,1.22-.09-1.06-.55-2.8-1.23-3.32-.83.2.13.4.29.58.45-.37-.15-.01-.5.31-.46,1.08.04,1.17.81,1.11,1-.22-.08-.44-.18-.67-.24.06.65.65.95,1.39,1.24.36.16.76.3,1.14.48.36.2.7.42.95.67-.33.06-.66.13-.98.2.5.14,1,.3,1.47.52.05.37-.16.81-.69.4.34.96.8.44.93,1.38,0,.11-.06.1-.13.06.25.2.5.39.72.62-.24-.06-.4.43-.6-.1.23.81.69,1.27,1.02,1.7.36.41.62.76.43,1.15l-.09-.11c.53.99.63,1.03.83.96.19-.07.41-.24.98.56-.36.5-.82.98-1.24,1.41l.62.14c.03.24-.01.71-.25.64.45.85.25-.17.66.32-.47,1.17.27,3.24-.66,3.5.45.42.35-1.12.66.13-1.02.36.17,1.45-.29,2.53-.53-.33-.25-1.35-.72-.27.89.65-.19,2.09-.02,3,.71.04.29,1.97.53,3.49-.24-.1-.39,2.86-.64,4.28l-.12-.04c.71.27.58,1.73.73,2.8-.43-.04-.6-.23-.79-.81v1c.23.24.35.55.44,1.2l-.53-.25c.03,1.33.63,2.68.27,4.39.5.1,1.39-1.36,1.72.45-.27.07-.73.13-.84-.34.03.15.22.55.11.86l-.45-.72c-.2.78.38.41.34,1.03-.38-.01-.27.46-.58.37-.04-.16.16-.54,0-.78-.07.7-.3,1.55-.59,1.83.22-.06.52,0,.57.51.03,1.33-.46.46-.66,1.23.27.32,0,1.17.57,1.19,0,.39-.27.46-.43.61.25.69.07,3.21.68,2.44l.04-.18s.02.07.03.11h0s0,0,0,0c.57,2.25-.33,4.68-.08,6.92h-.19c.22,1.33.13,2.97.54,3.92,0,.39-.35.93-.58.76.14,1.02.36,1.13.04,2.61-.34-1.03-.3.35-.25-1.05-.17,1.33-.47,1.63.05,3.05-.49-.48-.62,1-.47,1.63l.35-.93c.07.71.03,1.33-.01,1.96l-.65-.34c-.79,2.71,1.34,4.89.02,6.96.45.72.32-1.47.85-.83-.09,1.25-1.02,2.55-1.02,2.94-.36,1.71.95,1.6.7,3.39.23-.23.85-.45,1.07.89-.09,1.25-.97,1.54-1.15.75-.02-.3.05-.44.13-.43-.08-.4-.18-.93-.43-.44l.23.16c-.24.62-.21,2.34-.59,1.93.22.94.38.4.5-.3-.33,1.6,0,2.5-.23,4.15.13-.26.4-.5.4-.24-.29,2.42.44,1.07.54,2.71-.35.93-.84-.33-.55,1.32-.24,1.01-.61.21-.8-.19.45,1.5-.29,2.81-.37,3.67l-.19-.79c.11.47.11.86.11,1.26l.46-.45c-.08.46-.08.86-.27.85.3.48.77-.37,1.18.58-.23.62.25,1.89-.36,2.1.21-1.95-.62.21-.72-1.44.07.32.07.71-.01,1.17-.07.07-.13-.07-.16-.19-.55,1.87.69.86.68,2.79-.35-.25-.66.45-.58.76,0-.78.58-.37.84.34-.27,1.24.2,1.35.17,2l.13-.74c.35.25.3.87.41,1.74-.27.07-.19-.79-.3-.48.61.96-.63,2.17-.22,3.51-.23.62-.65.06-.81.6.4,1.37-.51,1.34-.36,2.67.51-.27.47-.39.66.66.05-.38.08-.76.07-1.14,0-.38.02-.75-.04-1.13.23.49.33,1,.49,1.54.06-.35.04-.73.03-1.07-.05-.34-.09-.64-.04-.85.34.73.23.67.63.34-.35.48-.34.95-.29,1.49.08.53.04,1.09-.31,1.59l-1.09-.37c-.24.34-.41.67-.5,1.02-.11.35-.22.7-.3,1.09-.09.38-.24.76-.42,1.17-.21.39-.48.79-.87,1.15.21-.12.38-.27.58-.41.2.53-.79,1.08-1.17,1.68-.22-.32-.64-.13-1-.12.11.1-.18.35-.48.62-.29.3-.59.64-.48,1-.37.02-.72.05-1.07.05-.41.13-.68.32-.9.53-.23.19-.41.4-.59.62-.36.46-.78.85-1.65.99.41-.52-.37-.61.62-1.17-.52.14-1.01.17-.97.42-.18-.09-.53.09-.92.27-.4.14-.84.25-1.1.09-.22.19-.33.58-1.03.55-.08-.08,0-.19,0-.19,0,.19-1.1.26-.49.68-1.93-1.2-5.39.09-7.07-.94-1.37.13-3.01.25-4.25.28.08-.12,0-.19.24-.15-1.71-.36-1.05,1.1-3,.71-.99-.62,1.03-.34.41-.57-.27-1.27-2.35.17-3.66-.57l.32-.07c-1-.43-2.44.48-4.08.39,0,0,.08-.11,0-.19-1.12.64-3.24.86-4.81,1.04.49-.49.71-.26.42-.76-.71.07.21.81-1.2.95-.46-.27-1.47-.51-1.61-1.04l1.33-.03c-.68-.69-1.72.02-2.42-.1l.09-.3c-2.04.1-2.06.86-4.25.81l.23.23c-1.2.76-1-.43-2.19.14l-.36-.77c-.79.19-2.76.74-4.18.89.8-.57,2.46-.86,3.48-1.2-.78,0-2.66.06-3.06.44.32-.07.71-.26,1.02-.14-.96.6-2.22.9-3.78.89.31-1.51-4.2-.31-4.88-1.67-1.2.13-2.36-.3-3.41-.92-1.06-.62-2-1.44-2.99-2.34-.07,1.51-.61-.51-1.33.4-.52-.46-.69-.67-.66-.77l-.33-1.04c-.09-.35-.15-.7-.22-1.04.06-.56.55.39.74.2-.63-1.21.14-.75.04-1.64-.31.35-.78-.15-.86-.93-.04.38-.13.81-.11,1.21-.66-.77-.59-1.28-.43-1.75.07-.23.14-.46.13-.73,0-.27-.05-.6-.29-1.04l.46.53c-.08-.22-.19-.55-.23-.93-.02-.19-.04-.4-.07-.61l-.04-.32-.03-.4c-.09-1.09-.27-2.17-.75-2.75.14-.21.46-.49.55.04.14-2.83-1.02-6.3-.43-8.5l.29.21c-.08-.53-.55-.92-.25-1.58.12.03.29.21.31-.03-.1-.28-.51-1.4-.34-2.1l.33.6c.38-2.76-.8-4.23-1-6.55.86,0,1.14-2.17,1.27-3.25l.12.04c.11-3.21-.71-5.46-1.05-8.43.93-1.85.39-6.26.91-9.22-.16.45-.67-.07-.75-.6.17-.7-.59-1.93.19-1.82l-.02.25c.77-.52.57-1.96.59-3.07l-1.03-.18c1.5-2.92-.55-7.66.79-9.26-.26-.71-.25-1.58-.51-2.28l.55.04c.14-1.96.21-2.93.08-5.35l.39.49c.04-1.36-1.59-1.72-1.62-2.98l.82-.38c-.01-2.38.71-4.78-.04-7.13.12.04.36.11.39.49.02-1.12.56-4.33-.57-3.92.74-.03.07-2.45-.25-3.74l.54.2c-.69-1.08-.88-1.12-1.07-2.63.07-.36.43-.31.3.16.28-1.2-.51-.93-.22-2.38l.35.54c.04-1.23-.14-1.13-.55-1.81-.22-.77.14-2.33.63-2.51-.3-.17-.7-.84-.56-1.56.19-.1.3.17.36.3.08-.53.11-.93.1-1.29-.02-.36-.08-.7-.09-1.01-.02-.31-.04-.62,0-.91.06-.29.17-.57.38-.85.18.02.29-.03.36-.12-.09.35-.18.68-.26.98-.06.3-.1.58-.15.8-.1.45-.12.71-.14.66.46.02.75-1.03,1.29-.1-.1-.43-.37-1.07-.4-1.73-.09-.67.04-1.36.34-1.83.07-.03.13-.06.22-.06v.12c.16-.21.21-.43.23-.66.21-.28.39-.44.57-.72.22.05.41-.19.62-.49.23-.28.43-.65.61-.85-.46-.31.12-.81-.7-.58.09-.05-.03.12-.23.45-.04.08-.09.17-.1.23,0-.02,0-.04-.01-.06-.23.3-.48.73-.76,1.22,0-.53.05-1.11.71-1.44-.11-.46-.17-.97-.15-1.22,1.13-.18,2.55-.86,3.01-.57.15-.15.31-.31.47-.48.18-.14.37-.29.56-.43.37-.31.8-.54,1.19-.81.4-.27.8-.48,1.14-.76.35-.25.66-.51.89-.84.49-.26.66.18.87.3-.28.14-.62.18-.74.38.23-.14.53-.21.86-.3.32-.08.67-.18,1-.22.33-.06.63-.13.88-.23.26-.09.46-.22.52-.4,1.44.32-.81.66,1.17.54l-.27.22c3.89,1.15,6.33-1.83,10.64-.36-.3-.09-.45-.13-.51-.25,4.92.65,10.14-.61,14.99.42,1.38.21,1.53-.25,2.37-.6l.3.59,1.44-.68c2.04-.5,3.53,1.44,6.12.5l-.33-.4c.93.08,2.94-.23,2.79.22.09-.07.3-.41.67-.21l.03.31,2.28-.53c1.77.22-.28,1.22,2.3,1.28.96-.12,2.73-.9,2.37-1.1-.39-.01-.99-.19-1.02-.5l.88-.16c.16-.91.83-1.83-1.32-2.47l-1.5.55-.48-.44,1.26-.03c-.72-.41-1.17-.05-1.68.2-.12-.23-.33-.4-.63-.48l-1.47.87c-.18-.36.66-.7-.33-.9-.69.4.66.8-.48,1.06-.72-.41-.51-.75-1.35-.4-.12-.23.06-.38.39-.49-.75.28-1.98.12-2.37.6-.75-.51-2.53.13-2.46-.73-.24.21-1.32.67-2.01.71,1.26-1.03-2.58-.06-2.25-1.16-.93.92-3.36.41-5.01.92.09-.07.27-.22.42-.17-.93-.08-1.2-.35-1.79-.53-.12.76-1.56.94-2.34,1.41-1.14-.74.69-.9.33-1.6.06.62-1.98.62-1.59,1.13-.87-.46-.75-.22-1.2-.85-.15.95-.81.16-1.53.75-1.26-.47-.32-.89-1.71-.6-.66-.29.57-.63.57-.63ZM298.55,538.22s-.01,0-.01,0c.09-.3.2-.54.27-.7-.06.15-.16.34-.26.71ZM297.71,541.15c.06-.37.21-.81.32-1.28.21-.05.37.11.28.4-.07-.19-.39.46-.6.89ZM303.28,537.36c-.13.35-.28.4-.4.38.09-.15.16-.35.29-.58-.01-.02-.02-.05-.03-.07.06.09.12.18.14.27Z"/>
    <path class="cls-1" d="M303.1,536.4c.02-.05.02-.09.06-.15-.08.03-.16.07-.24.11.02.07.04.15.05.21.04-.06.08-.12.12-.17Z"/>
    <path class="cls-1" d="M373.03,576.89v.06s.03-.09.07-.12c-.03.04-.04.04-.07.06Z"/>
    <polygon class="cls-1" points="296.4 579.57 296.54 579.57 296.42 579.32 296.4 579.57"/>
    <path class="cls-1" d="M374.91,561.67s.1-.09.14-.2c-.04,0-.09.09-.14.2Z"/>
    <path class="cls-1" d="M375.03,555.09l.19-.93c-.11.4-.16.7-.19.93Z"/>
    <path class="cls-1" d="M375.3,550.03c-.1-.06-.17-.08-.23-.1h0s.24.1.24.1Z"/>
    <path class="cls-1" d="M375.94,630.44c0,.07.01.13.02.2.11.46.06.15-.02-.2Z"/>
    <path class="cls-1" d="M374.66,606.51c.1.25.2.5.26.77.04-.43.05-.76-.26-.77Z"/>
    <path class="cls-1" d="M360.45,652.42s0,0,0,0c-.07,0-.13,0-.2,0h.19Z"/>
    <path class="cls-1" d="M374.91,608.39c.11-.43.09-.78,0-1.11-.04.35-.09.76,0,1.11Z"/>
    <path class="cls-1" d="M366.53,529.73l-.24-.14s-.04.05-.07.07l.3.07Z"/>
    <path class="cls-1" d="M366.23,529.66l-.3-.07c.12.06.23.11.3.07Z"/>
    <path class="cls-1" d="M365.29,529.5c.21.03.43.06.64.1-.2-.09-.45-.19-.64-.1Z"/>
    <path class="cls-1" d="M372.11,534.57l.21-.05c-.06-.01-.13,0-.21.05Z"/>
    <path class="cls-1" d="M373.4,536.41c-.24-.47-.32-1.41-.91-1.93l-.17.04c.22.06.4.46.53.89.13.44.27.87.55,1.01Z"/>
    <path class="cls-1" d="M372.9,545.33c.05-.56.12-1.16.14-1.69-.2.29-.46.64-.55-.07-.59,2.07.48-.46.41,1.75Z"/>
    <path class="cls-1" d="M372.59,550.62c-.1-.92-.31.01-.43-.04.19.58.24.72.43.04Z"/>
    <path class="cls-1" d="M372.59,588.82l-.5-.09c.07.71.19,0,.5.09Z"/>
    <polygon class="cls-1" points="375.16 596.12 375.47 595.44 375.02 595.11 375.16 596.12"/>
    <polygon class="cls-1" points="371.62 600.44 371.55 600.13 371.73 601.31 371.62 600.44"/>
    <path class="cls-1" d="M352.91,647.65l.21.61c.48-.11.58-.8-.21-.61Z"/>
    <path class="cls-1" d="M325.21,648.27c-.3-.31-1.08-.5-1.56-.2.62.04,1.24.28,1.56.2Z"/>
    <polygon class="cls-1" points="301.32 586.92 301.52 587.47 301.35 586.42 301.32 586.92"/>
  </g>
  <g>
    <path class="cls-1" d="M468.9,471.17c-.25.21-.12.65.63.6.19-.25.38-.5.59-.75l-1.21.15Z"/>
    <path class="cls-1" d="M473.53,473.41c.89-.12,2.11-.25,1.88-1.16-.56.13-.87.17-1.18.19-.31.03-.63.04-1.2.35-.72-.09-1.17-.56-.99-.81-.29.14-1.13-.35-1.58.07.44.38.93.59,1.48.73.54.17,1.15.15,1.82.16.19.25-.12.36-.22.47Z"/>
    <path class="cls-1" d="M481.83,537.44l.09-.44c-.05.12-.08.27-.09.44Z"/>
    <path class="cls-1" d="M481.4,579.59c-.02-.32-.1-.46-.17-.47.05.3.1.54.17.47Z"/>
    <path class="cls-1" d="M480.54,586.79c.02-.16.04-.28.05-.42-.07.16-.11.33-.05.42Z"/>
    <path class="cls-1" d="M481.83,537.44l-.25,1.13c.26.08.19-.58.25-1.13Z"/>
    <path class="cls-1" d="M482.41,478.14c-.17-.21-.35-.36-.56-.46.16.15.3.31.43.49.04-.01.08-.02.13-.03Z"/>
    <path class="cls-1" d="M481.2,518.87v-.34c-.09-.1-.2-.19-.32-.28l.32.63Z"/>
    <path class="cls-1" d="M481.08,504.61c-.03.32.64.43.93.56-.27-.18-.4-.42-.46-.7-.13,0-.28.04-.47.14Z"/>
    <path class="cls-1" d="M481.47,482.32l-.22-.33c.06.08.14.23.22.33Z"/>
    <path class="cls-1" d="M481.05,529.07c-.1.02-.19.07-.24.13.08,0,.16-.05.24-.13Z"/>
    <path class="cls-1" d="M452.37,469.62s0,.08,0,.12c.08-.07.11-.11,0-.12Z"/>
    <path class="cls-1" d="M468.9,472.92l-.23.04c-.02.13-.05.25-.05.37l.28-.41Z"/>
    <path class="cls-1" d="M479.69,599.96s0-.03.01-.06c-.08-.35-.06-.15-.01.06Z"/>
    <path class="cls-1" d="M411.68,640.16c-.02.62-.41.31-.74,0-.32-.3-.64-.57-.63.43.08-.13.51.15.86.25.35.1.64.02.51-.68Z"/>
    <path class="cls-1" d="M482.55,478.55c.12.18.24.37.35.57-.14-.27-.25-.44-.35-.57Z"/>
    <path class="cls-1" d="M410.31,640.59h0s.03.2.03.2c0-.08-.01-.13-.02-.2Z"/>
    <path class="cls-1" d="M480.09,630.3c.12-.06.21-.18.29-.31-.07.01-.15.08-.29.31Z"/>
    <path class="cls-1" d="M481.03,607.69l-.09.56c.06-.22.08-.4.09-.56Z"/>
    <path class="cls-1" d="M479.78,640.98c-.17.21-.26.26-.37.61.05-.01.08-.03.13-.05,0-.15.01-.33.24-.55Z"/>
    <path class="cls-1" d="M471.84,647.42c.07.04.15.05.22.08.1-.04.22-.08.32-.12l-.54.04Z"/>
    <path class="cls-1" d="M414.2,471.87c.38.02.64.12.87.25-.41-.33,1.46-1.42-.87-.25Z"/>
    <path class="cls-1" d="M482.1,478.35c.18-.02.32.03.46.2-.09-.13-.18-.25-.27-.38-.1.02-.19.06-.19.18Z"/>
    <path class="cls-1" d="M484.23,643.84c-.44.67-.84,1.37-1.36,1.97.47-.48.93-1.23,1.36-1.97Z"/>
    <path class="cls-1" d="M405.28,559.16l-.08-.45c-.02.17,0,.33.08.45Z"/>
    <path class="cls-1" d="M477.7,650.62c-.48.03-.94.12-1.39.23-.06.09-.15.18-.17.27.52-.15,1.06-.29,1.57-.5Z"/>
    <path class="cls-1" d="M415.07,472.12s0,0,0,0c0,0,0,0,0,0Z"/>
    <path class="cls-1" d="M428.59,468.97c-1.85-.02-.87.86-1.26,1.36-2.21.25-1.02-.64-1.77-1.09-1.38.23-2.44,1.03-3.46,1-.07-.15-.31-.19-.04-.38-.42.19-.97.31-1.55.39-.58.11-1.22.23-1.86.35-1.27.32-2.55.8-3.25,1.62-.16,0-.26-.04-.32-.09.47.26.69.65.77.96-.4.2-.71.49-.97.71-.26.23-.49.36-.78.21.47-.27.4-.49.53-.78l-.69.71c-1.17-.23.95-.94.7-1.43-1.65,1.13-2.87,3.04-3.96,3.93-.39-.15.1-.86.57-1.32.44-.48.76-.82-.22-.42.63-.47,1.33-.83,2-1.2-1.07,0-.79-.18-.47-.4.31-.21.67-.43-.43-.51-1.4.86-1.99,1.59-2.55,2.31-.54.73-1.07,1.45-2.03,2.74,0,.84.68.16.7.98-.71,2.03-1.34,2.63-2.06,3.18-.62.55-1.3,1.07-.99,2.82.19.46.57.79.8,1.26.11.24.2.51.21.86.02.32-.01.7-.15,1.19l-.91-.67c-.09,2.56,1.31,1.46.7,4.14-.36-.48-.3-2.01-.41-1.62-.72,1.74.52,1.23.52,2.56l-.8.28c.13,2.72.71,5.73.85,8.74-.24-.17-.49-.68-.74.02.4,3.81-.1,8.12-.58,11.79l.69,1.4c0,.33-.31.61-.45.25-.26,1.43.44.07.71.76.05.81-.4,1.08-.61.56.59,2.52,1.27,7.19.52,9.85l-.21-.52c-.28,2.07,1.42,2.34.78,4.26l-.12-.37c-.3,4.5.34,9.46-.71,12.89,1,.65-.45,4.45.95,4.74-.69,2.57-.94,1.83-1.41,5.45-.06.97.87,1.44,1.02,2.63l-.73.03.77,1.62-.87.86.19,1.12c.04-.45.33-.95.54-.88.33,1.75-.51,4.26-.88,4.31l.62,4.14c-.29-.09-.39-.78-.58-1.33.74,2.21-.77.4-.09,2.42.17-.27.43.15.58.19-.44,1.01-.45,3.31-.26,5l-.5-.33c-.13,3.07.24,6.47.23,9.91.23-1.24,1.11-.95,1.19.06l-.77.4c.48.65.29-1.05.87.28-.09,1.29-.88.86-1.13.13l.27,1.56c-.23.09-.35-.28-.65-.37.48.64-.77,2.7.06,3.63l-.23.09c0,3.44.26,5,.3,7.81.67.06.52,1.15,1.06,1.99-.21,2.06-.74,4.35-.68,6.83.33,1.75.56.51.96,1.29-.61.13-.55,2.61-.98,1.32.1,2.98.12,3.81.61,7.58.25-.41.36-.87.56-.63.1.68-.25,1.56-.55,1.46l-.06-.18c.91,4.23-1.77,9.77-.5,13.13l-.06-.19.66,3.49c-.11,1.61-.46-.96-.83.23.25.94.37,1.79.41,2.57.02.4.02.75.03,1.16,0,.43.01.86.02,1.27.09,1.65.29,3.3,1.31,4.88-.3,1.65,1.05,4.11,3.09,5.96,2.05,1.89,4.61,3.1,6.32,4.28l-.07-.47c1.09-.03,1.09.62,1.83.91-.03-.34-.98-.65-.31-.71,1.04.23,2.11.36,3.18.43.51.01,1.13.06,1.56.05l1.36.02c1.82.04,3.66.14,5.5.28,3.69.27,7.39.64,11.03.83,2.66.11,1.51-2.18,4.87-1.17l-.95.78c5.37-.94,10.99.03,16.25-.76-.31.18-.32.42-.84.41,1.11.57,4.11.03,4.13-.44.82.05.19.42.69.66,1.11.33,2.8-.73,3.39-.16.1.09-.31.18-.52.23.38-.14,1.16-.11,1.92-.16.82-.07,1.41-.18.96-.48,1.19.08,2.32-.21,3.34-.56,1.02-.36,1.93-.76,2.86-1.01.41-.57,1.29-1.01,2.07-1.47.76-.49,1.4-.98,1.19-1.51.27.45,1.24-.03,2.08-.99.87-.92,1.53-2.27,1.67-3.03.01.29.25.06.5-.17.23-.24.47-.47.53-.09.19-.4.36-.79.5-1.16.12-.38.2-.73.24-1.02.09-.58,0-.94-.31-.88,1.05-1.33,1.08-3.04.88-4.43-.03-.37-.08-.66-.12-.92-.03-.27-.05-.54-.03-.78.03-.5.2-.94.61-1.31-.58-4.23-.96-8.15-1.22-11.95,1.07.14.11,4.21,1.23,4.04-.44-3.61-1.36-5.69-1.1-9.27.15-.93.46.53.65.84-.44-3.61.1-6.98-.48-10.18.1,0,.21.36.29.68-.04-.63.16-1.47-.33-1.4l.13.62c-.7,1.01-1.47-2.51-1.84-2.63,1.39,1.07.35-3.17,2.11-1.46-.09-.42-.32-.94-.65-.84.09-.62.28-.81.65-.19-.26-2.27-.78-1.46-.77-3.51.24,0,.33.42.6.63-.46-1.04-.92-2.08-.72-3.82.14.1.33-.1.32.42-.07-2.98-1.22-5.08-.78-8.35,1.02.96.34-1.11,1.22-1.29l-.26-1.76-.43.71c.02-1.54-.63-2.9-.34-4.22l.36,1.14-.17-2.88-.33,1.63c-.46-1.56-1.12.17-.87-1.88.09.42.01-1.54.53-2.34h0c-.28-.76-.58-1.54-.36-2.68.28-.3.98.24,1.16.04-.74-.75-.2-3.61-.99-4.56.18.32.65.33.74.23l-.6-.63c.19-.71.28-.82.65-.7.11-2.15-1.12.68-.64-1.86.05.2.14.1.23.52.25-2.56-.38-4.94-.09-7.29.89-.69.22,2.05.97,1.26-.16-3.39-1.07-7.02-.86-10.29l-.1.61c-1.26-.45.62-2.44.03-4.1.09.41.7.53.56.42.2-2.25-.31-4.59-.7-7.99l.32.42c.29-1.32.17-3.48.31-4.91-.32-.42-.27-1.24-.74-.75,1.84-4.41-.98-8.41.55-12.32,0,.47.28,1.11.28.74l-.3-3.33c-.55.26-.33.44-.76,1.14-.32-.42-.58-1.36-.58-2.19.36,1.5.88-.01,1.18-.66-.17.11-.35-.11-.52-.06.97-1.74-1.1-.29-.45-2.67l.29.13c-.15-.89-.53-1.71-.44-2.67.63-.4.3.95.82,1.01-.04-1.35-1.2-2.66-.57-3.88.18.57.18,1.39.35,1.97.74-1.33.55-1.48.67-2.47l-.02.1.34-2.28-.2.58c-1.65-1.69-.3-3.43-1.38-5.7,1.02,2.21.59.36,1.31.53.2-.58.42-1.46.62-1.21-.58-1.07.46-1.79-.39-3.3.23-.07.02-1.15.6-.91-.18-1.39-.4.33-.69.21-.79-2.15.96-5.05-.13-8.15-.21-1.3-.56-2.19-.91-2.96-.21-.38-.41-.75-.61-1.16-.21-.41-.48-.86-.71-1.43.03-.45.29-.36.54-.14.23.23.44.58.44.58-.01-1.47-.54-2.5-1.4-3.54.32.13.32-.18.33-.68-.63-.93-1.08-.16-1.66-1.51.35.03.86.04,1.41.33-.96-1-2.17-1.66-3.3-2.36-.01-.55,1,.08,1.56.24-.32-.23-.69-.5-1.06-.77-.38-.26-.81-.48-1.19-.68-.79-.38-1.54-.54-1.88-.39l.69.68c-.47-.25.04-.62.46-.5,1.38.32,1.4,1.29,1.29,1.5-.27-.16-.56-.3-.83-.45,0,.82.69,1.31,1.56,1.89.85.58,1.88,1.27,2.34,2.11-.42-.05-.81-.09-1.23-.09.56.34,1.12.73,1.66,1.16-.05.49-.44.95-.94.24.09,1.33.83.85.69,2.06-.04.14-.1.1-.18.02.24.33.44.69.63,1.06-.26-.17-.62.36-.66-.37.02,1.08.31,1.84.55,2.51.19.67.38,1.19,0,1.62l-.06-.19c.33,3.11.72.3,1.57,2.63l-1.78,1.57.72.31c-.03.32-.08.96-.37.84.49,1.19.31-.2.78.49-.66,1.54.31,4.26-.84,4.61.55.55.42-1.48.81.17-1.24.47.21,1.91-.36,3.32-.64-.43-.3-1.77-.87-.36,1.08.85-.24,2.75-.03,3.94.86.06.36,2.59.64,4.58-.29-.13-.47,3.76-.78,5.61l-.14-.05c.87.36.71,2.27.88,3.67-.52-.06-.73-.31-.96-1.06v1.31c.28.31.43.72.53,1.57l-.65-.33c.04,1.75.76,3.51.33,5.76.61.13,1.69-1.79,2.09.59-.33.09-.89.18-1.02-.45.04.2.27.73.13,1.14l-.55-.95c-.24,1.02.46.53.41,1.35-.47-.02-.33.61-.7.49-.05-.21.19-.71,0-1.03-.08.92-.36,2.04-.71,2.41.27-.08.63,0,.69.67.03,1.75-.56.6-.8,1.62.32.42-.01,1.54.69,1.57,0,.51-.33.6-.52.8.31.9.09,4.22.83,3.2l.05-.23s.02.09.03.15h0s0,0,0,0c.69,2.96-.4,6.15-.1,9.09h-.23c.27,1.75.16,3.9.66,5.15,0,.52-.43,1.22-.71,1,.18,1.34.44,1.49.05,3.43-.41-1.35-.36.46-.3-1.38-.2,1.74-.58,2.14.06,4.01-.6-.64-.75,1.31-.57,2.14l.43-1.22c.09.93.03,1.74-.02,2.57l-.79-.45c-.96,3.56,1.63,6.43.03,9.14.55.94.39-1.94,1.03-1.09-.11,1.64-1.24,3.35-1.24,3.86-.44,2.25,1.15,2.09.85,4.45.28-.3,1.03-.58,1.29,1.17-.1,1.64-1.18,2.02-1.4.98-.02-.39.07-.58.16-.57-.1-.53-.22-1.23-.53-.58l.28.21c-.29.81-.26,3.07-.72,2.54.27,1.24.46.53.61-.39-.41,2.1-.01,3.29-.29,5.45.15-.34.48-.66.48-.32-.35,3.18.53,1.4.66,3.55-.43,1.22-1.02-.44-.66,1.73-.29,1.32-.75.28-.97-.25.54,1.97-.36,3.69-.46,4.82l-.23-1.04c.13.62.13,1.13.13,1.65l.56-.59c-.1.61-.1,1.13-.33,1.12.37.63.93-.48,1.44.77-.29.81.31,2.48-.44,2.76.25-2.56-.75.28-.87-1.88.09.42.09.93-.01,1.54-.08.09-.15-.09-.2-.25-.67,2.45.84,1.13.83,3.67-.42-.32-.8.59-.71,1,0-1.02.7-.49,1.02.45-.33,1.63.24,1.77.21,2.62l.15-.97c.42.33.37,1.14.5,2.28-.33.1-.23-1.03-.37-.63.74,1.26-.76,2.85-.27,4.6-.28.81-.79.08-.98.79.54,1.97-.58,2.13-.13,4.2.56-.6.43-.7.98.76l-.4-3.4.82,2.18c0-1.03-.36-2.17-.26-2.78.46,1.04.32.93.79.44-.85,1.41.49,2.79-.08,4.41l-1.4-.05c-.62,2.44.72,4.34.37,7.51l.24-1.02c.56.42.08,1.96.3,2.98-.47-.1-.64.55-.93.98.35-.05-.03,2.32.9,2.61l-.62,1.42c-.06.64-.01,1.14.1,1.58.1.39.24.69.4,1.02.17.33.28.66.34,1.06.08.4.05.85-.14,1.39-.34-.77-.86.09-.93-1.35-.11.68-.4,1.24-.07,1.35-.18.16-.22.65-.26,1.19-.08.53-.22,1.1-.57,1.28.02.35.4.7-.09,1.39-.13.02-.19-.13-.19-.13.19.12-.54,1.25.32.96-1.3.52-2.36,1.65-3.66,2.56-1.26.93-2.76,1.56-3.86,1.19-.37.14-.76.29-1.18.37-.41.11-.84.21-1.27.24-.81.13-1.85.14-2.64.16.1-.14,0-.23.31-.18-2.25-.43-1.38,1.34-3.94.86-1.31-.75,1.36-.41.54-.69-.35-1.54-3.08.21-4.8-.69l.42-.09c-1.31-.52-3.21.58-5.35.47,0,0,.1-.14.01-.23-1.47.78-4.25,1.04-6.32,1.26.64-.6.94-.32.55-.93-.93.09.27.98-1.58,1.15-.6-.33-1.93-.62-2.11-1.27l1.74-.04c-.89-.84-2.26.03-3.18-.12l.12-.37c-2.67.12-2.71,1.05-5.58.98l.3.28c-1.57.92-1.32-.52-2.88.17l-.47-.93c-1.04.23-3.63.9-5.49,1.08,1.05-.69,3.23-1.05,4.57-1.46-1.03,0-3.49.07-4.02.53.41-.09.93-.32,1.34-.17-1.26.73-2.92,1.1-4.96,1.08.42-1.85-5.55-.34-6.32-2.07-1.52.05-2.97-.59-4.17-1.55-1.22-.96-2.21-2.21-3.16-3.6-.52,1.82-.57-.83-1.71.05-.48-.76-.6-1.08-.55-1.19-.01-.48-.05-.94-.04-1.39.04-.46.04-.9.12-1.34.16-.33.27-.15.37.09.13.23.26.52.41.45-.18-.84.03-1.05.17-1.18.18-.13.36-.19.52-.73-.25.13-.44,0-.55-.28-.06-.14-.09-.32-.11-.53,0-.25.02-.56.07-.86l-.33.86-.3.7c-.11-.31-.18-.55-.21-.81-.02-.28,0-.53.02-.74.07-.43.22-.76.37-1.08.3-.65.61-1.31.23-2.82l.46.96c-.27-1.55,0-5.73-1.15-7.26.17-.27.56-.64.67.05.17-3.71-1.24-8.27-.52-11.15l.35.28c-.1-.69-.66-1.21-.31-2.07.15.04.35.28.37-.04-.12-.37-.62-1.84-.41-2.76l.4.79c.46-3.62-.97-5.56-1.21-8.6,1.04,0,1.38-2.84,1.55-4.27l.15.05c.13-4.22-.86-7.17-1.27-11.07,1.13-2.42.47-8.21,1.11-12.11-.19.6-.81-.1-.92-.79.21-.91-.72-2.53.23-2.38l-.02.33c.94-.69.69-2.57.71-4.04l-1.25-.24c1.82-3.84-.67-10.06.96-12.15-.31-.93-.31-2.07-.62-2.99l.67.05c.17-2.57.26-3.85.1-7.02l.48.65c.04-1.79-1.93-2.26-1.97-3.91l1-.5c-.02-3.12.86-6.28-.04-9.37.15.05.44.14.48.65.03-1.47.68-5.68-.7-5.15.89-.04.09-3.22-.31-4.91l.66.26c-.84-1.42-1.07-1.47-1.31-3.46.09-.47.53-.41.36.21.35-1.57-.62-1.22-.27-3.13l.42.71c.05-1.61-.18-1.49-.67-2.38-.26-1.02.17-3.06.76-3.3-.36-.22-.85-1.1-.68-2.05.23-.13.37.22.43.39.45-2.7-.77-4.01-.12-5.87.22-.04.33-.16.39-.31-.02,2.15-.05,3.87-.1,3.71.61,0,.71-1.73,1.55-.35-.46-1.39-1.45-3.77-1.17-5.46.06-.08.12-.16.21-.22l.07.17c.06-.39,0-.74-.1-1.07.1-.54.17-.88.18-1.4.5-.2.27-1.99.3-2.85-.67.07-.56-1.06-1.11,0,.05-.14.08.16.11.74.02.13.03.28.07.37-.02-.02-.04-.04-.06-.06.01.57.03,1.31.04,2.15-.34-.68-.62-1.4-.25-2.35-.43-.44-.87-.93-1.07-1.21.93-1.18,1.43-3.46,2-3.78-.19-1.32-.25-2.87-.42-4.3-.05-.38-.07-.63-.12-.94-.04-.29-.12-.57-.15-.84-.08-.54-.27-1.05-.45-1.49.02-.71.53-.67.8-.83,0,.39-.11.83,0,1.06-.01-.66.24-1.6.51-2.4.25-.82.52-1.51.23-1.89,1.31-1.18.09,1.19,1.34-.74l.03.41c.44-.35.91-.62,1.25-.97.4-.29.7-.66,1.05-.97.34-.33.64-.68.99-1,.33-.35.68-.67,1.06-.98.75-.64,1.64-1.17,2.69-1.47.53-.1,1.09-.23,1.69-.15.3.02.59.06.91.12.34.07.68.16,1.03.28-.39-.11-.59-.16-.67-.31,6.46.79,13.31-.74,19.68.51,1.81.25,2.01-.3,3.11-.73l.39.71,1.89-.83c2.68-.6,4.64,1.75,8.03.61l-.44-.48c1.22.09,3.86-.28,3.66.27.12-.09.4-.5.88-.25l.04.37,2.99-.64c2.32.27-.36,1.48,3.02,1.56,1.26-.14,3.58-1.09,3.11-1.34-.51-.02-1.3-.23-1.34-.61l1.15-.2c.21-1.1,1.09-2.23-1.73-3l-1.97.67-.63-.53,1.66-.03c-.94-.5-1.54-.06-2.2.25-.16-.28-.43-.48-.83-.59l-1.93,1.05c-.23-.43.87-.86-.43-1.09-.91.49.87.97-.63,1.29-.94-.5-.67-.91-1.77-.48-.16-.28.08-.46.52-.59-.98.34-2.6.14-3.11.73-.98-.62-3.32.16-3.23-.88-.31.25-1.73.82-2.64.86,1.65-1.25-3.38-.07-2.95-1.41-1.22,1.12-4.42.5-6.58,1.12.12-.09.36-.27.55-.21-1.22-.09-1.57-.43-2.36-.64-.16.93-2.05,1.14-3.08,1.71-1.49-.89.91-1.09.44-1.95.08.75-2.6.75-2.09,1.38-1.14-.55-.98-.27-1.57-1.04-.2,1.16-1.06.2-2.01.91-1.65-.57-.43-1.09-2.24-.73-.86-.36.75-.77.75-.77ZM406.21,501.36h-.01c-.02-.37-.03-.69-.04-.89.01.19.03.44.05.89ZM406.22,504.99c.03-.44.03-.99.03-1.57.23-.13.47,0,.45.38-.15-.2-.29.66-.48,1.2ZM410.83,497.31c.09.58-.04.77-.17.85-.01-.27-.03-.59-.08-1-.02-.02-.05-.05-.08-.07.13.05.25.12.33.23Z"/>
    <path class="cls-1" d="M409.96,496.28c-.01-.08-.04-.13-.05-.24-.06.12-.11.23-.15.34.07.07.14.14.21.2,0-.1,0-.21-.01-.31Z"/>
    <path class="cls-1" d="M481.94,536.93l-.02.08c.03-.06.05-.12.09-.16-.03.05-.05.05-.08.08Z"/>
    <polygon class="cls-1" points="404.95 555.12 405.12 555.11 404.97 554.79 404.95 555.12"/>
    <path class="cls-1" d="M484.22,516.94c.06-.04.12-.11.17-.26-.04.01-.1.12-.17.26Z"/>
    <path class="cls-1" d="M484.37,508.3l.24-1.22c-.13.53-.2.91-.24,1.22Z"/>
    <path class="cls-1" d="M484.7,501.66c-.12-.08-.2-.11-.29-.13h0s.29.13.29.13Z"/>
    <path class="cls-1" d="M485.48,607.24c0,.09.01.18.03.26.13.6.08.19-.03-.26Z"/>
    <path class="cls-1" d="M483.93,575.82c.12.33.24.66.31,1.01.05-.56.06-.99-.31-1.01Z"/>
    <path class="cls-1" d="M484.35,643.61s0,0,0,0c-.04.08-.08.16-.12.24l.13-.23Z"/>
    <path class="cls-1" d="M484.23,578.29c.13-.56.1-1.03.01-1.46-.04.46-.11,1-.01,1.46Z"/>
    <path class="cls-1" d="M477.72,473.31l-.3-.21s-.06.06-.09.07l.39.15Z"/>
    <path class="cls-1" d="M477.33,473.17l-.39-.14c.16.1.3.17.39.14Z"/>
    <path class="cls-1" d="M476.13,472.76c.28.06.55.16.82.26-.25-.16-.55-.36-.82-.26Z"/>
    <path class="cls-1" d="M483.65,481.16l.27.02c-.07-.04-.16-.05-.27-.02Z"/>
    <path class="cls-1" d="M484.51,484.04c-.01-.36,0-.83-.03-1.33-.01-.25-.03-.52-.08-.77-.07-.25-.16-.5-.28-.73l-.21-.02c.54.34.13,2.29.6,2.86Z"/>
    <path class="cls-1" d="M481.78,495.49l.19-2.24c-.26.39-.6.91-.66-.11-.77,2.82.57-.58.47,2.35Z"/>
    <path class="cls-1" d="M481.41,502.43c-.12-1.2-.37.01-.52-.05.23.76.29.95.52.05Z"/>
    <path class="cls-1" d="M481.41,552.59l-.61-.12c.09.93.23,0,.61.12Z"/>
    <polygon class="cls-1" points="484.54 562.18 484.91 561.28 484.36 560.85 484.54 562.18"/>
    <polygon class="cls-1" points="480.22 567.84 480.14 567.44 480.36 568.98 480.22 567.84"/>
    <path class="cls-1" d="M473.4,646.29l.51.58c.44-.36.15-1.15-.51-.58Z"/>
    <path class="cls-1" d="M438.15,647.96c-.4-.37-1.42-.61-2.05-.25.82.05,1.63.34,2.05.25Z"/>
    <polygon class="cls-1" points="410.93 564.76 411.18 565.49 410.97 564.11 410.93 564.76"/>
  </g>
  <g>
    <path class="cls-1" d="M577.98,422.25c-.3.23-.15.74.76.69.23-.28.47-.57.72-.85l-1.48.16Z"/>
    <path class="cls-1" d="M583.52,425.01c.53.02,1.16-.01,1.64-.16.46-.12.79-.38.68-.92-.69.1-1.06.09-1.42.06-.36-.03-.77,0-1.46.29-.84-.23-1.39-.69-1.17-1-.19.08-.51-.08-.88-.15-.37-.06-.77-.09-1.04.15,1.07.81,2.32,1.16,3.94,1.21.21.32-.16.39-.29.51Z"/>
    <path class="cls-1" d="M590.78,503.5l.1-.53c-.06.14-.09.33-.1.53Z"/>
    <path class="cls-1" d="M590.29,554.2c-.02-.39-.11-.55-.19-.57.06.36.11.65.19.57Z"/>
    <path class="cls-1" d="M589.32,562.86c.02-.19.04-.34.06-.51-.08.19-.13.39-.06.51Z"/>
    <path class="cls-1" d="M590.78,503.5l-.28,1.35c.29.09.21-.69.28-1.35Z"/>
    <path class="cls-1" d="M593.2,432.24c-.15-.29-.32-.52-.53-.7.16.22.27.46.39.7.05,0,.09,0,.15,0Z"/>
    <path class="cls-1" d="M590.06,481.14v-.41c-.1-.12-.22-.23-.36-.34l.36.75Z"/>
    <path class="cls-1" d="M589.92,463.99c-.03.39.72.52,1.05.67-.31-.22-.46-.51-.51-.85-.14,0-.31.04-.53.17Z"/>
    <path class="cls-1" d="M591.18,436.86c-.03-.15-.1-.29-.16-.44.05.11.12.3.16.44Z"/>
    <path class="cls-1" d="M589.9,493.42c-.11.03-.21.09-.27.16.09,0,.18-.06.27-.16Z"/>
    <path class="cls-1" d="M558.1,420.5c-.01.05,0,.09,0,.13.1-.08.13-.13,0-.13Z"/>
    <path class="cls-1" d="M577.98,424.22l-.28.04c-.03.14-.06.28-.06.42l.34-.46Z"/>
    <path class="cls-1" d="M588.35,578.71s0-.04.01-.07c-.09-.42-.07-.18-.01.07Z"/>
    <path class="cls-1" d="M520.36,637.56c-.24.7-.52.24-.82-.21-.29-.43-.59-.84-.79.31.14-.12.48.33.85.53.39.21.68.2.76-.63Z"/>
    <path class="cls-1" d="M593.29,432.76c.1.25.2.5.26.77-.06-.37-.17-.6-.26-.77Z"/>
    <path class="cls-1" d="M518.75,637.66h0s-.04.24-.04.24c.02-.1.03-.16.04-.24Z"/>
    <path class="cls-1" d="M588.8,615.21c.13-.07.23-.22.33-.37-.08.01-.17.1-.33.37Z"/>
    <path class="cls-1" d="M589.87,588.01l-.1.67c.07-.27.09-.48.1-.67Z"/>
    <path class="cls-1" d="M589.87,629.33c-.06.37-.16.49-.06.99.04-.05.07-.09.09-.15-.1-.18-.15-.42-.03-.84Z"/>
    <path class="cls-1" d="M587.82,642.34c.09-.02.16-.07.25-.11.05-.11.12-.25.17-.36l-.42.47Z"/>
    <path class="cls-1" d="M514.73,432.8c.33-.31.64-.45.92-.54-.6.08.14-2.48-.92.54Z"/>
    <path class="cls-1" d="M592.81,432.4c.21.02.35.13.48.36-.07-.18-.15-.35-.23-.52-.12,0-.22.02-.24.16Z"/>
    <path class="cls-1" d="M595.79,629.93l-.11,2.33c.07-.65.11-1.5.11-2.33Z"/>
    <path class="cls-1" d="M514.01,539.14l-.09-.54c-.02.21,0,.4.09.54Z"/>
    <path class="cls-1" d="M595.22,640.1c-.38.45-.68.93-.98,1.42.01.13.01.28.07.38.34-.58.66-1.17.91-1.8Z"/>
    <path class="cls-1" d="M515.66,432.25s0,0,0,0c0,0,0,0,0,0Z"/>
    <path class="cls-1" d="M529.01,419.89c-1.44.2-1.72.51-1.71.83.02.32.31.65.09.99-1.51.5-1.88.52-2.08.28-.2-.22-.17-.64-.8-.67-1.9,1.07-2.75,2.67-3.91,3.55-.19-.06-.46.07-.31-.29-.3.48-.71,1.02-1.2,1.55-.44.58-1,1.15-1.45,1.82-.49.64-.88,1.36-1.2,2.05-.27.72-.48,1.41-.45,2.06-.14.13-.25.19-.34.21.6-.19,1.08-.04,1.38.16-.4,1.03-.01,2.05-.74,2.29.18-.63-.06-.75-.17-1.12l-.02,1.19c-1.16.83.06-1.62-.54-1.82-.12.58-.15,1.22-.2,1.83,0,.62.02,1.24.06,1.83.07.58.11,1.18.15,1.66.04.47.04.92-.03,1.31-.45.16-.53-.75-.59-1.44-.04-.77-.05-1.36-.52-.13l.24-1.42c.09-.47.24-.92.36-1.38-1.75,1.96.37-1.75-1.45.04-.25.98-.26,1.77-.27,2.44,0,.36.02.59.04.82.03.23.06.46.08.68.12.89.23,1.78.1,3.36.5.71.75-.24,1.25.48.91,4.51-2.28,3.55-1.07,6.86.6.86,1.75,1.19,1.15,3.55l-1.03-.8c-.1,3.08,1.48,1.76.78,4.98-.4-.57-.34-2.42-.46-1.95-.81,2.09.58,1.48.58,3.08l-.91.33c.14,3.28.8,6.89.97,10.52-.27-.2-.55-.82-.83.03.45,4.58-.11,9.77-.65,14.19l.78,1.69c0,.39-.35.73-.51.3-.3,1.72.5.09.81.92.05.98-.45,1.29-.69.67.67,3.04,1.43,8.65.59,11.85l-.23-.62c-.32,2.49,1.61,2.81.88,5.12l-.14-.44c-.34,5.41.38,11.39-.81,15.51,1.13.78-.5,5.35,1.07,5.7-.78,3.09-1.06,2.2-1.59,6.55-.07,1.16.98,1.73,1.15,3.17l-.82.04.86,1.95-.99,1.04.21,1.35c.05-.54.37-1.14.61-1.06.37,2.1-.57,5.13-1,5.18l.7,4.98c-.33-.11-.44-.94-.66-1.6.84,2.66-.87.48-.1,2.92.19-.33.49.18.66.23-.5,1.21-.5,3.98-.29,6.02l-.57-.39c-.14,3.69.27,7.78.26,11.93.26-1.49,1.25-1.14,1.34.07l-.87.49c.54.78.33-1.27.99.34-.1,1.55-.99,1.04-1.27.15l.3,1.88c-.26.11-.4-.33-.73-.45.54.77-.87,3.25.07,4.36l-.26.11c0,4.14.29,6.02.34,9.4.75.07.58,1.39,1.19,2.39-.24,2.48-.83,5.23-.77,8.22.37,2.1.64.61,1.08,1.56-.68.15-.62,3.14-1.11,1.59.11,3.59.14,4.58.69,9.12.28-.49.4-1.05.64-.76.11.82-.29,1.87-.62,1.75l-.07-.22c1.03,5.09-2,11.75-.57,15.8l-.07-.23.74,4.2c-.12,1.93-.51-1.16-.94.27.57,2.27.53,4.06.44,5.75-.04.85-.1,1.67-.1,2.51,0,.22,0,.4.02.66.02.26.05.52.08.79.03.26.07.53.12.8.07.27.15.54.24.81-.77,1.86.18,5.24,2.34,7.88,1.03,1.36,2.33,2.51,3.59,3.5,1.25,1.02,2.53,1.79,3.53,2.61l-.06-.56c.66.07.99.23,1.26.49.27.24.48.57.93.74-.04-.36-1.16-.86-.35-.83.63.19,1.28.29,1.92.44.65.09,1.31.19,1.96.24l.99.04c.34.02.66.03.92.02l1.64.02c2.19.04,4.4.16,6.62.31,4.44.3,8.9.72,13.28.94,3.2.13,1.82-2.46,5.86-1.33l-1.15.88c6.46-1.06,13.22.04,19.55-.86-.38.2-.39.47-1.01.47.33.16.81.24,1.34.27.13,0,.27,0,.4,0l.52-.03c.35-.03.7-.07,1.03-.13,1.34-.27,2.38-.79,2.32-1.06,1.18-.24.38.39,1.19.46.87-.08,1.83-.62,2.6-1.22.8-.54,1.41-1.15,1.97-1.1.19,0-.29.42-.53.63.19-.22.58-.46.99-.78.4-.32.87-.66,1.25-1,.73-.7,1.21-1.26.57-1.18.59-.44,1.08-.97,1.52-1.5.4-.57.82-1.11,1.11-1.71.32-.58.62-1.14.87-1.71.13-.28.28-.55.42-.81.13-.27.27-.54.42-.79-.06-.43.03-.91.13-1.45.12-.53.31-1.08.4-1.63.26-1.08.27-2.08-.29-2.32.29.08.54-.26.67-.67.14-.41.21-.98.22-1.6.02-1.25-.18-2.71-.46-3.46.37.5.38-1.31.88-.72-.02-1.71-.24-3.28-.86-2.99,1.45-3.16-1.16-6.35.69-8.12-.65-5.09-1.09-9.8-1.37-14.38,1.21.17.12,5.06,1.39,4.87-.5-4.34-1.53-6.85-1.24-11.16.16-1.12.52.63.73,1.01-.5-4.34.11-8.39-.55-12.25.11.01.23.43.33.82-.04-.76.18-1.77-.37-1.68l.15.74c-.8,1.21-1.66-3.02-2.08-3.16,1.57,1.29.39-3.81,2.38-1.76-.1-.5-.36-1.13-.73-1.01.11-.74.32-.98.74-.23-.3-2.73-.88-1.76-.87-4.23.27,0,.37.51.68.76-.52-1.25-1.03-2.51-.81-4.59.16.13.37-.12.36.51-.08-3.58-1.38-6.11-.88-10.04,1.15,1.16.38-1.34,1.38-1.55l-.3-2.11-.48.85c.02-1.85-.71-3.49-.38-5.08l.41,1.38-.19-3.47-.38,1.96c-.51-1.88-1.26.2-.98-2.26.1.5.01-1.85.6-2.82h0c-.32-.91-.65-1.85-.4-3.22.32-.36,1.1.29,1.32.05-.83-.9-.23-4.34-1.12-5.48.21.38.73.4.84.28l-.68-.76c.22-.86.32-.98.74-.84.12-2.58-1.27.82-.72-2.24.05.24.16.12.26.63.28-3.08-.43-5.94-.1-8.77,1-.83.25,2.47,1.09,1.51-.18-4.08-1.2-8.44-.97-12.38l-.11.73c-1.42-.55.7-2.94.03-4.93.11.49.79.64.63.51.23-2.7-.35-5.52-.79-9.62l.36.51c.32-1.59.19-4.19.35-5.91-.36-.51-.3-1.49-.83-.9,2.07-5.3-1.11-10.11.62-14.82,0,.56.32,1.34.32.89l-.33-4.01c-.62.32-.37.53-.85,1.37-.37-.51-.65-1.64-.65-2.63.41,1.8.99-.02,1.34-.79-.19.13-.4-.14-.59-.07,1.1-2.09-1.24-.35-.5-3.21l.32.15c-.17-1.07-.59-2.05-.5-3.21.71-.48.33,1.14.92,1.21-.04-1.62-1.35-3.2-.64-4.66.2.69.2,1.68.4,2.37.84-1.6.63-1.78.76-2.97l-.02.12.38-2.74-.23.7c-1.86-2.03-.34-4.13-1.56-6.86,1.15,2.65.67.44,1.48.64.23-.7.48-1.76.7-1.46-.65-1.29.51-2.16-.44-3.98.26-.08.03-1.38.68-1.09-.2-1.68-.45.4-.78.26-.89-2.59,1.08-6.08-.14-9.8-.52-3.21-1.35-3.81-1.85-6.77.18-.51.43-.33.63,0,.1.17.19.37.26.54.06.16.09.27.09.27.35-1.69.11-3.1-.64-4.56.3.25.42-.13.51-.71-.54-1.27-1.16-.49-1.58-2.2.4.12.97.26,1.54.75-.88-1.44-2.2-2.5-3.42-3.54.02-.31.32-.25.69-.06.37.18.77.53,1.08.68-.33-.35-.69-.78-1.12-1.14-.42-.38-.86-.75-1.32-1.03-.87-.62-1.77-.89-2.18-.77l.76.89c-.53-.36.1-.7.59-.5.78.31,1.18.75,1.33,1.14.14.4.07.72,0,.84-.3-.24-.58-.49-.9-.69-.1.94.64,1.64,1.55,2.51.88.86,1.95,1.93,2.27,3.04-.47-.17-.89-.33-1.37-.44.55.54,1.14,1.13,1.6,1.81-.16.56-.69.97-1.11.02-.08.79.11,1.07.23,1.36.12.28.28.56.03,1.22-.09.15-.14.09-.2-.04.13.47.28.93.39,1.43-.24-.28-.76.22-.65-.64-.6,2.63.85,4.33.01,5.33l-.07-.23c.38,3.74.82.36,1.77,3.17l-2.01,1.89.82.37c-.03.39-.09,1.15-.42,1.01.56,1.44.35-.24.88.59-.74,1.86.35,5.12-.95,5.54.62.67.48-1.78.91.21-1.4.57.24,2.29-.4,3.99-.72-.52-.34-2.13-.98-.43,1.22,1.02-.27,3.3-.03,4.74.97.07.4,3.11.73,5.51-.33-.15-.53,4.52-.88,6.75l-.16-.07c.98.43.8,2.74,1,4.42-.59-.07-.82-.37-1.08-1.28v1.58c.32.37.48.87.6,1.89l-.73-.4c.04,2.1.86,4.23.37,6.93.68.15,1.91-2.15,2.36.71-.37.11-1,.21-1.15-.54.05.24.31.87.15,1.37l-.62-1.14c-.27,1.23.52.64.46,1.63-.53-.02-.38.73-.8.59-.05-.25.22-.86.01-1.23-.09,1.11-.41,2.45-.81,2.89.3-.1.71,0,.78.81.04,2.1-.63.72-.91,1.94.37.51-.01,1.85.78,1.88,0,.61-.37.73-.59.96.35,1.09.1,5.08.94,3.85l.06-.28c.02.05.02.11.03.18h0s0,0,0,0c.78,3.56-.45,7.4-.11,10.93h-.26c.3,2.1.18,4.69.75,6.2,0,.62-.48,1.47-.8,1.21.2,1.61.49,1.79.06,4.12-.46-1.62-.41.56-.34-1.66-.23,2.09-.65,2.57.07,4.82-.68-.77-.85,1.58-.65,2.57l.48-1.47c.1,1.12.04,2.1-.02,3.09l-.89-.54c-1.08,4.29,1.84,7.73.03,11,.62,1.13.44-2.33,1.17-1.31-.12,1.97-1.4,4.03-1.4,4.65-.49,2.7,1.3,2.52.96,5.35.32-.36,1.16-.7,1.46,1.41-.12,1.97-1.33,2.43-1.58,1.18-.03-.47.07-.7.18-.68-.12-.64-.25-1.47-.6-.69l.32.26c-.32.98-.29,3.69-.81,3.06.3,1.49.52.64.69-.47-.46,2.53-.01,3.96-.32,6.56.17-.42.55-.8.54-.38-.39,3.82.6,1.68.74,4.27-.48,1.47-1.15-.53-.75,2.08-.33,1.59-.84.34-1.1-.3.61,2.38-.4,4.44-.51,5.79l-.26-1.25c.15.75.15,1.36.15,1.99l.63-.71c-.11.74-.11,1.36-.38,1.34.42.76,1.06-.58,1.62.92-.32.98.35,2.98-.5,3.32.29-3.08-.85.34-.98-2.27.1.5.1,1.12-.01,1.85-.09.11-.17-.1-.22-.3-.75,2.95.95,1.35.93,4.41-.47-.39-.9.71-.8,1.21,0-1.23.79-.59,1.16.54-.37,1.96.27,2.13.23,3.15l.17-1.17c.47.4.41,1.38.56,2.74-.37.12-.25-1.24-.42-.75.83,1.52-.86,3.43-.3,5.54-.32.98-.89.09-1.11.95.62,2.37-.65,2.57-.14,5.06.64-.72.48-.84,1.1.91l-.45-4.09.93,2.63c0-1.24-.4-2.61-.29-3.35.52,1.25.36,1.12.89.53-.96,1.69.56,3.35-.09,5.31l-1.58-.06c-.7,2.94.81,5.22.41,9.03l.27-1.23c.63.51.09,2.36.34,3.59-.53-.12-.72.66-1.05,1.18.39-.06-.04,2.79,1.02,3.14l-.69,1.7c-.28,3.08,1.5,3.51,1.32,6.48-.57-.89-.95.45-1.36-1.53,0,.99-.1,1.88.26,1.89-.33.58.71,2.74.21,3.65.23.42.78.55.74,1.66-.11.12-.26,0-.26,0,.26,0,.36,1.74.94.77-.41.76-.61,1.67-.7,2.66-.09.97-.13,1.84-.27,2.79-.26,1.84-1.04,3.63-2.28,4.18-.82,1.67-2.47,3.37-3.97,4.24.02-.2-.13-.23.18-.35-.55.22-.89.38-1.1.61-.21.22-.31.49-.44.73-.25.48-.6,1.05-2.08,1.12-.8-.31-.43-.47-.03-.6.41-.16.89-.26.43-.31-.2-.4-.48-.52-.82-.53-.34-.03-.75.11-1.22.22-.85.22-2.28.44-3.3-.06l.5-.1c-1.58-.59-3.86.66-6.44.53,0,0,.13-.15.01-.26-1.77.89-5.11,1.18-7.6,1.42.77-.68,1.13-.36.66-1.05-1.11.1.33,1.11-1.9,1.3-.72-.37-2.33-.7-2.54-1.43l2.1-.04c-1.07-.95-2.72.03-3.82-.13l.14-.42c-3.22.14-3.26,1.19-6.72,1.11l.36.32c-1.89,1.04-1.58-.58-3.47.19l-.57-1.06c-1.25.25-4.36,1.02-6.6,1.22,1.27-.78,3.88-1.18,5.5-1.65-1.24,0-4.2.08-4.84.6.5-.1,1.12-.36,1.62-.2-1.52.83-3.51,1.24-5.97,1.22.22-1.02-1.39-1.15-3.27-1.22-.47-.02-.96-.04-1.44-.06-.51-.01-.84-.09-1.23-.16-.37-.05-.7-.22-.97-.37-.27-.15-.49-.34-.61-.58-1.77-.02-3.43-.91-4.71-2.18-1.26-1.31-2.23-2.9-2.96-4.71-.96,1.94-.48-1.08-1.91-.38-.39-.99-.4-1.41-.31-1.52.04-.28.07-.55.13-.81l.21-.79.47-1.72c.48-.85.36,1.12.73,1.01.13-2.59.69-1.08,1.13-2.8-.58.35-.84-.9-.61-2.37l-.75,2.08c-.87-3.62,1.37-3.12.51-6.77l.51,1.15c-.3-1.87.01-6.9-1.3-8.73.19-.33.64-.77.75.05.2-4.47-1.4-9.95-.59-13.42l.4.34c-.12-.83-.75-1.45-.35-2.5.17.05.4.34.42-.05-.14-.44-.7-2.21-.47-3.32l.45.94c.52-4.36-1.09-6.69-1.37-10.34,1.18,0,1.56-3.42,1.75-5.13l.17.06c.15-5.08-.98-8.62-1.44-13.32,1.28-2.92.54-9.88,1.25-14.57-.21.72-.92-.12-1.03-.95.24-1.1-.82-3.04.26-2.87l-.02.39c1.06-.83.78-3.09.81-4.86l-1.41-.29c2.05-4.62-.75-12.1,1.08-14.62-.35-1.11-.35-2.5-.7-3.6l.76.06c.19-3.09.29-4.63.11-8.45l.54.78c.05-2.15-2.18-2.72-2.23-4.71l1.13-.6c-.02-3.76.97-7.56-.05-11.27.17.06.49.17.54.78.03-1.77.76-6.84-.79-6.2,1.01-.04.1-3.88-.35-5.9l.74.32c-.95-1.71-1.21-1.77-1.48-4.16.1-.57.6-.5.41.26.39-1.89-.71-1.47-.31-3.76l.48.85c.06-1.94-.2-1.79-.75-2.86-.3-1.22.19-3.69.86-3.97-.41-.26-.96-1.33-.77-2.47.25-.15.41.26.49.47.51-3.25-.87-4.83-.13-7.06.25-.05.37-.19.44-.38-.02,2.58-.06,4.66-.11,4.46.69,0,.81-2.08,1.76-.43-.52-1.67-1.64-4.53-1.32-6.57.07-.1.13-.19.24-.27l.08.21c.07-.47,0-.89-.11-1.28.11-.65.2-1.06.21-1.68.57-.24.31-2.39.33-3.43-.75.09-.63-1.28-1.25,0,.05-.17.09.2.12.89.02.16.03.34.08.44-.02-.02-.04-.04-.07-.07.01.68.03,1.57.05,2.58-.38-.82-.7-1.68-.29-2.83-.48-.53-.98-1.12-1.21-1.45,1.05-1.42,1.61-4.16,2.26-4.55-.42-3.17-.28-7.48-1.69-9.47-.18-.9.4-1.04.63-1.37.14.52.12,1.14.32,1.42-.36-1.8-.14-5.35-1.13-5.78.45-2.27.91,1.28.75-1.85l.3.42c.4-1.51.41-3.04.36-4.02.01-1.09-.1-2.2.07-3.35.15-1.14.46-2.36,1.22-3.42.73-1.06,1.87-2.01,3.4-2.41-.42.12-.61.22-.78.13,1.53-.86,3.14-1.54,4.84-1.94.42-.11.86-.15,1.29-.24.44-.06.88-.07,1.32-.12l2.98-.11c3.99-.14,7.97-.22,11.8.49,2.18.29,2.42-.34,3.75-.82l.47.81,2.27-.93c3.22-.68,5.58,1.98,9.67.69l-.53-.54c1.47.1,4.64-.32,4.4.3.15-.1.48-.56,1.05-.28l.04.42,3.6-.72c2.79.31-.44,1.68,3.64,1.76,1.51-.16,4.31-1.23,3.74-1.51-.61-.02-1.56-.26-1.61-.69l1.39-.22c.25-1.25,1.32-2.52-2.08-3.39l-2.37.76-.76-.6,1.99-.04c-1.13-.57-1.85-.07-2.65.28-.19-.32-.52-.55-.99-.67l-2.33,1.19c-.28-.49,1.04-.97-.52-1.24-1.09.55,1.05,1.09-.76,1.46-1.13-.57-.8-1.03-2.13-.54-.19-.32.09-.52.62-.67-1.18.38-3.13.16-3.75.82-1.18-.7-4,.18-3.88-1-.37.28-2.09.92-3.17.97,1.99-1.41-4.07-.08-3.55-1.59-1.47,1.27-5.31.56-7.92,1.27.15-.1.43-.3.66-.24-1.47-.11-1.89-.49-2.83-.73-.19,1.05-2.47,1.29-3.7,1.93-1.8-1.01,1.09-1.23.53-2.2.09.85-3.12.85-2.51,1.55-1.37-.62-1.18-.3-1.89-1.17-.24,1.31-1.28.22-2.42,1.03-1.11-.29-1.35-.57-1.53-.74-.2-.17-.44-.22-1.75.2-.68-.1-.45-.35-.02-.59.42-.24,1.04-.44,1.04-.44ZM515.07,469.6h-.02c-.02-.45-.03-.83-.04-1.07.01.22.03.53.06,1.07ZM515.08,473.97c.03-.53.03-1.19.03-1.89.26-.15.53.01.51.45-.17-.24-.32.79-.54,1.44ZM520.29,464.73c.11.69-.04.92-.2,1.02-.01-.33-.04-.71-.09-1.21-.03-.02-.06-.06-.09-.08.14.07.28.14.38.27Z"/>
    <path class="cls-1" d="M519.3,463.49c-.02-.1-.05-.16-.05-.29-.07.14-.12.28-.17.41.08.08.16.17.24.25,0-.13,0-.26-.01-.37Z"/>
    <path class="cls-1" d="M590.9,502.88l-.02.09c.03-.08.06-.15.11-.19-.04.06-.06.06-.09.1Z"/>
    <polygon class="cls-1" points="513.64 534.28 513.83 534.27 513.67 533.89 513.64 534.28"/>
    <path class="cls-1" d="M593.48,478.82c.07-.04.13-.14.19-.32-.05.01-.12.15-.19.32Z"/>
    <path class="cls-1" d="M593.65,468.43l.27-1.47c-.15.64-.22,1.1-.27,1.47Z"/>
    <path class="cls-1" d="M594.02,460.44c-.13-.1-.23-.13-.32-.16,0,0,0,.01,0,.02l.33.14Z"/>
    <path class="cls-1" d="M594.9,587.46c0,.11.01.21.03.31.15.72.09.23-.03-.31Z"/>
    <path class="cls-1" d="M593.15,549.66c.14.4.27.8.35,1.21.06-.67.07-1.2-.35-1.21Z"/>
    <path class="cls-1" d="M595.81,629.67s0,0-.01,0v.26-.26Z"/>
    <path class="cls-1" d="M593.49,552.64c.15-.67.12-1.24.01-1.76-.05.55-.13,1.2-.01,1.76Z"/>
    <path class="cls-1" d="M588.51,425.52c-.1-.11-.22-.21-.33-.3-.03.04-.07.06-.12.06.15.08.31.15.45.24Z"/>
    <path class="cls-1" d="M588.06,425.28l-.45-.23c.18.14.34.25.45.23Z"/>
    <path class="cls-1" d="M586.66,424.62c.33.12.64.28.95.44-.29-.22-.63-.5-.95-.44Z"/>
    <path class="cls-1" d="M593.89,436.16l.29.11c-.07-.07-.16-.11-.29-.11Z"/>
    <path class="cls-1" d="M594.09,439.61c.03-.38.18-.86.29-1.38.11-.55.15-1.25.03-1.86l-.23-.09c.24.27.1.98-.02,1.69-.15.64-.3,1.27-.07,1.64Z"/>
    <path class="cls-1" d="M590.72,453.02l.22-2.69c-.29.47-.68,1.09-.75-.14-.87,3.4.65-.7.53,2.83Z"/>
    <path class="cls-1" d="M590.3,461.37c-.14-1.45-.42.02-.59-.06.26.92.33,1.14.59.06Z"/>
    <path class="cls-1" d="M590.3,521.72l-.68-.15c.1,1.12.26.01.68.15Z"/>
    <polygon class="cls-1" points="593.83 533.25 594.26 532.17 593.63 531.65 593.83 533.25"/>
    <polygon class="cls-1" points="588.96 540.07 588.86 539.58 589.11 541.44 588.96 540.07"/>
    <path class="cls-1" d="M588.27,640.13c.3.03.59.05.88.07.08-.67-.76-1.08-.88-.07Z"/>
    <path class="cls-1" d="M550.51,647.74c-.48-.42-1.71-.69-2.47-.28.98.06,1.96.39,2.47.28Z"/>
    <polygon class="cls-1" points="520.4 545.88 520.68 546.76 520.44 545.1 520.4 545.88"/>
  </g>
  <g>
    <path class="cls-1" d="M687.07,348.26c-.38.27-.19.85.97.79.29-.32.6-.67.93-.95-.64.01-1.27.1-1.89.16Z"/>
    <path class="cls-1" d="M693.92,351.91c1.31.15,3.1.48,2.94-.82-.85-.05-1.3-.13-1.76-.22-.45-.1-.95-.15-1.83.09-1.03-.36-1.7-1-1.4-1.31-.45.12-1.7-.73-2.42-.15,1.33,1.01,2.88,1.49,4.87,1.86.24.41-.23.43-.4.55Z"/>
    <path class="cls-1" d="M699.68,452.12l.12-.66c-.07.18-.1.41-.12.66Z"/>
    <path class="cls-1" d="M699.12,515.79c-.02-.48-.13-.69-.22-.71.07.45.13.82.22.71Z"/>
    <path class="cls-1" d="M697.99,526.66c.03-.23.05-.43.07-.64-.09.24-.15.49-.07.64Z"/>
    <path class="cls-1" d="M699.68,452.12l-.32,1.7c.33.12.25-.87.32-1.7Z"/>
    <path class="cls-1" d="M703.68,363.4c-.07-.42-.17-.76-.36-1.06.11.33.15.66.19,1,.06.02.1.03.16.06Z"/>
    <path class="cls-1" d="M698.85,424.06v-.52c-.12-.15-.26-.29-.42-.43l.42.95Z"/>
    <path class="cls-1" d="M698.69,402.52c-.04.49.83.66,1.21.84-.36-.27-.53-.63-.59-1.06-.16,0-.36.06-.61.22Z"/>
    <path class="cls-1" d="M700.21,368.37l-.12-.61c.04.16.07.42.12.61Z"/>
    <path class="cls-1" d="M698.66,439.47c-.13.04-.24.11-.31.2.11,0,.21-.08.31-.2Z"/>
    <path class="cls-1" d="M662.1,346.25c-.02.06,0,.1,0,.15.13-.09.16-.15,0-.15Z"/>
    <path class="cls-1" d="M687.07,350.53l-.35.05c-.04.16-.07.33-.07.49l.42-.53Z"/>
    <path class="cls-1" d="M696.88,546.55s0-.05.02-.09c-.1-.52-.08-.23-.02.09Z"/>
    <path class="cls-1" d="M629.74,633.11c-.77,2.07-.99-3.37-1.85-.25.34-.29,1.35,2.83,1.85.25Z"/>
    <path class="cls-1" d="M703.6,364.06c.03.37.03.61.02.92.03-.4.03-.66-.02-.92Z"/>
    <path class="cls-1" d="M627.89,632.86h0l-.08.32c.04-.13.06-.21.09-.32Z"/>
    <path class="cls-1" d="M697.4,592.38c.15-.09.27-.28.38-.47-.09.02-.2.12-.38.47Z"/>
    <path class="cls-1" d="M698.64,558.24l-.12.84c.08-.33.11-.61.12-.84Z"/>
    <path class="cls-1" d="M698.63,610.11c-.07.46-.19.62-.07,1.24.04-.06.08-.12.11-.19-.12-.23-.17-.53-.04-1.05Z"/>
    <path class="cls-1" d="M698.63,628.56c.07-.1.12-.23.17-.34-.01-.18-.03-.4-.05-.58l-.13.92Z"/>
    <path class="cls-1" d="M622.51,376.47c.24-.4.51-.66.78-.85-.62.29-.83-2.43-.78.85Z"/>
    <path class="cls-1" d="M703.19,363.43c.22.11.34.29.4.62-.02-.25-.05-.49-.08-.72-.13-.05-.25-.06-.32.09Z"/>
    <path class="cls-1" d="M705.45,610.86l-.13,2.93c.08-.82.13-1.88.13-2.93Z"/>
    <path class="cls-1" d="M622.64,508.86l-.1-.67c-.02.26,0,.5.1.67Z"/>
    <path class="cls-1" d="M705.45,622.49c-.31.52-.48,1.08-.6,1.65.07.12.12.26.22.34l.38-1.99Z"/>
    <path class="cls-1" d="M623.3,375.61s0,0,0,0c0,0,0,0,0,0Z"/>
    <path class="cls-1" d="M624.28,354.07c-1.02,1.6-.88,2.16-.6,2.37.3.22.82.16.96.63-.67,1.92-.94,2.33-1.29,2.37-.35.05-.71-.29-1.18.37-.12.68-.09,1.35-.04,1.97.03.62.16,1.2.28,1.75.06.27.12.54.17.8.06.21.12.41.17.61.1.4.15.79.14,1.18-.19.12-.26.42-.49.06.9,2.2.04,6.53,1.18,9.1-.1.19-.2.29-.28.33.57-.42,1.15-.48,1.56-.39.02,1.25.72,2.32-.02,2.79.02-.77-.28-.83-.51-1.19l.32,1.31c-1.07,1.18-.37-1.79-1.16-1.79.35,2.56,1.23,5.54.93,7.5-1.05.41-.35-4.58-1.28-1.97l.4-3.03c-1.65,2.32.11-1.84-1.65.29-.3,3.99.53,4.47.23,8.45.58.9.86-.3,1.44.6,1.04,5.66-2.63,4.46-1.24,8.62.7,1.08,2.02,1.5,1.32,4.46l-1.18-1.01c-.12,3.87,1.7,2.21.9,6.25-.46-.72-.39-3.04-.53-2.45-.93,2.62.67,1.85.67,3.87l-1.05.42c.16,4.12.92,8.65,1.11,13.21-.31-.25-.64-1.03-.96.03.52,5.75-.13,12.27-.75,17.82l.9,2.12c0,.49-.41.91-.58.38-.34,2.16.57.11.93,1.15.06,1.23-.52,1.62-.79.84.77,3.81,1.65,10.86.68,14.88l-.27-.78c-.37,3.13,1.85,3.53,1.01,6.43l-.16-.56c-.39,6.79.44,14.29-.93,19.48,1.3.98-.58,6.72,1.23,7.16-.9,3.88-1.22,2.77-1.83,8.23-.08,1.46,1.13,2.17,1.32,3.98l-.95.04,1,2.45-1.13,1.3.24,1.69c.06-.67.43-1.43.7-1.33.43,2.64-.66,6.44-1.15,6.5l.8,6.25c-.38-.14-.51-1.19-.76-2.01.97,3.34-1,.61-.11,3.66.22-.41.57.22.76.29-.57,1.52-.58,4.99-.34,7.56l-.65-.49c-.17,4.63.31,9.77.3,14.97.31-1.87,1.44-1.44,1.55.09l-1,.61c.62.99.38-1.59,1.14.43-.12,1.94-1.14,1.31-1.47.19l.35,2.36c-.3.14-.46-.42-.84-.56.62.97-1.01,4.08.07,5.48l-.3.13c0,5.2.34,7.56.39,11.8.87.08.67,1.74,1.37,3-.28,3.11-.96,6.57-.88,10.32.43,2.64.73.77,1.25,1.96-.79.19-.71,3.94-1.28,2,.13,4.5.16,5.75.8,11.44.32-.62.46-1.31.73-.95.13,1.03-.33,2.35-.71,2.2l-.08-.27c1.18,6.39-2.3,14.75-.66,19.84l-.08-.29.86,5.28c-.14,2.43-.59-1.46-1.08.34,1.32,5.69-.19,9,.69,13.68-.29.45-.51,1-.66,1.6-.08.3-.14.63-.19.96-.02.18-.05.31-.06.54,0,.23-.01.46-.02.7-.05,1.89.4,4.06,1.32,6.07.9,2.02,2.22,3.86,3.62,5.38,1.41,1.53,2.87,2.8,4.1,3.91l-.04-.66c.82.21,1.23.45,1.55.79.32.34.58.73,1.15.99,0-.23-.39-.49-.61-.71-.22-.22-.31-.37.2-.29,1.6.56,3.26.97,4.95,1.14.42.05.85.05,1.27.08l.64.03h.53c.68.01,1.37.02,2.06.03,2.75.05,5.53.19,8.31.36,5.57.34,11.17.83,16.67,1.08,4.02.15,2.28-2.83,7.35-1.53l-1.44,1.02c4.06-.61,8.21-.6,12.33-.57h.77s.39,0,.39,0l.49-.02c.66-.03,1.31-.04,1.96-.16.65-.09,1.3-.19,1.93-.38l.95-.26.92-.35c2.43-.95,4.59-2.5,6.15-4.44-.26.57-.07.81-.82,1.47,1.05-.41,2.56-1.86,3.41-3.41.87-1.54,1.16-3.02.89-3.15.68-1.39.65-.11,1.3-.91.3-.48.5-1.07.59-1.71.05-.32.09-.64.12-.96,0-.32,0-.65,0-.96,0-.31,0-.61,0-.9-.02-.29-.03-.56-.03-.81,0-.48.08-.95.26-1.15.06-.07.12.02.17.24.04.23.07.53.09.74-.04-.18-.06-.42-.07-.7-.01-.22-.03-.47-.04-.74-.01-.51-.03-1.09-.05-1.59-.04-1.01-.14-1.75-.57-1.22.41-2.98-.38-5.7.13-8.08-.95-1.55.46-5.1-.89-5.6,1.39.21,1.12-5.23.47-7.11.42.63.44-1.64,1.02-.9-.02-2.15-.28-4.12-.99-3.75,1.67-3.96-1.34-7.97.79-10.2-.75-6.39-1.26-12.31-1.58-18.05,1.39.21.14,6.35,1.6,6.11-.57-5.45-1.76-8.6-1.43-14.01.19-1.4.6.79.84,1.27-.57-5.45.13-10.54-.63-15.38.13.01.27.54.38,1.03-.05-.96.2-2.22-.43-2.11l.17.93c-.92,1.53-1.91-3.79-2.4-3.97,1.81,1.62.45-4.79,2.74-2.21-.12-.63-.42-1.42-.84-1.27.12-.93.37-1.23.85-.28-.34-3.42-1.01-2.21-1-5.31.31.01.42.64.78.96-.6-1.57-1.19-3.15-.93-5.77.18.16.42-.15.42.64-.09-4.5-1.59-7.67-1.01-12.61,1.33,1.46.44-1.68,1.59-1.94l-.34-2.66-.56,1.07c.02-2.33-.82-4.38-.44-6.38l.47,1.73-.22-4.36-.44,2.47c-.59-2.35-1.45.25-1.13-2.84.12.63.01-2.33.69-3.54h0c-.37-1.14-.75-2.33-.47-4.05.37-.45,1.27.36,1.52.07-.96-1.13-.27-5.45-1.29-6.88.24.48.84.5.97.35l-.78-.95c.25-1.08.37-1.24.85-1.06.14-3.24-1.46,1.03-.83-2.82.06.3.18.16.3.79.33-3.86-.5-7.46-.11-11.01,1.16-1.05.28,3.1,1.26,1.9-.21-5.12-1.39-10.6-1.11-15.55l-.13.92c-1.63-.69.81-3.69.04-6.19.12.61.91.8.72.64.26-3.39-.4-6.93-.92-12.07l.42.64c.37-2,.22-5.26.41-7.42-.42-.64-.35-1.88-.96-1.12,2.39-6.66-1.28-12.7.71-18.61,0,.71.37,1.68.37,1.12l-.39-5.03c-.71.4-.43.66-.98,1.72-.42-.64-.75-2.06-.75-3.3.47,2.26,1.14-.02,1.54-1-.22.16-.46-.17-.68-.09,1.27-2.63-1.43-.44-.58-4.03l.37.19c-.19-1.34-.68-2.58-.58-4.03.82-.6.38,1.43,1.06,1.52-.05-2.03-1.56-4.01-.74-5.85.23.86.23,2.11.46,2.97.97-2,.72-2.24.87-3.73l-.02.15.44-3.44-.26.88c-2.15-2.54-.39-5.18-1.8-8.61,1.33,3.33.77.55,1.7.81.26-.88.55-2.21.81-1.83-.75-1.62.59-2.71-.51-4.99.3-.1.03-1.73.78-1.37-.24-2.11-.52.5-.9.32-1.03-3.25,1.24-7.63-.16-12.31-.58-4.03-1.59-4.77-2.1-8.51.48-1.26,1.09,1.03,1.09,1.03.44-2.04.36-3.57.02-5.49.26.38.49.01.81-.62-.18-1.74-1.08-1.05-1.06-3.27.44.28,1.03.67,1.49,1.49-.53-2.08-1.72-3.87-2.95-5.5.08-.36.44-.21.8.15.36.36.81.88,1.1,1.18-.58-1.09-1.43-2.46-2.42-3.4-.96-.97-1.96-1.56-2.5-1.48.3.39.55.82.8,1.24-.57-.57.23-.81.77-.43.48.26.76.6.99.89.23.3.35.59.39.85.1.52-.05.89-.15,1.01-.31-.37-.58-.77-.93-1.1-.29,1.1.45,2.14,1.26,3.49.82,1.32,1.66,3.02,1.63,4.49-.46-.38-.87-.74-1.36-1.05.45.85.83,1.82,1.17,2.73-.33.59-1.05.99-1.24-.34-.63,1.93.46,1.71-.25,3.37-.11.18-.17.1-.22-.07l.38,1.89c-.27-.37-.9.31-.72-.84-.74,3.38.96,5.46,0,6.73l-.08-.28c.43,4.7.94.45,2.04,3.98l-2.32,2.37.94.46c-.03.48-.1,1.44-.48,1.27.64,1.8.41-.31,1.02.74-.86,2.33.4,6.43-1.1,6.96.71.84.55-2.23,1.05.26-1.61.71.28,2.88-.46,5.01-.83-.65-.39-2.67-1.13-.54,1.41,1.29-.31,4.15-.04,5.95,1.12.08.47,3.91.84,6.92-.38-.19-.61,5.67-1.02,8.48l-.19-.08c1.13.54.92,3.44,1.15,5.54-.68-.08-.94-.46-1.25-1.6v1.98c.37.47.56,1.08.69,2.37l-.84-.5c.05,2.64.99,5.31.43,8.7.79.19,2.19-2.7,2.72.89-.43.13-1.16.27-1.33-.67.05.31.35,1.1.17,1.72l-.72-1.43c-.31,1.54.6.81.53,2.04-.61-.02-.43.92-.92.74-.06-.32.25-1.08.01-1.55-.11,1.39-.47,3.08-.93,3.63.35-.12.82,0,.9,1.02.04,2.64-.73.9-1.04,2.44.42.64-.02,2.32.89,2.36,0,.77-.43.91-.68,1.21.4,1.36.11,6.37,1.08,4.83l.06-.35c.02.07.02.14.04.22h0s0,0,0,0c.9,4.47-.51,9.29-.13,13.73h-.3c.35,2.64.21,5.89.86,7.78,0,.78-.56,1.85-.92,1.51.23,2.02.57,2.25.07,5.18-.53-2.04-.47.7-.39-2.09-.26,2.63-.75,3.23.08,6.05-.78-.96-.98,1.98-.75,3.23l.56-1.84c.11,1.41.04,2.64-.02,3.88l-1.02-.68c-1.25,5.38,2.12,9.71.03,13.81.72,1.42.5-2.92,1.34-1.65-.14,2.48-1.61,5.06-1.61,5.83-.57,3.39,1.5,3.17,1.11,6.71.36-.45,1.34-.88,1.68,1.77-.14,2.48-1.53,3.05-1.83,1.48-.03-.59.09-.88.21-.86-.13-.8-.29-1.85-.69-.87l.37.32c-.37,1.23-.33,4.64-.93,3.84.35,1.87.6.8.79-.59-.53,3.18-.02,4.97-.37,8.24.2-.52.63-1,.63-.48-.45,4.8.69,2.11.85,5.36-.56,1.85-1.33-.66-.86,2.61-.38,2-.97.42-1.27-.37.7,2.98-.46,5.57-.59,7.27l-.29-1.57c.18.94.17,1.71.17,2.49l.73-.9c-.13.92-.13,1.7-.43,1.69.48.95,1.22-.73,1.87,1.16-.37,1.23.4,3.75-.57,4.17.33-3.87-.97.43-1.13-2.85.12.63.11,1.4-.02,2.33-.11.14-.2-.13-.26-.38-.87,3.7,1.1,1.7,1.07,5.54-.55-.49-1.04.89-.92,1.51.01-1.55.91-.74,1.33.68-.43,2.46.32,2.67.27,3.96l.2-1.47c.55.5.48,1.73.65,3.44-.43.15-.29-1.56-.48-.95.96,1.9-.99,4.3-.35,6.95-.37,1.23-1.03.12-1.28,1.2.71,2.97-.75,3.22-.16,6.35.73-.9.55-1.06,1.27,1.14l-.52-5.14,1.07,3.3c.01-1.55-.46-3.27-.34-4.2.6,1.57.42,1.41,1.03.67-1.1,2.12.64,4.21-.1,6.66l-1.82-.08c-.81,3.69.93,6.55.48,11.34l.32-1.54c.72.64.1,2.96.39,4.51-.61-.14-.83.83-1.21,1.49.45-.08-.04,3.51,1.17,3.94l-.8,2.14c-.33,3.87,1.73,4.41,1.52,8.13-.66-1.12-1.09.57-1.56-1.92,0,1.24-.12,2.36.3,2.38-.38.72.82,3.44.24,4.58.27.52.9.69.85,2.09-.12.15-.3,0-.3,0,.3,0,.41,2.18,1.08.96-1.9,3.82.14,10.69-1.49,14.01.1,1.35.2,2.85.28,4.31.03.73.07,1.45.1,2.15.01.34.02.68.03,1.01,0,.29-.01.56-.02.83-.17-.15-.3-.03-.22-.42-.15.72-.2,1.17-.13,1.54.08.37.24.65.38.95.28.58.59,1.37-.48,2.87-1.64,1.14.3-1.88-.5-1.04-1.03-.18-1.31.67-1.82,1.72-.48,1.05-1.35,2.29-2.55,2.46.11-.13.23-.25.33-.4-.84.22-1.44.93-2.34,1.61-.87.69-2.02,1.44-3.39,1.5,0,0,.11-.2-.02-.3-.43.31-.94.54-1.67.74-.75.18-1.58.33-2.44.45-1.72.25-3.55.4-5.11.54.97-.78,1.42-.41.83-1.21-1.4.11.41,1.28-2.38,1.5-.91-.43-2.92-.8-3.19-1.65l2.63-.05c-1.35-1.1-3.41.04-4.8-.15l.18-.48c-4.04.16-4.09,1.37-8.43,1.28l.45.36c-2.37,1.2-1.99-.67-4.35.22l-.72-1.21c-1.56.29-5.48,1.17-8.29,1.4,1.59-.9,4.87-1.36,6.9-1.9-1.55,0-5.27.09-6.08.69.62-.12,1.41-.42,2.03-.23-1.9.96-4.41,1.42-7.5,1.4.27-1.18-1.74-1.33-4.1-1.41-.59-.02-1.2-.04-1.81-.06l-.44-.02-.37-.05c-.24-.04-.47-.08-.7-.11-.44-.12-.84-.28-1.17-.46-.32-.22-.56-.46-.7-.73-2.13-.16-4.05-1.5-5.3-3.27-1.25-1.81-1.91-3.96-2.1-6.3-.87.93-.9.61-.95.03-.06-.5-.08-1.47-1.02-1.28-.12-1.48-.09-2.05.03-2.18l1.12-4.5c.55-1.07.42,1.41.84,1.27.14-3.25.8-1.36,1.3-3.51-.67.44-.96-1.13-.71-2.98l-.87,2.61c-1-4.54,1.58-3.92.59-8.5l.59,1.45c-.35-2.35.01-8.66-1.5-10.96.22-.42.73-.96.87.07.23-5.61-1.61-12.49-.68-16.85l.46.43c-.13-1.05-.86-1.82-.4-3.13.19.07.46.42.49-.06-.16-.55-.81-2.78-.54-4.17l.52,1.19c.6-5.47-1.26-8.4-1.58-12.99,1.36.01,1.8-4.29,2.01-6.44l.19.07c.17-6.37-1.12-10.82-1.66-16.73,1.47-3.66.62-12.41,1.44-18.29-.25.9-1.06-.15-1.19-1.19.28-1.38-.94-3.82.3-3.6l-.02.49c1.22-1.04.9-3.88.93-6.1l-1.63-.37c2.36-5.8-.87-15.19,1.25-18.36-.41-1.4-.4-3.13-.81-4.52l.87.08c.22-3.88.33-5.81.12-10.61l.62.98c.06-2.7-2.51-3.41-2.56-5.91l1.3-.75c-.02-4.72,1.12-9.49-.06-14.15.19.08.57.22.62.98.03-2.22.88-8.59-.91-7.78,1.16-.05.11-4.87-.4-7.41l.86.4c-1.1-2.15-1.4-2.22-1.7-5.22.11-.71.69-.62.47.32.45-2.37-.81-1.85-.36-4.72l.55,1.07c.07-2.44-.23-2.25-.87-3.59-.34-1.53.22-4.63.99-4.99-.47-.33-1.11-1.66-.88-3.1.29-.19.48.33.56.59.58-4.08-1-6.06-.15-8.87.28-.06.43-.24.51-.47-.02,3.24-.07,5.85-.13,5.6.79,0,.93-2.62,2.02-.54-.6-2.1-1.89-5.69-1.52-8.24.08-.12.15-.24.27-.34l.09.26c.08-.59,0-1.12-.13-1.61.13-.81.23-1.33.24-2.11.65-.3.35-3,.38-4.31-.87.11-.73-1.6-1.44,0,.06-.21.1.25.14,1.11.03.2.04.43.09.56-.02-.03-.05-.06-.08-.09.02.86.04,1.97.06,3.24-.44-1.03-.81-2.11-.33-3.55-.56-.67-1.13-1.41-1.4-1.82,1.21-1.79,1.86-5.23,2.6-5.71-.49-3.99-.32-9.39-1.95-11.89-.21-1.13.47-1.3.72-1.73.16.65.14,1.43.37,1.79-.42-2.26-.16-6.71-1.3-7.25.51-2.85,1.05,1.6.86-2.32l.35.53c1.81-7.72-2.9-12.55-.57-21.1-.14.59-.21.89-.4,1.01.07-.6.11-1.25.19-1.76.05-.54.16-1.06.27-1.59.24-1.04.56-2.07,1.03-3.04.88-1.96,2.29-3.71,4.05-5.03,1.79-1.27,3.94-2.12,6.14-2.15h.83s.92.03.92.03c.62.03,1.23.07,1.84.12,1.22.1,2.44.25,3.64.45,2.74.33,3.03-.4,4.7-.95l.59.93,2.86-1.07c4.05-.79,7.01,2.28,12.14.8l-.66-.63c1.84.12,5.83-.37,5.52.35.19-.11.6-.65,1.32-.32l.06.49,4.52-.83c3.51.35-.55,1.93,4.57,2.03,1.9-.19,5.41-1.42,4.7-1.74-.77-.02-1.96-.3-2.02-.79l1.74-.25c.32-1.43,1.65-2.9-2.62-3.9l-2.98.88-.96-.7,2.5-.04c-1.42-.65-2.32-.08-3.33.32-.24-.37-.66-.63-1.25-.77l-2.92,1.37c-.35-.56,1.31-1.11-.65-1.42-1.37.64,1.31,1.26-.95,1.67-1.42-.65-1.01-1.18-2.68-.63-.23-.37.12-.6.78-.77-1.49.44-3.93.19-4.7.95-1.48-.8-5.02.21-4.87-1.15-.47.32-2.62,1.07-3.98,1.12,2.5-1.62-5.11-.1-4.45-1.84-1.85,1.46-6.67.65-9.94,1.46.18-.12.54-.35.83-.28-1.84-.12-2.38-.56-3.56-.84-.06.3-.28.54-.61.75-.31.2-.91.41-1.44.59-1.11.38-2.35.88-3.1,1.49-1.41-.19-1.19-.61-.65-1.16.53-.5,1.39-1.07.81-1.5.18.48-1.01.95-1.98,1.6-.5.29-.94.6-1.18.87-.24.26-.29.45,0,.54-1.11.11-1.52.34-1.88.39-.35.07-.61.03-1.35-.03.28.74-.08,1.06-.6,1.48-.5.44-1.22.95-1.44,1.92-.66.43-1.05.67-1.34.8-.29.12-.47.13-.63.17-.31.07-.55.28-1.23,1.92-.57.64-.64.22-.54-.41.13-.6.45-1.38.45-1.38ZM623.85,421.55h-.02c-.02-.56-.04-1.04-.05-1.35.01.28.03.67.07,1.35ZM623.87,427.03c.03-.67.04-1.5.03-2.38.3-.19.61.02.59.57-.2-.3-.37.99-.62,1.81ZM629.86,415.44c.12.87-.05,1.16-.22,1.28-.02-.41-.04-.89-.1-1.52-.03-.03-.07-.08-.11-.1.17.08.32.18.43.34Z"/>
    <path class="cls-1" d="M628.73,413.88c-.02-.12-.06-.19-.06-.36-.08.18-.14.35-.19.52.09.11.19.21.27.31,0-.16,0-.32-.01-.47Z"/>
    <path class="cls-1" d="M699.82,451.35l-.02.12c.03-.1.07-.18.12-.24-.04.08-.07.08-.1.13Z"/>
    <polygon class="cls-1" points="622.21 502.75 622.43 502.74 622.24 502.26 622.21 502.75"/>
    <path class="cls-1" d="M702.79,421.15c.08-.06.16-.17.22-.4-.06.02-.14.19-.22.4Z"/>
    <path class="cls-1" d="M702.98,408.1l.31-1.84c-.18.8-.26,1.38-.31,1.84Z"/>
    <path class="cls-1" d="M703.41,398.07c-.15-.13-.27-.16-.37-.2,0,0,0,.01,0,.02l.38.18Z"/>
    <path class="cls-1" d="M704.43,557.54c0,.13.02.27.04.39.17.91.1.29-.04-.39Z"/>
    <path class="cls-1" d="M702.4,510.09c.16.5.31,1,.41,1.53.07-.84.08-1.5-.41-1.53Z"/>
    <path class="cls-1" d="M705.47,610.54s0,0-.02,0v.33l.02-.32Z"/>
    <path class="cls-1" d="M702.8,513.82c.17-.84.14-1.55.01-2.21-.06.69-.15,1.51-.01,2.21Z"/>
    <path class="cls-1" d="M699.92,353.64l-.36-.45s-.09.05-.15.04l.51.41Z"/>
    <path class="cls-1" d="M699.42,353.23l-.5-.4c.2.21.37.39.5.4Z"/>
    <path class="cls-1" d="M697.8,352.08c.37.25.76.47,1.11.75-.31-.34-.73-.73-1.11-.75Z"/>
    <path class="cls-1" d="M703.4,367.88l.31.15c-.07-.08-.17-.14-.31-.15Z"/>
    <path class="cls-1" d="M703.49,371.91c.07-.96.67-2.42.47-3.76l-.25-.12c.47.63-.75,2.97-.22,3.88Z"/>
    <path class="cls-1" d="M699.61,388.75l.25-3.38c-.33.59-.78,1.37-.86-.17-1,4.26.75-.88.61,3.55Z"/>
    <path class="cls-1" d="M699.13,399.24c-.16-1.82-.49.02-.67-.08.31,1.15.38,1.43.67.08Z"/>
    <path class="cls-1" d="M699.13,475l-.79-.18c.11,1.4.31.01.79.18Z"/>
    <polygon class="cls-1" points="703.2 489.48 703.68 488.12 702.96 487.47 703.2 489.48"/>
    <polygon class="cls-1" points="697.59 498.04 697.47 497.43 697.76 499.76 697.59 498.04"/>
    <path class="cls-1" d="M697.87,625.28l.97-.42c-.17-.95-1.26-1.15-.97.42Z"/>
    <path class="cls-1" d="M664.55,647.44c-.6-.48-2.14-.8-3.1-.32,1.23.07,2.47.44,3.1.32Z"/>
    <polygon class="cls-1" points="629.99 517.32 630.31 518.42 630.04 516.34 629.99 517.32"/>
  </g>
</svg>