<?xml version="1.0" encoding="UTF-8"?>
<svg id="Logo" xmlns="http://www.w3.org/2000/svg" viewBox="0 0 1000 1000">
  <defs>
    <style>
      .cls-1 {
        fill: #fcfbe9;
      }
    </style>
  </defs>
  <path class="cls-1" d="M349.69,480.87v22.17c0,42.44-31.04,77.97-71.54,85.02-1.09.19-2.19.37-3.3.52-.51.07-.97.37-1.23.82l-8.78,15.2c-.65,1.12-2.27,1.12-2.92,0l-8.78-15.2c-.26-.45-.71-.75-1.23-.82-1.11-.15-2.21-.33-3.3-.52-40.5-7.05-71.54-42.58-71.54-85.02v-22.17c0-17.64,5.36-34.08,14.53-47.78.7-1.04,2.24-1,2.86.08l56.92,97.88c.94,1.62,3.43.72,3.12-1.13l-21.76-128.24c-.14-.8.31-1.59,1.07-1.87,9.23-3.4,19.2-5.25,29.57-5.25s20.34,1.86,29.57,5.25c.76.28,1.21,1.07,1.07,1.87l-21.76,128.24c-.31,1.85,2.17,2.75,3.12,1.13l56.92-97.88c.63-1.08,2.17-1.12,2.86-.08,9.17,13.7,14.53,30.14,14.53,47.78Z"/>
  <path class="cls-1" d="M407.39,533.75l-22.63-68.73h16.1l10.12,34.13,3.37,15h.22c1.31-5.7,2.5-10.57,3.59-14.61l8.49-34.51h15.23l8.49,34.41,3.59,14.71h.22c1.52-6.09,2.79-11.12,3.81-15.09l9.79-34.03h15.56l-22.2,68.73h-14.69l-9.47-36.82-2.72-12.21h-.22c-.8,4.81-1.63,8.88-2.5,12.21l-9.58,36.82h-14.58Z"/>
  <path class="cls-1" d="M489.21,476.75v-11.73h14.8v11.73h-14.8ZM489.21,533.75v-49.31h14.8v49.31h-14.8Z"/>
  <path class="cls-1" d="M514.35,533.75v-68.73h14.8v68.73h-14.8Z"/>
  <path class="cls-1" d="M560.38,535.19c-7.04,0-12.73-2.35-17.08-7.07-4.35-4.71-6.53-11.04-6.53-18.99s2.23-13.95,6.69-18.79c4.46-4.84,10.17-7.26,17.14-7.26s12.22,2.44,15.78,7.31h.33v-25.38h14.8v68.73h-14.25v-6.44h-.22c-3.63,5.26-9.18,7.88-16.65,7.88ZM563.64,524.23c4.35,0,7.67-1.31,9.96-3.94,2.28-2.63,3.43-6.25,3.43-10.86,0-10.51-4.32-15.77-12.95-15.77-3.99,0-7.04,1.41-9.14,4.23-2.1,2.82-3.16,6.57-3.16,11.25s1.03,8.52,3.1,11.15c2.07,2.63,4.99,3.94,8.76,3.94Z"/>
  <path class="cls-1" d="M616.41,465.02v25.86h.33c2.1-2.69,4.41-4.66,6.91-5.91s5.6-1.87,9.3-1.87c5.73,0,10.37,1.72,13.93,5.14,3.55,3.43,5.33,7.87,5.33,13.31v32.2h-14.8v-30.28c0-2.69-.85-4.87-2.56-6.54-1.7-1.67-4.08-2.5-7.13-2.5-3.26,0-5.97,1.06-8.11,3.17-2.14,2.11-3.21,4.84-3.21,8.17v27.97h-14.8v-68.73h14.8Z"/>
  <path class="cls-1" d="M697.04,533.75c-.73-.83-1.31-2.66-1.74-5.48h-.22c-1.6,2.11-3.63,3.75-6.09,4.9-2.47,1.15-5.91,1.73-10.34,1.73-5.88,0-10.59-1.31-14.15-3.94-3.55-2.63-5.33-6.34-5.33-11.15s1.96-8.67,5.88-11.01c3.92-2.34,9.43-3.96,16.54-4.85,5.22-.64,8.78-1.3,10.66-1.97,1.89-.67,2.83-1.87,2.83-3.6s-.8-3.22-2.39-4.28c-1.6-1.06-3.92-1.59-6.96-1.59-6.75,0-10.34,2.31-10.77,6.92h-13.17c.22-4.68,2.36-8.56,6.42-11.63,4.06-3.08,9.94-4.61,17.63-4.61,15.67,0,23.5,6.06,23.5,18.17v25.09c0,3.72.65,5.99,1.96,6.83v.48h-14.25ZM682.24,525.77c4.06,0,7.27-.93,9.63-2.79,2.36-1.86,3.54-4.07,3.54-6.63v-7.4c-1.6.83-5.04,1.79-10.34,2.88-4.21.83-7.18,1.78-8.92,2.84s-2.61,2.68-2.61,4.85c0,4.17,2.9,6.25,8.7,6.25Z"/>
  <path class="cls-1" d="M733.49,484.44v7.88h.33c1.74-2.88,3.66-5.01,5.77-6.39,2.1-1.38,4.75-2.07,7.94-2.07,1.52,0,2.68.13,3.48.38v11.44h-.33c-5.01-.45-9.03.51-12.08,2.88-3.05,2.37-4.57,6.09-4.57,11.15v24.03h-14.8v-49.31h14.25Z"/>
  <path class="cls-1" d="M755.25,494.54v-10.44h7.73v-15.04h14.47v15.04h9.58v10.44h-9.58v24.7c0,3.27,1.85,4.9,5.55,4.9l4.35-.1v9.61c-2.25.13-5.33.19-9.25.19-4.28,0-7.87-.91-10.77-2.74-2.9-1.83-4.35-4.85-4.35-9.08v-27.49h-7.73Z"/>
  <path class="cls-1" d="M790.83,494.54v-10.44h7.73v-15.04h14.47v15.04h9.58v10.44h-9.58v24.7c0,3.27,1.85,4.9,5.55,4.9l4.35-.1v9.61c-2.25.13-5.33.19-9.25.19-4.28,0-7.87-.91-10.77-2.74-2.9-1.83-4.35-4.85-4.35-9.08v-27.49h-7.73Z"/>
</svg>