<?xml version="1.0" encoding="UTF-8"?>
<svg id="Logo" xmlns="http://www.w3.org/2000/svg" viewBox="0 0 1000 1000">
  <defs>
    <style>
      .cls-1 {
        fill: #fcfbe9;
        stroke-width: 0px;
      }
    </style>
  </defs>
  <g>
    <path class="cls-1" d="M686.42,473.02v47.6c0,91.14-66.66,167.43-153.62,182.57-2.34.41-4.71.79-7.1,1.11-1.1.15-2.08.79-2.64,1.76l-18.85,32.64c-1.39,2.41-4.87,2.41-6.26,0l-18.85-32.64c-.56-.97-1.53-1.61-2.64-1.76-2.38-.33-4.75-.7-7.1-1.11-86.96-15.14-153.62-91.43-153.62-182.57v-47.6c0-37.87,11.51-73.17,31.21-102.59,1.49-2.23,4.8-2.14,6.15.18l122.22,210.17c2.02,3.48,7.36,1.55,6.69-2.42l-46.72-275.37c-.29-1.71.67-3.41,2.3-4.01,19.82-7.29,41.22-11.28,63.48-11.28s43.67,3.99,63.48,11.28c1.63.6,2.59,2.29,2.3,4.01l-46.72,275.37c-.67,3.97,4.67,5.9,6.69,2.42l122.22-210.17c1.35-2.32,4.66-2.41,6.15-.18,19.7,29.42,31.21,64.72,31.21,102.59Z"/>
    <g>
      <path class="cls-1" d="M264.34,483.74l-73.83,18.15,1.3-16.87,36.57-7.84,15.98-2.32.02-.23c-5.87-1.83-10.88-3.48-15.02-4.94l-35.46-11.68,1.23-15.96,36.74-6.11,15.7-2.57.02-.23c-6.25-2.09-11.42-3.82-15.5-5.21l-34.86-13.01,1.26-16.3,70.21,28.81-1.19,15.39-39.33,6.94-13.01,1.86-.02.23c4.97,1.23,9.17,2.43,12.59,3.61l37.79,13.01-1.18,15.27Z"/>
      <path class="cls-1" d="M285.21,378.65l-65.13-31.19,7.16-14.95,65.13,31.19-7.16,14.95Z"/>
      <path class="cls-1" d="M309.93,333.18l-53.3-48.73,11.19-12.23,44.28,40.48,25.92-28.35,9.02,8.25-37.1,40.59Z"/>
      <path class="cls-1" d="M370.91,274.05l-31.1-65.17,28.79-13.74c9.77-4.66,19.09-5.29,27.98-1.88,8.89,3.41,15.65,9.97,20.29,19.69,5.37,11.24,5.52,21.65.46,31.23-3.71,6.92-10,12.49-18.87,16.73l-27.55,13.15ZM380.43,255.51l11.56-5.51c6.81-3.25,10.93-7.36,12.36-12.33,1.43-4.97.55-10.8-2.64-17.48-3.19-6.68-7.37-11.24-12.53-13.66-5.17-2.42-10.85-2.15-17.04.8l-11.97,5.71,20.27,42.48Z"/>
      <path class="cls-1" d="M461.4,238.67l-2.44-72.17,16.57-.56.96,28.26,32.11-1.08-.95-28.26,16.57-.56,2.44,72.17-16.57.56-1.07-31.8-32.11,1.08,1.07,31.8-16.57.56Z"/>
      <path class="cls-1" d="M554.14,240.38l53.32-56.41,15.91,6.39-.17,77.75-16.02-6.43.63-16.29-27.37-10.99-10.71,12.25-15.6-6.26ZM602.77,208.86l-14.54,16.58,20.05,8.05.96-22.03,1.06-11.55-.21-.09c-3.08,3.99-5.52,7-7.32,9.03Z"/>
      <path class="cls-1" d="M645.8,284.73l51.09-51.04,26.5,26.53c5.55,5.55,8.72,11.35,9.52,17.39.8,6.04-.92,11.18-5.16,15.42-6.53,6.52-14.18,7.1-22.95,1.75l-.21.21c2.03,3.46,2.96,6.66,2.79,9.58-.17,2.92-1.6,6.09-4.27,9.52-1.04,1.25-2.26,2.72-3.67,4.4-1.42,1.68-2.53,3.02-3.36,4-.82.99-1.62,2-2.39,3.04-.77,1.04-1.28,1.93-1.54,2.67-.26.74-.27,1.37-.04,1.89l-.5.5-11.23-11.24c-.12-.31-.13-.68-.03-1.1.1-.42.33-.93.7-1.51.37-.58.76-1.17,1.18-1.75.42-.58.98-1.3,1.69-2.17.71-.87,1.33-1.62,1.87-2.27.54-.65,1.26-1.5,2.16-2.56.89-1.06,1.6-1.9,2.12-2.52,5.33-6.29,4.46-12.97-2.59-20.03l-9.45-9.46-20.51,20.49-11.72-11.73ZM700.24,253.77l-14.22,14.21,12.44,12.46c3.07,3.07,6.07,4.79,9,5.15,2.93.36,5.44-.51,7.54-2.6,2.14-2.14,3.1-4.66,2.87-7.56-.23-2.9-1.85-5.85-4.87-8.87l-12.77-12.78Z"/>
      <path class="cls-1" d="M761,328.87l11.38-4.73,25.26,60.69-11.38,4.73-9.45-22.69-55.29,23.02-6.37-15.3,55.29-23.02-9.45-22.69Z"/>
      <path class="cls-1" d="M795.1,437.82l12.32-.39,2.08,65.7-12.32.39-.78-24.57-59.86,1.89-.52-16.57,59.86-1.89-.78-24.57Z"/>
    </g>
  </g>
  <g>
    <path class="cls-1" d="M379.24,834.77v-12.37h-22.45v-4.17l23.12-31.99h3.76v32.46h7.53v3.7h-7.53v12.37h-4.44ZM361.23,818.7h18.01v-24.93h-.13l-17.88,24.73v.2Z"/>
    <path class="cls-1" d="M422.25,834.77v-12.37h-22.45v-4.17l23.12-31.99h3.76v32.46h7.53v3.7h-7.53v12.37h-4.44ZM404.24,818.7h18.01v-24.93h-.13l-17.88,24.73v.2Z"/>
    <path class="cls-1" d="M449.53,803.92c-2.24,0-4.16-.78-5.75-2.35-1.59-1.57-2.39-3.47-2.39-5.71s.79-4.15,2.39-5.75c1.59-1.59,3.5-2.39,5.75-2.39s4.21.8,5.78,2.39c1.57,1.59,2.35,3.51,2.35,5.75s-.78,4.14-2.35,5.71c-1.57,1.57-3.49,2.35-5.78,2.35ZM449.53,801.16c1.48,0,2.66-.49,3.53-1.48.87-.99,1.31-2.26,1.31-3.83s-.45-2.79-1.34-3.8c-.9-1.01-2.06-1.51-3.49-1.51s-2.6.5-3.49,1.51c-.9,1.01-1.34,2.27-1.34,3.8s.45,2.85,1.34,3.83c.9.99,2.06,1.48,3.49,1.48Z"/>
    <path class="cls-1" d="M498.66,835.71c-4.57,0-8.31-1.29-11.22-3.86-2.91-2.58-4.46-5.92-4.64-10.05h4.5c.36,3.14,1.49,5.57,3.39,7.29,1.9,1.73,4.54,2.59,7.9,2.59,3.54,0,6.33-1.14,8.37-3.43,2.04-2.29,3.06-5.29,3.06-9.01s-1.03-6.52-3.09-8.67c-2.06-2.15-4.73-3.23-8-3.23-4.88,0-8.42,1.66-10.62,4.97h-4.23l4.17-25.6h23.99v3.97h-20.7l-2.69,16.53h.13c2.87-2.55,6.41-3.83,10.62-3.83s7.72,1.41,10.65,4.23c2.93,2.82,4.4,6.74,4.4,11.76s-1.48,8.77-4.44,11.79c-2.96,3.02-6.81,4.54-11.56,4.54Z"/>
    <path class="cls-1" d="M556.18,829.02c-3.14,4.46-7.57,6.69-13.31,6.69s-10.18-2.23-13.34-6.69c-3.16-4.46-4.74-10.56-4.74-18.31s1.63-13.85,4.91-18.31c3.27-4.46,7.68-6.69,13.24-6.69s9.88,2.22,13.11,6.65c3.23,4.43,4.84,10.55,4.84,18.35s-1.57,13.86-4.7,18.31ZM532.93,826.23c2.33,3.63,5.67,5.44,10.01,5.44s7.65-1.78,9.91-5.34c2.26-3.56,3.39-8.77,3.39-15.62s-1.15-11.91-3.46-15.56c-2.31-3.65-5.59-5.48-9.85-5.48s-7.74,1.79-10.05,5.38c-2.31,3.59-3.46,8.8-3.46,15.66s1.16,11.89,3.49,15.52Z"/>
    <path class="cls-1" d="M571.03,801.1l2.76-14.38h3.97l-2.76,14.38h-3.97Z"/>
    <path class="cls-1" d="M606.99,834.77v-48.05h4.91l22.11,33.74c.72,1.08,1.48,2.27,2.29,3.6.81,1.32,1.43,2.39,1.88,3.19l.6,1.14h.13v-41.67h4.3v48.05h-4.7l-22.04-33.33-5.04-8.13h-.13v41.46h-4.3Z"/>
  </g>
</svg>