<?xml version="1.0" encoding="UTF-8"?>
<svg id="Logo" xmlns="http://www.w3.org/2000/svg" viewBox="0 0 1000 1000">
  <defs>
    <style>
      .cls-1 {
        fill: #fcfbe9;
        stroke-width: 0px;
      }
    </style>
  </defs>
  <g>
    <path class="cls-1" d="M164.54,499.51l-21.59-65.57h15.36l9.65,32.56,3.22,14.31h.21c1.25-5.44,2.39-10.09,3.43-13.94l8.1-32.92h14.53l8.1,32.83,3.43,14.03h.21c1.45-5.81,2.66-10.61,3.63-14.4l9.34-32.47h14.84l-21.18,65.57h-14.01l-9.03-35.13-2.6-11.65h-.21c-.76,4.59-1.56,8.47-2.39,11.65l-9.14,35.13h-13.91Z"/>
    <path class="cls-1" d="M259.94,499.51v-65.57h15.05v65.57h-15.05Z"/>
    <path class="cls-1" d="M303.13,499.51v-65.57h15.05v54.48h34.88v11.1h-49.93Z"/>
    <path class="cls-1" d="M377.76,499.51v-65.57h28.96c9.83,0,17.72,3.13,23.67,9.4,5.95,6.27,8.93,14.29,8.93,24.07,0,11.31-3.95,19.9-11.83,25.77-5.75,4.22-13.08,6.33-22.01,6.33h-27.72ZM392.82,488.05h11.63c6.85,0,11.83-1.76,14.95-5.27,3.11-3.52,4.67-8.64,4.67-15.36s-1.65-12.09-4.93-16.1c-3.29-4-8.04-6.01-14.27-6.01h-12.04v42.74Z"/>
    <path class="cls-1" d="M464.13,499.51v-65.57h15.05v25.68h29.17v-25.68h15.05v65.57h-15.05v-28.89h-29.17v28.89h-15.05Z"/>
    <path class="cls-1" d="M546.04,499.51l25.85-65.57h15.57l26.16,65.57h-15.68l-4.98-13.94h-26.78l-4.88,13.94h-15.26ZM576.35,456.5l-6.64,18.89h19.62l-6.64-18.89-3.01-10.09h-.21c-1.25,4.4-2.28,7.77-3.11,10.09Z"/>
    <path class="cls-1" d="M636.46,499.51v-65.57h34.05c7.13,0,12.89,1.68,17.28,5.04,4.39,3.36,6.59,7.77,6.59,13.21,0,8.38-4.53,13.67-13.6,15.87v.27c3.53.92,6.18,2.37,7.94,4.36,1.76,1.99,2.89,4.94,3.37,8.85.14,1.47.29,3.2.47,5.18.17,1.99.31,3.56.42,4.72.1,1.16.24,2.32.42,3.49.17,1.16.42,2.06.73,2.71.31.64.71,1.05,1.19,1.24v.64h-14.43c-.28-.12-.52-.35-.73-.69-.21-.33-.38-.81-.52-1.42-.14-.61-.26-1.24-.36-1.88-.1-.64-.21-1.47-.31-2.48-.1-1.01-.19-1.89-.26-2.66-.07-.76-.16-1.77-.26-3.03-.1-1.25-.19-2.25-.26-2.98-.62-7.46-5.47-11.19-14.53-11.19h-12.15v26.32h-15.05ZM651.51,444.67v18.25h15.99c3.95,0,6.97-.83,9.08-2.48,2.11-1.65,3.17-3.82,3.17-6.51s-1-4.98-3.01-6.69c-2.01-1.71-4.95-2.57-8.82-2.57h-16.4Z"/>
    <path class="cls-1" d="M715.76,445.13v-11.19h59.69v11.19h-22.32v54.38h-15.05v-54.38h-22.32Z"/>
    <path class="cls-1" d="M797.36,445.13v-11.19h59.69v11.19h-22.32v54.38h-15.05v-54.38h-22.32Z"/>
  </g>
  <g>
    <path class="cls-1" d="M419.96,565.44v-8.2h-14.88v-2.76l15.32-21.2h2.49v21.51h4.99v2.45h-4.99v8.2h-2.94ZM408.03,554.79h11.94v-16.52h-.09l-11.85,16.39v.13Z"/>
    <path class="cls-1" d="M448.47,565.44v-8.2h-14.88v-2.76l15.32-21.2h2.49v21.51h4.99v2.45h-4.99v8.2h-2.94ZM436.53,554.79h11.94v-16.52h-.09l-11.85,16.39v.13Z"/>
    <path class="cls-1" d="M466.55,544.99c-1.49,0-2.75-.52-3.81-1.56-1.05-1.04-1.58-2.3-1.58-3.79s.53-2.75,1.58-3.81c1.05-1.05,2.32-1.58,3.81-1.58s2.79.53,3.83,1.58c1.04,1.05,1.56,2.32,1.56,3.81s-.52,2.75-1.56,3.79c-1.04,1.04-2.32,1.56-3.83,1.56ZM466.55,543.17c.98,0,1.76-.33,2.34-.98.58-.65.87-1.5.87-2.54s-.3-1.85-.89-2.52c-.59-.67-1.37-1-2.32-1s-1.72.33-2.32,1c-.59.67-.89,1.51-.89,2.52s.3,1.89.89,2.54c.59.65,1.37.98,2.32.98Z"/>
    <path class="cls-1" d="M499.11,566.06c-3.03,0-5.51-.85-7.44-2.56-1.93-1.71-2.95-3.93-3.07-6.66h2.98c.24,2.08.99,3.69,2.25,4.83,1.26,1.14,3.01,1.71,5.23,1.71,2.35,0,4.19-.76,5.55-2.27,1.35-1.51,2.03-3.5,2.03-5.97s-.68-4.32-2.05-5.75c-1.37-1.43-3.13-2.14-5.3-2.14-3.24,0-5.58,1.1-7.04,3.3h-2.81l2.76-16.97h15.9v2.63h-13.72l-1.78,10.96h.09c1.9-1.69,4.25-2.54,7.04-2.54s5.11.94,7.06,2.81c1.94,1.87,2.92,4.47,2.92,7.79s-.98,5.81-2.94,7.82c-1.96,2-4.51,3.01-7.66,3.01Z"/>
    <path class="cls-1" d="M537.24,561.63c-2.08,2.95-5.02,4.43-8.82,4.43s-6.75-1.48-8.84-4.43c-2.09-2.95-3.14-7-3.14-12.14s1.08-9.18,3.25-12.14c2.17-2.95,5.09-4.43,8.77-4.43s6.55,1.47,8.69,4.41c2.14,2.94,3.21,6.99,3.21,12.16s-1.04,9.18-3.12,12.14ZM521.83,559.78c1.54,2.4,3.76,3.61,6.64,3.61s5.07-1.18,6.57-3.54c1.5-2.36,2.25-5.81,2.25-10.36s-.76-7.89-2.29-10.31c-1.53-2.42-3.7-3.63-6.53-3.63s-5.13,1.19-6.66,3.56c-1.53,2.38-2.29,5.83-2.29,10.38s.77,7.88,2.32,10.29Z"/>
    <path class="cls-1" d="M547.08,543.12l1.83-9.53h2.63l-1.83,9.53h-2.63Z"/>
    <path class="cls-1" d="M570.91,565.44v-31.85h3.25l14.65,22.36c.47.71.98,1.51,1.51,2.38.53.88.95,1.58,1.25,2.12l.4.76h.09v-27.61h2.85v31.85h-3.12l-14.61-22.09-3.34-5.39h-.09v27.48h-2.85Z"/>
  </g>
</svg>