<?xml version="1.0" encoding="UTF-8"?>
<svg id="Logo" xmlns="http://www.w3.org/2000/svg" viewBox="0 0 1000 1000">
  <defs>
    <style>
      .cls-1 {
        fill: #fefded;
        stroke-width: 0px;
      }
    </style>
  </defs>
  <path class="cls-1" d="M686.42,520.62v47.6c0,91.14-66.66,167.43-153.62,182.57-2.34.41-4.71.79-7.1,1.11-1.1.15-2.08.79-2.64,1.76l-18.85,32.64c-1.39,2.41-4.87,2.41-6.26,0l-18.85-32.64c-.56-.97-1.53-1.61-2.64-1.76-2.38-.33-4.75-.7-7.1-1.11-86.96-15.14-153.62-91.43-153.62-182.57v-47.6c0-37.87,11.51-73.17,31.21-102.59,1.49-2.23,4.8-2.14,6.15.18l122.22,210.17c2.02,3.48,7.36,1.55,6.69-2.42l-46.72-275.37c-.29-1.71.67-3.41,2.3-4.01,19.82-7.29,41.22-11.28,63.48-11.28s43.67,3.99,63.48,11.28c1.63.6,2.59,2.29,2.3,4.01l-46.72,275.37c-.67,3.97,4.67,5.9,6.69,2.42l122.22-210.17c1.35-2.32,4.66-2.41,6.15-.18,19.7,29.42,31.21,64.72,31.21,102.59Z"/>
  <g>
    <path class="cls-1" d="M264.34,531.34l-73.83,18.15,1.3-16.87,36.57-7.84,15.98-2.32.02-.23c-5.87-1.83-10.88-3.48-15.02-4.94l-35.46-11.68,1.23-15.96,36.74-6.11,15.7-2.57.02-.23c-6.25-2.09-11.42-3.82-15.5-5.21l-34.86-13.01,1.26-16.3,70.21,28.81-1.19,15.39-39.33,6.94-13.01,1.86-.02.23c4.97,1.23,9.17,2.43,12.59,3.61l37.79,13.01-1.18,15.27Z"/>
    <path class="cls-1" d="M285.21,426.25l-65.13-31.19,7.16-14.95,65.13,31.19-7.16,14.95Z"/>
    <path class="cls-1" d="M309.93,380.78l-53.3-48.73,11.19-12.23,44.28,40.48,25.92-28.35,9.02,8.25-37.1,40.59Z"/>
    <path class="cls-1" d="M370.91,321.64l-31.1-65.17,28.79-13.74c9.77-4.66,19.09-5.29,27.98-1.88,8.89,3.41,15.65,9.97,20.29,19.69,5.37,11.24,5.52,21.65.46,31.23-3.71,6.92-10,12.49-18.87,16.73l-27.55,13.15ZM380.43,303.11l11.56-5.51c6.81-3.25,10.93-7.36,12.36-12.33,1.43-4.97.55-10.8-2.64-17.48-3.19-6.68-7.37-11.24-12.53-13.66-5.17-2.42-10.85-2.15-17.04.8l-11.97,5.71,20.27,42.48Z"/>
    <path class="cls-1" d="M461.4,286.27l-2.44-72.17,16.57-.56.96,28.26,32.11-1.08-.95-28.26,16.57-.56,2.44,72.17-16.57.56-1.07-31.8-32.11,1.08,1.07,31.8-16.57.56Z"/>
    <path class="cls-1" d="M554.14,287.98l53.32-56.41,15.91,6.39-.17,77.75-16.02-6.43.63-16.29-27.37-10.99-10.71,12.25-15.6-6.26ZM602.77,256.46l-14.54,16.58,20.05,8.05.96-22.03,1.06-11.55-.21-.09c-3.08,3.99-5.52,7-7.32,9.03Z"/>
    <path class="cls-1" d="M645.8,332.33l51.09-51.04,26.5,26.53c5.55,5.55,8.72,11.35,9.52,17.39.8,6.04-.92,11.18-5.16,15.42-6.53,6.52-14.18,7.1-22.95,1.75l-.21.21c2.03,3.46,2.96,6.66,2.79,9.58-.17,2.92-1.6,6.09-4.27,9.52-1.04,1.25-2.26,2.72-3.67,4.4-1.42,1.68-2.53,3.02-3.36,4-.82.99-1.62,2-2.39,3.04-.77,1.04-1.28,1.93-1.54,2.67-.26.74-.27,1.37-.04,1.89l-.5.5-11.23-11.24c-.12-.31-.13-.68-.03-1.1.1-.42.33-.93.7-1.51.37-.58.76-1.17,1.18-1.75.42-.58.98-1.3,1.69-2.17.71-.87,1.33-1.62,1.87-2.27.54-.65,1.26-1.5,2.16-2.56.89-1.06,1.6-1.9,2.12-2.52,5.33-6.29,4.46-12.97-2.59-20.03l-9.45-9.46-20.51,20.49-11.72-11.73ZM700.24,301.37l-14.22,14.21,12.44,12.46c3.07,3.07,6.07,4.79,9,5.15,2.93.36,5.44-.51,7.54-2.6,2.14-2.14,3.1-4.66,2.87-7.56-.23-2.9-1.85-5.85-4.87-8.87l-12.77-12.78Z"/>
    <path class="cls-1" d="M761,376.47l11.38-4.73,25.26,60.69-11.38,4.73-9.45-22.69-55.29,23.02-6.37-15.3,55.29-23.02-9.45-22.69Z"/>
    <path class="cls-1" d="M795.1,485.41l12.32-.39,2.08,65.7-12.32.39-.78-24.57-59.86,1.89-.52-16.57,59.86-1.89-.78-24.57Z"/>
  </g>
</svg>