<?xml version="1.0" encoding="UTF-8"?>
<svg id="Logo" xmlns="http://www.w3.org/2000/svg" viewBox="0 0 1000 1000">
  <defs>
    <style>
      .cls-1 {
        fill: #2c3d3c;
        stroke-width: 0px;
      }
    </style>
  </defs>
  <path class="cls-1" d="M685.33,458.92v47.6c0,91.14-66.66,167.43-153.62,182.57-2.34.41-4.71.79-7.1,1.11-1.1.15-2.08.79-2.64,1.76l-18.85,32.64c-1.39,2.41-4.87,2.41-6.26,0l-18.85-32.64c-.56-.97-1.53-1.61-2.64-1.76-2.38-.33-4.75-.7-7.1-1.11-86.96-15.14-153.62-91.43-153.62-182.57v-47.6c0-37.87,11.51-73.17,31.21-102.59,1.49-2.23,4.8-2.14,6.15.18l122.22,210.17c2.02,3.48,7.36,1.55,6.69-2.42l-46.72-275.37c-.29-1.71.67-3.41,2.3-4.01,19.82-7.29,41.22-11.28,63.48-11.28s43.67,3.99,63.48,11.28c1.63.6,2.59,2.29,2.3,4.01l-46.72,275.37c-.67,3.97,4.67,5.9,6.69,2.42l122.22-210.17c1.35-2.32,4.66-2.41,6.15-.18,19.7,29.42,31.21,64.72,31.21,102.59Z"/>
</svg>