<?xml version="1.0" encoding="UTF-8"?>
<svg id="Logo" xmlns="http://www.w3.org/2000/svg" viewBox="0 0 1000 1000">
  <defs>
    <style>
      .cls-1 {
        fill: #2c3d3c;
        stroke-width: 0px;
      }
    </style>
  </defs>
  <path class="cls-1" d="M164.54,532.79l-21.59-65.57h15.36l9.65,32.56,3.22,14.31h.21c1.25-5.44,2.39-10.09,3.43-13.94l8.1-32.92h14.53l8.1,32.83,3.43,14.03h.21c1.45-5.81,2.66-10.61,3.63-14.4l9.34-32.47h14.84l-21.18,65.57h-14.01l-9.03-35.13-2.6-11.65h-.21c-.76,4.59-1.56,8.47-2.39,11.65l-9.14,35.13h-13.91Z"/>
  <path class="cls-1" d="M259.94,532.79v-65.57h15.05v65.57h-15.05Z"/>
  <path class="cls-1" d="M303.13,532.79v-65.57h15.05v54.48h34.88v11.1h-49.93Z"/>
  <path class="cls-1" d="M377.76,532.79v-65.57h28.96c9.83,0,17.72,3.13,23.67,9.4,5.95,6.27,8.93,14.29,8.93,24.07,0,11.31-3.95,19.9-11.83,25.77-5.75,4.22-13.08,6.33-22.01,6.33h-27.72ZM392.82,521.32h11.63c6.85,0,11.83-1.76,14.95-5.27,3.11-3.52,4.67-8.64,4.67-15.36s-1.65-12.09-4.93-16.1c-3.29-4-8.04-6.01-14.27-6.01h-12.04v42.74Z"/>
  <path class="cls-1" d="M464.13,532.79v-65.57h15.05v25.68h29.17v-25.68h15.05v65.57h-15.05v-28.89h-29.17v28.89h-15.05Z"/>
  <path class="cls-1" d="M546.04,532.79l25.85-65.57h15.57l26.16,65.57h-15.68l-4.98-13.94h-26.78l-4.88,13.94h-15.26ZM576.35,489.77l-6.64,18.89h19.62l-6.64-18.89-3.01-10.09h-.21c-1.25,4.4-2.28,7.77-3.11,10.09Z"/>
  <path class="cls-1" d="M636.46,532.79v-65.57h34.05c7.13,0,12.89,1.68,17.28,5.04,4.39,3.36,6.59,7.77,6.59,13.21,0,8.38-4.53,13.67-13.6,15.87v.27c3.53.92,6.18,2.37,7.94,4.36,1.76,1.99,2.89,4.94,3.37,8.85.14,1.47.29,3.2.47,5.18.17,1.99.31,3.56.42,4.72.1,1.16.24,2.32.42,3.49.17,1.16.42,2.06.73,2.71.31.64.71,1.05,1.19,1.24v.64h-14.43c-.28-.12-.52-.35-.73-.69-.21-.33-.38-.81-.52-1.42-.14-.61-.26-1.24-.36-1.88-.1-.64-.21-1.47-.31-2.48-.1-1.01-.19-1.89-.26-2.66-.07-.76-.16-1.77-.26-3.03-.1-1.25-.19-2.25-.26-2.98-.62-7.46-5.47-11.19-14.53-11.19h-12.15v26.32h-15.05ZM651.51,477.94v18.25h15.99c3.95,0,6.97-.83,9.08-2.48,2.11-1.65,3.17-3.82,3.17-6.51s-1-4.98-3.01-6.69c-2.01-1.71-4.95-2.57-8.82-2.57h-16.4Z"/>
  <path class="cls-1" d="M715.76,478.4v-11.19h59.69v11.19h-22.32v54.38h-15.05v-54.38h-22.32Z"/>
  <path class="cls-1" d="M797.36,478.4v-11.19h59.69v11.19h-22.32v54.38h-15.05v-54.38h-22.32Z"/>
</svg>